<?xml version="1.0" encoding="UTF-8" standalone="no"?>
<!-- Created with Inkscape (http://www.inkscape.org/) -->

<svg
   width="600mm"
   height="300mm"
   viewBox="0 0 600 300"
   version="1.1"
   id="svg5"
   inkscape:version="1.2.1 (9c6d41e410, 2022-07-14)"
   sodipodi:docname="draft.svg"
   xmlns:inkscape="http://www.inkscape.org/namespaces/inkscape"
   xmlns:sodipodi="http://sodipodi.sourceforge.net/DTD/sodipodi-0.dtd"
   xmlns="http://www.w3.org/2000/svg"
   xmlns:svg="http://www.w3.org/2000/svg">
  <sodipodi:namedview
     id="namedview7"
     pagecolor="#ffffff"
     bordercolor="#00ffff"
     borderopacity="1"
     inkscape:showpageshadow="0"
     inkscape:pageopacity="0"
     inkscape:pagecheckerboard="0"
     inkscape:deskcolor="#505050"
     inkscape:document-units="mm"
     showgrid="false"
     inkscape:zoom="0.4556713"
     inkscape:cx="1271.7501"
     inkscape:cy="713.23342"
     inkscape:window-width="1858"
     inkscape:window-height="1177"
     inkscape:window-x="54"
     inkscape:window-y="-8"
     inkscape:window-maximized="1"
     inkscape:current-layer="layer1" />
  <defs
     id="defs2" />
  <g
     inkscape:groupmode="layer"
     id="layer5"
     inkscape:label="L3..L12 MDF3mm"
     style="display:none">
    <path
       id="path447-7-6"
       style="font-weight:bold;font-size:273.224px;line-height:1.25;font-family:Heavitas;-inkscape-font-specification:Heavitas;display:inline;fill:none;stroke:#fe0000;stroke-width:0.264583;stroke-opacity:1"
       d="m 12.176788,12.838876 c -1.82149,0 -3.3696301,0.637501 -4.6446701,1.912545 -1.27504,1.275044 -1.91255,2.823186 -1.91255,4.644677 V 206.28132 c 0,1.82149 0.63751,3.36963 1.91255,4.64468 1.27504,1.27504 2.8231801,1.91254 4.6446701,1.91254 h 40.7107 c 1.82149,0 3.36963,-0.6375 4.64468,-1.91254 1.27504,-1.27505 1.91254,-2.82319 1.91254,-4.64468 v -44.26241 c 0,-1.8215 0.6375,-3.36964 1.91254,-4.64468 1.27504,-1.27504 2.82319,-1.91255 4.64468,-1.91255 h 6.011 c 1.8215,0 3.734,0.54629 5.73764,1.63918 2.00364,0.91075 3.55178,2.09505 4.64468,3.55224 5.64662,8.01456 11.29342,15.93771 16.94005,23.77012 5.828772,7.83242 11.657502,15.57416 17.486272,23.22443 1.0929,1.45719 2.64156,2.73219 4.64519,3.82509 2.18579,0.91074 4.189,1.3658 6.01049,1.3658 h 50.81964 c 1.82149,0 3.00579,-0.81942 3.55223,-2.45876 0.54646,-1.82149 0.27332,-3.46086 -0.81958,-4.91805 -6.01092,-8.01456 -12.84151,-16.84887 -20.49178,-26.50277 -7.65026,-9.65391 -14.93643,-19.0345 -21.85809,-28.14195 -1.0929,-1.4572 -1.45726,-2.91463 -1.09296,-4.37183 0.54645,-1.63934 1.54831,-3.00556 3.0055,-4.09846 4.37158,-2.73224 8.28781,-6.10167 11.74864,-10.10894 3.46083,-4.18944 6.46642,-8.83438 9.0165,-13.93455 2.55009,-5.10018 4.46259,-10.47383 5.73764,-16.12045 1.45719,-5.82878 2.18591,-11.6575 2.18591,-17.48628 0,-10.56465 -1.8218,-20.21838 -5.46478,-28.961539 C 160.35528,46.991806 155.4372,39.4325 149.06198,33.05728 142.86891,26.68206 135.3096,21.763976 126.38429,18.303142 117.45899,14.660159 107.71404,12.838876 97.149388,12.838876 Z m 82.78048,4.23385 c 2.25833,0.0088 4.51621,0.04555 6.772202,0.16123 5.99211,0.266424 12.03077,1.342203 17.75654,3.116606 5.68948,1.760092 11.27335,4.19779 16.2605,7.376294 5.3864,3.423972 10.23632,7.743593 14.24409,12.652458 6.54892,8.06986 11.06805,17.786957 13.32219,27.914056 1.62968,7.49922 2.13092,15.25723 1.38441,22.88904 -0.80086,7.73521 -2.73667,15.35935 -5.86734,22.51748 -3.40745,7.4768 -7.91272,14.66136 -14.0777,20.22512 -2.46992,2.51652 -5.75682,4.01127 -8.27339,6.46834 -3.20589,2.84675 -4.28585,8.01854 -1.99058,11.73779 13.47314,18.16308 27.88354,35.61256 41.49566,53.67114 0.59327,0.93274 1.49852,1.69541 1.87792,2.7466 -15.82591,0.0763 -31.6522,0.0528 -47.47824,0.0548 -2.73523,0.1234 -5.66828,0.0176 -8.0331,-1.53582 -1.50611,-1.07235 -2.57646,-2.63771 -3.73414,-4.05764 -10.77451,-14.06355 -21.221002,-28.37558 -31.402732,-42.87283 -1.93939,-3.22616 -4.93666,-5.76333 -8.39484,-7.23315 -3.56292,-1.89138 -7.71327,-1.72857 -11.62461,-1.66967 -5.56153,-0.69272 -11.264,3.67415 -11.88713,9.2754 -0.1493,14.85331 -0.087,29.70969 -0.0977,44.56421 0.29965,1.34794 -0.26866,3.10094 -1.74201,3.4556 -13.42149,0.1066 -26.84349,0.0752 -40.26525,0.076 -1.3873,0.32338 -3.16256,-0.46738 -3.3248601,-2.00763 -0.008,-61.99721 -0.0153,-123.99454 -0.0232,-185.99174 -0.33024,-1.400107 0.3510301,-3.233887 1.9063401,-3.500561 25.47393,-0.03784 50.94776,-0.02819 76.42169,-0.02739 2.25789,0.0046 4.51697,-0.01452 6.7753,-0.0057 z" />
  </g>
  <g
     inkscape:groupmode="layer"
     id="layer5-3"
     inkscape:label="L3..L12 MDF3mm"
     style="display:none"
     transform="translate(-190.25722,7.3548409)">
    <path
       id="path447-7-6-3"
       style="font-weight:bold;font-size:273.224px;line-height:1.25;font-family:Heavitas;-inkscape-font-specification:Heavitas;display:inline;fill:none;stroke:#fe0000;stroke-width:0.264583;stroke-opacity:1"
       d="m 608.49919,84.839024 c -1.82149,0 -3.36964,0.637502 -4.64468,1.912544 -1.27504,1.275043 -1.91255,2.823189 -1.91255,4.644678 V 278.28148 c 0,1.82149 0.63751,3.36963 1.91255,4.64468 1.27504,1.27504 2.82319,1.91254 4.64468,1.91254 h 40.71069 c 1.82149,0 3.36963,-0.6375 4.64468,-1.91254 1.27504,-1.27505 1.91254,-2.82319 1.91254,-4.64468 v -44.26241 c 0,-1.8215 0.63751,-3.36964 1.91255,-4.64468 1.27504,-1.27504 2.82319,-1.91255 4.64468,-1.91255 h 6.011 c 1.8215,0 3.73399,0.54629 5.73763,1.63918 2.00364,0.91075 3.55178,2.09505 4.64468,3.55224 5.64661,8.01455 11.29343,15.93772 16.94005,23.77012 5.82877,7.83242 11.65751,15.57416 17.48627,23.22443 1.0929,1.45718 2.64157,2.73219 4.6452,3.82508 2.18578,0.91074 4.18899,1.36581 6.01048,1.36581 h 50.81964 c 1.82149,0 3.0058,-0.81942 3.55224,-2.45876 0.54646,-1.82149 0.27331,-3.46086 -0.81959,-4.91805 -6.01091,-8.01455 -12.84151,-16.84888 -20.49177,-26.50277 -7.65026,-9.6539 -14.93645,-19.03451 -21.8581,-28.14195 -1.0929,-1.4572 -1.45726,-2.91463 -1.09296,-4.37183 0.54645,-1.63934 1.54832,-3.00556 3.0055,-4.09846 4.37158,-2.73224 8.28781,-6.10168 11.74864,-10.10894 3.46083,-4.18944 6.46643,-8.83439 9.01651,-13.93455 2.55008,-5.10018 4.46258,-10.47385 5.73763,-16.12046 1.45719,-5.82878 2.18591,-11.6575 2.18591,-17.48628 0,-10.56464 -1.8218,-20.21839 -5.46478,-28.96154 -3.46084,-8.74314 -8.37892,-16.30247 -14.75414,-22.67768 -6.19306,-6.375216 -13.75238,-11.29331 -22.67768,-14.754141 -8.92529,-3.642979 -18.67027,-5.464265 -29.23491,-5.464265 h -5.50354 v 4.236433 c 1.10389,-0.003 2.20767,-0.0069 3.31142,-0.0026 2.25833,0.0088 4.51621,0.04555 6.7722,0.16123 5.9921,0.266424 12.03078,1.342205 17.75654,3.116606 5.68947,1.76009 11.27336,4.197793 16.26051,7.376294 5.38639,3.423973 10.23632,7.743593 14.24409,12.652453 6.54891,8.06985 11.06804,17.78697 13.32218,27.91406 1.62968,7.49921 2.13092,15.25724 1.38441,22.88904 -0.80086,7.73521 -2.73667,15.35937 -5.86734,22.51749 -3.40745,7.47679 -7.91272,14.66137 -14.07769,20.22512 -2.46992,2.51652 -5.75683,4.01128 -8.2734,6.46834 -3.20589,2.84675 -4.28584,8.01854 -1.99058,11.73779 13.47313,18.16306 27.88356,35.61258 41.49566,53.67114 0.59327,0.93274 1.49852,1.69541 1.87792,2.7466 -15.82589,0.0763 -31.65221,0.0528 -47.47823,0.0548 -2.73523,0.1234 -5.66829,0.0176 -8.03311,-1.53582 -1.5061,-1.07235 -2.57646,-2.63771 -3.73413,-4.05764 -10.7745,-14.06353 -21.22102,-28.3756 -31.40274,-42.87283 -1.93939,-3.22616 -4.93666,-5.76333 -8.39484,-7.23315 -3.56291,-1.89138 -7.71327,-1.72857 -11.62461,-1.66967 -5.56152,-0.69272 -11.264,3.67416 -11.88713,9.2754 -0.1493,14.8533 -0.087,29.7097 -0.0977,44.56421 0.29965,1.34794 -0.26866,3.10094 -1.74201,3.4556 -13.42148,0.1066 -26.8435,0.0752 -40.26524,0.076 -1.3873,0.32338 -3.16256,-0.46738 -3.32486,-2.00763 -0.008,-61.99715 -0.0154,-123.99461 -0.0233,-185.991749 -0.33024,-1.400106 0.35104,-3.233888 1.90635,-3.500561 13.29506,-0.01975 26.59038,-0.02654 39.88542,-0.02842 v -4.238501 z" />
    <path
       id="path2382"
       style="font-weight:bold;font-size:273.224px;line-height:1.25;font-family:Heavitas;-inkscape-font-specification:Heavitas;fill:none;stroke:#fe0000;stroke-width:0.264583;stroke-opacity:1"
       d="m 672.59722,199.48386 c 1.82149,0 3.36964,-0.6375 4.64468,-1.91254 1.27504,-1.27505 1.91255,-2.82319 1.91255,-4.64468 V 6.0414026 c 0,-1.82149 -0.63751,-3.3696299 -1.91255,-4.6446799 -1.27504,-1.27504006 -2.82319,-1.91254006 -4.64468,-1.91254006 h -40.71069 c -1.82149,0 -3.36963,0.6375 -4.64468,1.91254006 -1.27504,1.27505 -1.91254,2.8231899 -1.91254,4.6446799 V 50.303811 c 0,1.8215 -0.63751,3.36964 -1.91255,4.64468 -1.27504,1.27504 -2.82319,1.91255 -4.64468,1.91255 h -6.011 c -1.8215,0 -3.73399,-0.54629 -5.73763,-1.63918 -2.00364,-0.91075 -3.55178,-2.09505 -4.64468,-3.55224 -5.64661,-8.01455 -11.29343,-15.93772 -16.94005,-23.770118 -5.82877,-7.83242 -11.65751,-15.57416 -17.48627,-23.2244304 -1.0929,-1.4571799 -2.64157,-2.7321899 -4.6452,-3.82507996 -2.18578,-0.91074 -4.18899,-1.36581 -6.01048,-1.36581 h -50.81964 c -1.82149,0 -3.0058,0.81942 -3.55224,2.45876006 -0.54646,1.8214899 -0.27331,3.4608599 0.81959,4.9180499 6.01091,8.0145504 12.84151,16.8488804 20.49177,26.5027684 7.65026,9.6539 14.93645,19.03451 21.8581,28.14195 1.0929,1.4572 1.45726,2.91463 1.09296,4.37183 -0.54645,1.63934 -1.54832,3.00556 -3.0055,4.09846 -4.37158,2.73224 -8.28781,6.10168 -11.74864,10.10894 -3.46083,4.18943 -6.46643,8.83439 -9.01651,13.93455 -2.55008,5.10018 -4.46258,10.473849 -5.73763,16.120459 -1.45719,5.82878 -2.18591,11.6575 -2.18591,17.48628 0,10.56464 1.8218,20.21839 5.46478,28.96153 3.46084,8.74315 8.37892,16.30248 14.75414,22.6777 6.19306,6.37521 13.75238,11.2933 22.67768,14.75414 8.92529,3.64297 18.67027,5.46426 29.23491,5.46426 h 5.50354 v -4.23643 c -1.10389,0.003 -2.20767,0.007 -3.31142,0.003 -2.25833,-0.009 -4.51621,-0.0456 -6.7722,-0.16123 -5.9921,-0.26643 -12.03078,-1.34221 -17.75654,-3.11661 -5.68947,-1.76009 -11.27336,-4.19779 -16.26051,-7.37629 -5.38639,-3.42397 -10.23632,-7.7436 -14.24409,-12.65246 -6.54891,-8.06986 -11.06804,-17.78698 -13.32218,-27.91407 -1.62968,-7.49921 -2.13092,-15.25723 -1.38441,-22.88903 0.80086,-7.73521 2.73667,-15.35938 5.86734,-22.517499 3.40745,-7.47678 7.91272,-14.66137 14.07769,-20.22512 2.46992,-2.51651 5.75683,-4.01128 8.2734,-6.46834 3.20589,-2.84675 4.28584,-8.01854 1.99058,-11.73779 -13.47313,-18.16306 -27.88356,-35.612568 -41.49566,-53.6711284 -0.59327,-0.93274 -1.49852,-1.69541 -1.87792,-2.7466 15.82589,-0.0763 31.65221,-0.0528 47.47823,-0.0548 2.73523,-0.1234 5.66829,-0.0176 8.03311,1.53582 1.5061,1.07235 2.57646,2.63771 3.73413,4.05764 10.7745,14.0635304 21.22102,28.3755884 31.40274,42.8728184 1.93939,3.22616 4.93666,5.76333 8.39484,7.23315 3.56291,1.89138 7.71327,1.72857 11.62461,1.66967 5.56152,0.69272 11.264,-3.67416 11.88713,-9.2754 0.1493,-14.8533 0.087,-29.709688 0.0977,-44.5641984 -0.29965,-1.34794 0.26866,-3.10094 1.74201,-3.4556 13.42148,-0.1066 26.8435,-0.0752 40.26524,-0.076 1.3873,-0.32338 3.16256,0.46738 3.32486,2.00763 0.008,61.9971484 0.0154,123.9945974 0.0233,185.9917474 0.33024,1.40011 -0.35104,3.23389 -1.90635,3.50056 -13.29506,0.0197 -26.59038,0.0265 -39.88542,0.0284 v 4.23851 z" />
  </g>
  <g
     inkscape:groupmode="layer"
     id="layer3"
     inkscape:label="L2 Plexi3mm"
     style="display:none"
     transform="translate(12.196487,7.9215577)">
    <g
       inkscape:label="Layer 1"
       inkscape:groupmode="layer"
       id="layer1-0"
       style="display:inline"
       transform="translate(166.09976,-46.895319)">
      <path
         id="path2088"
         style="font-weight:bold;font-size:273.224px;line-height:1.25;font-family:Heavitas;-inkscape-font-specification:Heavitas;fill:none;stroke:#fe0000;stroke-width:0.264583;stroke-opacity:1"
         d="m 123.29688,91.072266 c -27.970872,0.0081 -55.944237,-0.03516 -83.913529,0.04485 -2.362628,0.251076 -4.130925,2.682048 -3.791593,5.006714 -0.01395,62.27382 -0.0199,124.54766 0.01566,186.82148 0.223834,2.43161 2.746185,4.25509 5.12539,3.8926 13.590812,-0.0125 27.185661,0.0456 40.773902,-0.0563 2.372899,-0.34818 4.034142,-2.86966 3.667088,-5.19414 0.0101,-14.85691 -0.04876,-29.71635 0.06223,-44.57161 0.443649,-4.48635 4.933758,-8.05451 9.401462,-7.54589 3.482081,0.0412 7.15858,-0.39442 10.41086,1.15002 2.75114,1.13979 5.40174,2.77065 7.13927,5.24703 1.57577,2.11809 3.00476,4.34135 4.5823,6.45912 7.38385,10.46306 14.89016,20.84068 22.6609,31.02062 2.6276,3.45253 5.18374,6.96997 7.9678,10.29602 2.50694,2.50438 6.20113,3.41942 9.65957,3.197 16.53269,-0.003 33.0654,0.007 49.59805,-0.0332 1.23104,-0.30362 1.38802,-1.92351 1.03932,-2.9446 -0.57546,-1.48512 -1.84008,-2.54939 -2.68259,-3.87567 -13.35469,-17.71959 -27.48198,-34.84362 -40.75247,-52.62452 -1.54714,-2.38016 -1.35225,-5.66816 0.34379,-7.92193 1.808,-2.71691 4.95808,-3.99519 7.36246,-6.07426 4.95298,-3.93836 8.97277,-8.90272 12.21839,-14.27734 1.62578,-2.65096 3.13337,-5.48089 4.40168,-8.35231 2.94397,-6.58596 4.77311,-13.66068 5.79403,-20.76531 0.86302,-6.26848 0.78218,-12.63047 0.0551,-18.90547 -0.87994,-7.65485 -3.04722,-15.14404 -6.33049,-22.11209 -2.41237,-5.22051 -5.57793,-10.22101 -9.34574,-14.64064 -2.92275,-3.45004 -6.35315,-6.73553 -9.95313,-9.46484 -6.54983,-4.922301 -14.1047,-8.408792 -21.93461,-10.745939 -7.61108,-2.253401 -15.6278,-3.136498 -23.57515,-3.029453 z" />
    </g>
  </g>
  <g
     inkscape:groupmode="layer"
     id="layer4"
     inkscape:label="L2 MDF3mm"
     style="display:none">
    <path
       id="path447-2-9"
       style="font-weight:bold;font-size:273.224px;line-height:1.25;font-family:Heavitas;-inkscape-font-specification:Heavitas;display:inline;fill:none;stroke:#fe0000;stroke-width:0.264583;stroke-opacity:1"
       d="m 218.30582,49.9999 c -1.82149,0 -3.36963,0.6375 -4.64467,1.91255 -1.27505,1.27504 -1.91255,2.8237 -1.91255,4.64519 v 186.88524 c 0,1.82149 0.6375,3.36963 1.91255,4.64467 1.27504,1.27505 2.82318,1.91255 4.64467,1.91255 h 40.7107 c 1.82149,0 3.36963,-0.6375 4.64468,-1.91255 1.27504,-1.27504 1.91254,-2.82318 1.91254,-4.64467 v -44.26242 c 0,-1.82149 0.6375,-3.36963 1.91255,-4.64468 1.27503,-1.27503 2.82318,-1.91306 4.64467,-1.91306 h 6.01101 c 1.82149,0 3.73399,0.5468 5.73763,1.6397 2.00364,0.91074 3.5523,2.09453 4.64519,3.55172 5.64663,8.01456 11.29291,15.93823 16.93954,23.77064 5.82877,7.83241 11.6575,15.57364 17.48627,23.22391 1.0929,1.45719 2.64156,2.73219 4.64519,3.82508 2.1858,0.91075 4.189,1.36633 6.01049,1.36633 h 50.82015 c 1.8215,0 3.00528,-0.81994 3.55173,-2.45928 0.54645,-1.82149 0.27331,-3.46086 -0.81959,-4.91805 -6.01092,-8.01456 -12.84151,-16.84887 -20.49178,-26.50277 -7.65026,-9.65391 -14.93643,-19.0345 -21.85809,-28.14195 -1.09289,-1.4572 -1.45726,-2.91412 -1.09296,-4.37131 0.54645,-1.63934 1.54831,-3.00556 3.0055,-4.09846 4.37158,-2.73224 8.28781,-6.10219 11.74864,-10.10946 3.46084,-4.18944 6.46642,-8.83438 9.0165,-13.93455 2.55009,-5.10018 4.46259,-10.47333 5.73764,-16.11995 1.45719,-5.82877 2.18591,-11.6575 2.18591,-17.48627 0,-10.56465 -1.8218,-20.21889 -5.46478,-28.96206 -3.46084,-8.74315 -8.37892,-16.30194 -14.75414,-22.677169 -6.19307,-6.37522 -13.75186,-11.2933 -22.67717,-14.75413 -8.9253,-3.64299 -18.67077,-5.46479 -29.23542,-5.46479 z m 41.31738,2.11254 c 13.98585,-2e-4 27.97171,0.009 41.95713,0.005 7.94734,-0.10704 15.96423,0.77587 23.5753,3.02927 7.82991,2.33715 15.38476,5.82382 21.93458,10.74611 3.59998,2.72931 7.03014,6.014509 9.95288,9.464539 3.76781,4.41963 6.93383,9.41995 9.3462,14.64045 3.28327,6.96805 5.45043,14.457511 6.33037,22.112351 0.72707,6.27499 0.80772,12.63683 -0.0553,18.9053 -1.02092,7.10463 -2.84999,14.17971 -5.79396,20.76566 -1.26831,2.87142 -2.77602,5.70099 -4.4018,8.35195 -3.24562,5.37461 -7.2654,10.33932 -12.21837,14.27768 -2.40438,2.07907 -5.55435,3.35714 -7.36235,6.07405 -1.69603,2.25376 -1.89078,5.54184 -0.34364,7.92199 13.27047,17.78089 27.39787,34.90513 40.75255,52.6247 0.84251,1.32628 2.10706,2.39009 2.68252,3.87521 0.3487,1.02109 0.19183,2.64142 -1.03921,2.94504 -16.53264,0.0402 -33.06585,0.0301 -49.59852,0.0331 -3.45844,0.22242 -7.15243,-0.69285 -9.65936,-3.19722 -2.78406,-3.32605 -5.3404,-6.84349 -7.96799,-10.29602 -7.77073,-10.17993 -15.27679,-20.55728 -22.66064,-31.02033 -1.57753,-2.11776 -3.00638,-4.34095 -4.58214,-6.45903 -1.73753,-2.47638 -4.38848,-4.10744 -7.13962,-5.24723 -3.25228,-1.54444 -6.92866,-1.1086 -10.41073,-1.1498 -4.4677,-0.50862 -8.95785,3.05945 -9.4015,7.54579 -0.111,14.85525 -0.0519,29.71455 -0.062,44.57144 0.36705,2.32448 -1.29458,4.84582 -3.66748,5.194 -13.58822,0.1019 -27.18294,0.0438 -40.77373,0.0563 -2.37921,0.36249 -4.90144,-1.46066 -5.12527,-3.89227 -0.0356,-62.27376 -0.0294,-124.54791 -0.0155,-186.82167 -0.33933,-2.32466 1.42888,-4.75586 3.7915,-5.00693 13.98464,-0.04 27.97025,-0.0489 41.9561,-0.0491 z" />
  </g>
  <g
     inkscape:groupmode="layer"
     id="layer2"
     inkscape:label="L1 MDF3mm"
     style="display:none">
    <g
       id="g1999"
       transform="translate(-30.388042,-8.5161625)"
       style="display:inline">
      <path
         style="font-weight:bold;font-size:273.224px;line-height:1.25;font-family:Heavitas;-inkscape-font-specification:Heavitas;fill:none;stroke:#fe0000;stroke-width:0.264583;stroke-opacity:1"
         d="m 302.51911,150.86585 h 28.96174 q 3.27869,0 6.8306,-1.0929 3.55191,-1.36612 6.55738,-3.82513 3.00546,-2.73224 4.91803,-6.55738 1.91257,-3.82513 1.91257,-9.01639 0,-2.73224 -1.0929,-6.28415 -0.81967,-3.82513 -3.27869,-7.10382 -2.18579,-3.55191 -6.28415,-5.73771 -3.82513,-2.45901 -9.56284,-2.45901 h -28.96174 q -2.73224,0 -4.6448,1.91257 -1.91257,1.91256 -1.91257,4.6448 v 28.96174 q 0,2.73224 1.91257,4.64481 1.91256,1.91257 4.6448,1.91257 z"
         id="path1984" />
      <path
         id="path447-7"
         style="font-weight:bold;font-size:273.224px;line-height:1.25;font-family:Heavitas;-inkscape-font-specification:Heavitas;fill:none;stroke:#fe0000;stroke-width:0.264583;stroke-opacity:1"
         d="m 248.69386,58.516325 c -1.82149,0 -3.36963,0.637501 -4.64467,1.912545 -1.27504,1.275044 -1.91255,2.823186 -1.91255,4.644677 V 251.95878 c 0,1.82149 0.63751,3.36963 1.91255,4.64468 1.27504,1.27504 2.82318,1.91254 4.64467,1.91254 h 40.7107 c 1.82149,0 3.36963,-0.6375 4.64468,-1.91254 1.27504,-1.27505 1.91254,-2.82319 1.91254,-4.64468 v -44.26241 c 0,-1.8215 0.6375,-3.36964 1.91254,-4.64468 1.27504,-1.27504 2.82319,-1.91255 4.64468,-1.91255 h 6.011 c 1.8215,0 3.734,0.54629 5.73764,1.63918 2.00364,0.91075 3.55178,2.09505 4.64468,3.55224 5.64662,8.01456 11.29342,15.93771 16.94005,23.77012 5.82877,7.83242 11.6575,15.57416 17.48627,23.22443 1.0929,1.45719 2.64156,2.73219 4.64519,3.82509 2.18579,0.91074 4.189,1.3658 6.01049,1.3658 h 50.81964 c 1.82149,0 3.00579,-0.81942 3.55223,-2.45876 0.54646,-1.82149 0.27332,-3.46086 -0.81958,-4.91805 -6.01092,-8.01456 -12.84151,-16.84887 -20.49178,-26.50277 -7.65026,-9.65391 -14.93643,-19.0345 -21.85809,-28.14195 -1.0929,-1.4572 -1.45726,-2.91463 -1.09296,-4.37183 0.54645,-1.63934 1.54831,-3.00556 3.0055,-4.09846 4.37158,-2.73224 8.28781,-6.10167 11.74864,-10.10894 3.46083,-4.18944 6.46642,-8.83438 9.0165,-13.93455 2.55009,-5.10018 4.46259,-10.47384 5.73764,-16.12046 1.45719,-5.82878 2.18591,-11.6575 2.18591,-17.48628 0,-10.56465 -1.8218,-20.21838 -5.46478,-28.96154 -3.46084,-8.743155 -8.37892,-16.302461 -14.75414,-22.677681 -6.19307,-6.37522 -13.75238,-11.293304 -22.67769,-14.754138 -8.9253,-3.642983 -18.67025,-5.464266 -29.2349,-5.464266 z m 82.78048,4.23385 c 2.25833,0.0088 4.51621,0.04555 6.7722,0.16123 5.99211,0.266424 12.03077,1.342203 17.75654,3.116606 5.68948,1.760092 11.27335,4.19779 16.2605,7.376294 5.3864,3.423972 10.23632,7.743593 14.24409,12.652458 6.54892,8.06986 11.06805,17.786957 13.32219,27.914057 1.62968,7.49922 2.13092,15.25723 1.38441,22.88904 -0.80086,7.73521 -2.73667,15.35935 -5.86734,22.51749 -3.40745,7.4768 -7.91272,14.66136 -14.0777,20.22512 -2.46992,2.51652 -5.75682,4.01127 -8.27339,6.46834 -3.20589,2.84675 -4.28585,8.01854 -1.99058,11.73779 13.47314,18.16308 27.88354,35.61256 41.49566,53.67114 0.59327,0.93274 1.49852,1.69541 1.87792,2.7466 -15.82591,0.0763 -31.6522,0.0528 -47.47824,0.0548 -2.73523,0.1234 -5.66828,0.0176 -8.0331,-1.53582 -1.50611,-1.07235 -2.57646,-2.63771 -3.73414,-4.05764 -10.77451,-14.06355 -21.221,-28.37558 -31.40273,-42.87283 -1.93939,-3.22616 -4.93666,-5.76333 -8.39484,-7.23315 -3.56292,-1.89138 -7.71327,-1.72857 -11.62461,-1.66967 -5.56153,-0.69272 -11.264,3.67415 -11.88713,9.2754 -0.1493,14.85331 -0.087,29.70969 -0.0977,44.56421 0.29965,1.34794 -0.26866,3.10094 -1.74201,3.4556 -13.42149,0.1066 -26.84349,0.0752 -40.26525,0.076 -1.3873,0.32338 -3.16256,-0.46738 -3.32486,-2.00763 -0.008,-61.99721 -0.0153,-123.99455 -0.0232,-185.991751 -0.33024,-1.400107 0.35103,-3.233887 1.90634,-3.500561 25.47393,-0.03784 50.94776,-0.02819 76.42169,-0.02739 2.25789,0.0046 4.51697,-0.01452 6.7753,-0.0057 z" />
    </g>
  </g>
  <g
     inkscape:label="Layer 1"
     inkscape:groupmode="layer"
     id="layer1"
     style="display:inline"
     transform="translate(-8.1290322,-244.45161)">
    <path
       d="M 67.834782,455.09824 H 27.124407 q -2.73224,0 -4.644808,-1.91257 -1.912568,-1.91257 -1.912568,-4.64481 V 261.65564 q 0,-2.73224 1.912568,-4.64481 1.912568,-1.91256 4.644808,-1.91256 h 84.972663 q 15.847,0 29.23497,5.46448 13.38798,5.19125 22.67759,14.75409 9.56284,9.56284 14.7541,22.67759 5.46448,13.11475 5.46448,28.96175 0,8.74317 -2.18579,17.48634 -1.91257,8.46994 -5.73771,16.12021 -3.82513,7.65027 -9.01639,13.93443 -5.19125,6.01092 -11.74863,10.10928 -2.18579,1.63935 -3.00546,4.09836 -0.54645,2.1858 1.09289,4.37159 10.38251,13.6612 21.85792,28.14207 11.47541,14.48087 20.4918,26.50273 1.63935,2.18579 0.81967,4.91803 -0.81967,2.45902 -3.55191,2.45902 h -50.81966 q -2.73224,0 -6.01093,-1.36612 -3.00546,-1.63935 -4.64481,-3.82514 -8.74317,-11.47541 -17.48633,-23.22404 -8.46995,-11.74863 -16.939902,-23.77049 -1.63935,-2.18579 -4.644806,-3.55191 -3.00546,-1.63934 -5.7377,-1.63934 h -6.01093 q -2.73224,0 -4.6448,1.91256 -1.91257,1.91257 -1.91257,4.64481 v 44.26229 q 0,2.73224 -1.91257,4.64481 -1.91257,1.91257 -4.64481,1.91257 z m 13.11475,-107.65026 h 28.961748 q 3.27869,0 6.8306,-1.0929 3.55191,-1.36612 6.55738,-3.82513 3.00546,-2.73224 4.91803,-6.55738 1.91257,-3.82513 1.91257,-9.01639 0,-2.73224 -1.0929,-6.28415 -0.81967,-3.82514 -3.27869,-7.10383 -2.18579,-3.55191 -6.28415,-5.7377 -3.82513,-2.45902 -9.56284,-2.45902 H 80.949532 q -2.73224,0 -4.6448,1.91257 -1.91257,1.91257 -1.91257,4.64481 v 28.96174 q 0,2.73224 1.91257,4.64481 1.91256,1.91257 4.6448,1.91257 z"
       style="font-weight:bold;font-size:273.224px;line-height:1.25;font-family:Heavitas;-inkscape-font-specification:Heavitas;display:inline;fill:none;stroke:#fe0000;stroke-width:0.1;stroke-opacity:1;stroke-dasharray:none"
       id="path447" />
    <path
       style="font-weight:bold;font-size:273.224px;line-height:1.25;font-family:Heavitas;-inkscape-font-specification:Heavitas;display:inline;fill:none;stroke:#fe0000;stroke-width:0.1;stroke-opacity:1;stroke-dasharray:none"
       d="m 298.59451,274.64512 a 60,60 0 0 1 59.99995,59.99995 60,60 0 0 1 -59.99995,59.99996 60,60 0 0 1 -59.99996,-59.99996 60,60 0 0 1 59.99996,-59.99995 z"
       id="path1841" />
    <path
       style="font-weight:bold;font-size:273.224px;line-height:1.25;font-family:Heavitas;-inkscape-font-specification:Heavitas;display:inline;fill:none;stroke:#fe0000;stroke-width:0.0999997;stroke-dasharray:none;stroke-opacity:1"
       d="m 292.06452,475.27418 a 60,59.500045 0 0 1 59.99995,59.5 60,59.500045 0 0 1 -59.99995,59.5 60,59.500045 0 0 1 -59.99996,-59.5 60,59.500045 0 0 1 59.99996,-59.5 z"
       id="path1841-2" />
    <path
       style="font-weight:bold;font-size:273.224px;line-height:1.25;font-family:Heavitas;-inkscape-font-specification:Heavitas;display:inline;fill:none;stroke:#fe0000;stroke-width:0.1;stroke-opacity:1;stroke-dasharray:none"
       d="m 216.90079,264.06437 c -1.8215,0 -3.37015,0.6375 -4.6452,1.91254 -1.27504,1.27505 -1.91254,2.8237 -1.91254,4.6452 v 186.88523 c 0,1.82149 0.6375,3.36963 1.91254,4.64468 1.27505,1.27504 2.8237,1.91254 4.6452,1.91254 h 40.71017 c 1.82149,0 3.36963,-0.6375 4.64468,-1.91254 1.27504,-1.27505 1.91254,-2.82319 1.91254,-4.64468 v -44.26242 c 0,-1.82149 0.6375,-3.36963 1.91255,-4.64467 1.27504,-1.27504 2.82319,-1.91255 4.64468,-1.91255 h 6.011 c 1.82149,0 3.734,0.54629 5.73763,1.63918 2.00364,0.91074 3.5523,2.09453 4.6452,3.55172 5.64663,8.01457 11.2929,15.93823 16.93953,23.77064 5.82877,7.83241 11.65802,15.57364 17.48679,23.22391 1.0929,1.45719 2.64104,2.73219 4.64468,3.82509 2.18579,0.91074 4.18951,1.36632 6.011,1.36632 h 50.81964 c 1.82149,0 3.00527,-0.81993 3.55172,-2.45928 0.54645,-1.82149 0.27331,-3.46085 -0.81959,-4.91805 -6.01092,-8.01456 -12.84151,-16.84835 -20.49177,-26.50225 -7.65027,-9.65391 -14.93643,-19.03501 -21.8581,-28.14247 -1.09289,-1.45719 -1.45726,-2.91411 -1.09296,-4.37131 0.54645,-1.63934 1.54831,-3.00556 3.00551,-4.09846 4.37158,-2.73224 8.2878,-6.10218 11.74863,-10.10946 3.46084,-4.18944 6.46642,-8.83386 9.01651,-13.93403 2.55009,-5.10018 4.46259,-10.47385 5.73763,-16.12047 1.45719,-5.82877 2.18591,-11.65749 2.18591,-17.48627 0,-10.56465 -1.82128,-20.2189 -5.46426,-28.96205 -3.46084,-8.74316 -8.37892,-16.30195 -14.75414,-22.67717 -6.19307,-6.37522 -13.75237,-11.29331 -22.67769,-14.75414 -8.9253,-3.64298 -18.67025,-5.46478 -29.2349,-5.46478 z"
       id="path447-6" />
    <path
       style="font-weight:bold;font-size:273.224px;line-height:1.25;font-family:Heavitas;-inkscape-font-specification:Heavitas;display:inline;fill:none;stroke:#fe0000;stroke-width:0.1;stroke-opacity:1;stroke-dasharray:none"
       d="m 463.41753,458.41082 h -40.71037 q -2.73224,0 -4.64481,-1.91257 -1.91257,-1.91257 -1.91257,-4.64481 V 264.96822 q 0,-2.73224 1.91257,-4.64481 1.91257,-1.91256 4.64481,-1.91256 h 84.97266 q 15.847,0 29.23497,5.46448 13.38798,5.19125 22.67759,14.75409 9.56284,9.56284 14.7541,22.67759 5.46448,13.11475 5.46448,28.96175 0,8.74317 -2.18579,17.48634 -1.91257,8.46994 -5.73771,16.12021 -3.82513,7.65027 -9.01639,13.93443 -5.19125,6.01092 -11.74863,10.10928 -2.18579,1.63935 -3.00546,4.09836 -0.54645,2.1858 1.09289,4.37159 10.38251,13.6612 21.85792,28.14207 11.47541,14.48087 20.4918,26.50273 1.63935,2.18579 0.81967,4.91803 -0.81967,2.45902 -3.55191,2.45902 h -50.81966 q -2.73224,0 -6.01093,-1.36612 -3.00546,-1.63935 -4.64481,-3.82514 -8.74317,-11.47541 -17.48633,-23.22404 -8.46995,-11.74863 -16.9399,-23.77049 -1.63935,-2.18579 -4.64481,-3.55191 -3.00546,-1.63934 -5.7377,-1.63934 h -6.01093 q -2.73224,0 -4.6448,1.91256 -1.91257,1.91257 -1.91257,4.64481 v 44.26229 q 0,2.73224 -1.91257,4.64481 -1.91257,1.91257 -4.64481,1.91257 z"
       id="path447-6-8" />
    <rect
       style="fill:none;stroke:#fe0000;stroke-width:0.1;stroke-linejoin:round;stroke-dasharray:none"
       id="rect357"
       width="3.1000001"
       height="180"
       x="417.84393"
       y="267.58966" />
    <rect
       style="display:inline;fill:none;stroke:#fe0000;stroke-width:0.1;stroke-linejoin:round;stroke-dasharray:none"
       id="rect357-0"
       width="3.1000001"
       height="86.388191"
       x="260.31927"
       y="-513.63409"
       transform="rotate(90)" />
    <rect
       style="display:inline;fill:none;stroke:#fe0000;stroke-width:0.1;stroke-linejoin:round;stroke-dasharray:none"
       id="rect357-0-2"
       width="3.1000001"
       height="38.966419"
       x="453.93878"
       y="-462.31186"
       transform="rotate(90)" />
    <rect
       style="display:inline;fill:none;stroke:#fe0000;stroke-width:0.1;stroke-linejoin:round;stroke-dasharray:none"
       id="rect357-0-2-6"
       width="3.1000001"
       height="43.688065"
       x="453.73349"
       y="-583.94562"
       transform="rotate(90)" />
    <rect
       style="display:inline;fill:none;stroke:#fe0000;stroke-width:0.1;stroke-linejoin:round;stroke-dasharray:none"
       id="rect357-0-2-2"
       width="3.1000001"
       height="60.727058"
       x="-187.59444"
       y="-713.8963"
       transform="rotate(142.04033)" />
    <rect
       style="display:inline;fill:none;stroke:#fe0000;stroke-width:0.1;stroke-linejoin:round;stroke-dasharray:none"
       id="rect357-0-2-2-1"
       width="3.1000001"
       height="60.727058"
       x="-159.42682"
       y="-680.94965"
       transform="rotate(143.50305)" />
    <path
       id="path917"
       style="font-weight:bold;font-size:273.224px;line-height:1.25;font-family:Heavitas;-inkscape-font-specification:Heavitas;display:inline;fill:none;stroke:#fe0000;stroke-width:0.1;stroke-dasharray:none;stroke-opacity:1"
       d="m 501.08398,264.76758 c -26.14714,0.004 -52.29429,2.8e-4 -78.4414,0.0469 -0.46428,0.68788 -0.0183,1.5873 -0.14059,2.3625 0.0104,61.56953 0.0104,123.14221 0.0273,184.70977 0.66837,0.51049 1.60373,0.0519 2.38515,0.17175 12.86709,-0.007 25.7344,0.0204 38.60117,-0.0878 0.41226,-0.78104 -0.0336,-1.70642 0.10743,-2.54765 0.017,-14.56991 -0.0631,-29.14185 0.13672,-43.71016 0.78465,-6.60336 7.46617,-11.77705 14.04687,-11.02344 4.3364,-0.11967 8.92065,-0.0712 12.83488,2.04985 4.01041,1.76804 7.25422,4.9711 9.50257,8.69302 10.50688,14.86252 21.16569,29.62692 32.38716,43.96026 0.99165,1.25263 2.37467,2.23088 3.98521,2.43361 2.84993,0.55147 5.76247,0.10118 8.64018,0.24356 13.06367,-0.0122 26.12734,-0.0244 39.19102,-0.0365 -13.54693,-17.9327 -27.84804,-35.28906 -41.21289,-53.35351 -2.83942,-4.75587 -1.32204,-11.37704 2.97391,-14.74724 2.94889,-2.59696 6.56057,-4.39639 9.17656,-7.37891 6.5858,-6.57244 11.20689,-14.94885 14.26554,-23.64143 0.96649,-2.86098 1.82258,-5.96749 2.43166,-8.98409 2.75864,-13.33842 1.58756,-27.49282 -3.4913,-40.19327 -3.76821,-9.41281 -9.7885,-18.07465 -17.6887,-24.52906 -8.201,-6.75197 -18.31268,-11.03045 -28.72358,-13.08584 -5.39237,-1.07405 -10.84288,-1.38257 -16.31753,-1.35556 -1.55911,-0.006 -3.11823,0.002 -4.67735,0.003 z" />
  </g>
</svg>
