<?xml version="1.0" encoding="UTF-8" standalone="no"?>
<!-- Created with Inkscape (http://www.inkscape.org/) -->

<svg
   width="210mm"
   height="297mm"
   viewBox="0 0 210 297"
   version="1.1"
   id="svg483"
   inkscape:version="1.2.1 (9c6d41e410, 2022-07-14)"
   sodipodi:docname="L2A.svg"
   xmlns:inkscape="http://www.inkscape.org/namespaces/inkscape"
   xmlns:sodipodi="http://sodipodi.sourceforge.net/DTD/sodipodi-0.dtd"
   xmlns="http://www.w3.org/2000/svg"
   xmlns:svg="http://www.w3.org/2000/svg">
  <sodipodi:namedview
     id="namedview485"
     pagecolor="#ffffff"
     bordercolor="#000000"
     borderopacity="0.25"
     inkscape:showpageshadow="2"
     inkscape:pageopacity="0.0"
     inkscape:pagecheckerboard="0"
     inkscape:deskcolor="#d1d1d1"
     inkscape:document-units="mm"
     showgrid="false"
     inkscape:zoom="0.2102413"
     inkscape:cx="-16.647538"
     inkscape:cy="563.63806"
     inkscape:window-width="1920"
     inkscape:window-height="1111"
     inkscape:window-x="-9"
     inkscape:window-y="-9"
     inkscape:window-maximized="1"
     inkscape:current-layer="layer1" />
  <defs
     id="defs480" />
  <g
     inkscape:label="Layer 1"
     inkscape:groupmode="layer"
     id="layer1">
    <path
       id="path447-2-9"
       style="font-weight:bold;font-size:273.224px;line-height:1.25;font-family:Heavitas;-inkscape-font-specification:Heavitas;display:inline;fill:none;stroke:#fe0000;stroke-width:0.264583;stroke-opacity:1"
       d="m 23.305816,48.4999 c -1.82149,0 -3.36963,0.6375 -4.64467,1.91255 -1.27505,1.27504 -1.91255,2.8237 -1.91255,4.64519 v 186.88524 c 0,1.82149 0.6375,3.36963 1.91255,4.64467 1.27504,1.27505 2.82318,1.91255 4.64467,1.91255 h 40.7107 c 1.82149,0 3.36963,-0.6375 4.64468,-1.91255 1.27504,-1.27504 1.91254,-2.82318 1.91254,-4.64467 v -44.26242 c 0,-1.82149 0.6375,-3.36963 1.91255,-4.64468 1.27503,-1.27503 2.82318,-1.91306 4.64467,-1.91306 h 6.01101 c 1.82149,0 3.73399,0.5468 5.73763,1.6397 2.00364,0.91074 3.5523,2.09453 4.64519,3.55172 5.64663,8.01456 11.292914,15.93823 16.939544,23.77064 5.82877,7.83241 11.6575,15.57364 17.48627,23.22391 1.0929,1.45719 2.64156,2.73219 4.64519,3.82508 2.1858,0.91075 4.189,1.36633 6.01049,1.36633 h 50.82015 c 1.8215,0 3.00528,-0.81994 3.55173,-2.45928 0.54645,-1.82149 0.27331,-3.46086 -0.81959,-4.91805 -6.01092,-8.01456 -12.84151,-16.84887 -20.49178,-26.50277 -7.65026,-9.65391 -14.93643,-19.0345 -21.85809,-28.14195 -1.09289,-1.4572 -1.45726,-2.91412 -1.09296,-4.37131 0.54645,-1.63934 1.54831,-3.00556 3.0055,-4.09846 4.37158,-2.73224 8.28781,-6.10219 11.74864,-10.10946 3.46084,-4.18944 6.46642,-8.83438 9.0165,-13.93455 2.55009,-5.10018 4.46259,-10.47333 5.73764,-16.11995 1.45719,-5.82877 2.18591,-11.6575 2.18591,-17.48627 0,-10.56465 -1.8218,-20.21889 -5.46478,-28.96206 C 171.48431,82.65284 166.56623,75.09405 160.19101,68.718821 153.99794,62.3436 146.43915,57.42552 137.51384,53.96469 128.58854,50.3217 118.84307,48.4999 108.27842,48.4999 Z m 41.31738,2.11254 c 13.98585,-2e-4 27.97171,0.009 41.957134,0.005 7.94734,-0.10704 15.96423,0.77587 23.5753,3.02927 7.82991,2.33715 15.38476,5.82382 21.93458,10.74611 3.59998,2.72931 7.03014,6.014509 9.95288,9.464539 3.76781,4.41963 6.93383,9.41995 9.3462,14.64045 3.28327,6.96805 5.45043,14.457511 6.33037,22.112351 0.72707,6.27499 0.80772,12.63683 -0.0553,18.9053 -1.02092,7.10463 -2.84999,14.17971 -5.79396,20.76566 -1.26831,2.87142 -2.77602,5.70099 -4.4018,8.35195 -3.24562,5.37461 -7.2654,10.33932 -12.21837,14.27768 -2.40438,2.07907 -5.55435,3.35714 -7.36235,6.07405 -1.69603,2.25376 -1.89078,5.54184 -0.34364,7.92199 13.27047,17.78089 27.39787,34.90513 40.75255,52.6247 0.84251,1.32628 2.10706,2.39009 2.68252,3.87521 0.3487,1.02109 0.19183,2.64142 -1.03921,2.94504 -16.53264,0.0402 -33.06585,0.0301 -49.59852,0.0331 -3.45844,0.22242 -7.15243,-0.69285 -9.65936,-3.19722 -2.78406,-3.32605 -5.3404,-6.84349 -7.96799,-10.29602 -7.77073,-10.17993 -15.27679,-20.55728 -22.66064,-31.02033 -1.577534,-2.11776 -3.006384,-4.34095 -4.582144,-6.45903 -1.73753,-2.47638 -4.38848,-4.10744 -7.13962,-5.24723 -3.25228,-1.54444 -6.92866,-1.1086 -10.41073,-1.1498 -4.4677,-0.50862 -8.95785,3.05945 -9.4015,7.54579 -0.111,14.85525 -0.0519,29.71455 -0.062,44.57144 0.36705,2.32448 -1.29458,4.84582 -3.66748,5.194 -13.58822,0.1019 -27.18294,0.0438 -40.77373,0.0563 -2.37921,0.36249 -4.90144,-1.46066 -5.12527,-3.89227 -0.0356,-62.27376 -0.0294,-124.54791 -0.0155,-186.82167 -0.33933,-2.32466 1.42888,-4.75586 3.7915,-5.00693 13.98464,-0.04 27.97025,-0.0489 41.9561,-0.0491 z" />
  </g>
</svg>
