<?xml version="1.0" encoding="UTF-8" standalone="no"?>
<!-- Created with Inkscape (http://www.inkscape.org/) -->

<svg
   width="210mm"
   height="297mm"
   viewBox="0 0 210 297"
   version="1.1"
   id="svg671"
   inkscape:version="1.2.1 (9c6d41e410, 2022-07-14)"
   sodipodi:docname="L2B.svg"
   xmlns:inkscape="http://www.inkscape.org/namespaces/inkscape"
   xmlns:sodipodi="http://sodipodi.sourceforge.net/DTD/sodipodi-0.dtd"
   xmlns="http://www.w3.org/2000/svg"
   xmlns:svg="http://www.w3.org/2000/svg">
  <sodipodi:namedview
     id="namedview673"
     pagecolor="#ffffff"
     bordercolor="#000000"
     borderopacity="0.25"
     inkscape:showpageshadow="2"
     inkscape:pageopacity="0.0"
     inkscape:pagecheckerboard="0"
     inkscape:deskcolor="#d1d1d1"
     inkscape:document-units="mm"
     showgrid="false"
     inkscape:zoom="0.2102413"
     inkscape:cx="-16.647538"
     inkscape:cy="563.63806"
     inkscape:window-width="1920"
     inkscape:window-height="1111"
     inkscape:window-x="-9"
     inkscape:window-y="-9"
     inkscape:window-maximized="1"
     inkscape:current-layer="layer1" />
  <defs
     id="defs668" />
  <g
     inkscape:label="Layer 1"
     inkscape:groupmode="layer"
     id="layer1">
    <path
       id="path2088"
       style="font-weight:bold;font-size:273.224px;line-height:1.25;font-family:Heavitas;-inkscape-font-specification:Heavitas;display:inline;fill:none;stroke:#fe0000;stroke-width:0.264583;stroke-opacity:1"
       d="m 106.59312,50.598533 c -27.970869,0.008 -55.944239,-0.0352 -83.913529,0.0448 -2.36263,0.25107 -4.13092,2.68204 -3.79159,5.00671 -0.014,62.273817 -0.0199,124.547657 0.0157,186.821477 0.22383,2.43161 2.74618,4.25509 5.12539,3.8926 13.59081,-0.0125 27.18566,0.0456 40.7739,-0.0563 2.3729,-0.34818 4.03414,-2.86966 3.66709,-5.19414 0.0101,-14.85691 -0.0488,-29.71635 0.0622,-44.57161 0.44365,-4.48635 4.93376,-8.05451 9.40146,-7.54589 3.48208,0.0412 7.15858,-0.39442 10.41086,1.15002 2.75114,1.13979 5.40174,2.77065 7.13927,5.24703 1.57577,2.11809 3.00476,4.34135 4.582299,6.45912 7.38385,10.46306 14.89016,20.84068 22.6609,31.02062 2.6276,3.45253 5.18374,6.96997 7.9678,10.29602 2.50694,2.50438 6.20113,3.41942 9.65957,3.197 16.53269,-0.003 33.0654,0.007 49.59805,-0.0332 1.23104,-0.30362 1.38802,-1.92351 1.03932,-2.9446 -0.57546,-1.48512 -1.84008,-2.54939 -2.68259,-3.87567 -13.3547,-17.71954 -27.48199,-34.84357 -40.75248,-52.62447 -1.54714,-2.38016 -1.35225,-5.66816 0.34379,-7.92193 1.808,-2.71691 4.95808,-3.99519 7.36246,-6.07426 4.95298,-3.93836 8.97277,-8.90272 12.21839,-14.27734 1.62578,-2.65096 3.13337,-5.48089 4.40168,-8.35231 2.94397,-6.58596 4.77311,-13.66068 5.79403,-20.76531 0.86302,-6.26848 0.78218,-12.63047 0.0551,-18.90547 -0.87994,-7.65485 -3.04722,-15.144037 -6.33049,-22.112087 -2.41237,-5.22051 -5.57793,-10.22101 -9.34574,-14.64064 -2.92275,-3.45004 -6.35315,-6.73553 -9.95313,-9.46484 -6.54983,-4.9223 -14.1047,-8.40879 -21.93461,-10.74594 -7.61108,-2.2534 -15.6278,-3.1365 -23.57515,-3.02945 z" />
  </g>
</svg>
