<?xml version="1.0" encoding="UTF-8" standalone="no"?>
<!-- Created with Inkscape (http://www.inkscape.org/) -->

<svg
   width="210mm"
   height="297mm"
   viewBox="0 0 210 297"
   version="1.1"
   id="svg831"
   inkscape:version="1.2.1 (9c6d41e410, 2022-07-14)"
   sodipodi:docname="L3L4.svg"
   xmlns:inkscape="http://www.inkscape.org/namespaces/inkscape"
   xmlns:sodipodi="http://sodipodi.sourceforge.net/DTD/sodipodi-0.dtd"
   xmlns="http://www.w3.org/2000/svg"
   xmlns:svg="http://www.w3.org/2000/svg">
  <sodipodi:namedview
     id="namedview833"
     pagecolor="#ffffff"
     bordercolor="#000000"
     borderopacity="0.25"
     inkscape:showpageshadow="2"
     inkscape:pageopacity="0.0"
     inkscape:pagecheckerboard="0"
     inkscape:deskcolor="#d1d1d1"
     inkscape:document-units="mm"
     showgrid="false"
     inkscape:zoom="0.2102413"
     inkscape:cx="-16.647538"
     inkscape:cy="563.63806"
     inkscape:window-width="1920"
     inkscape:window-height="1111"
     inkscape:window-x="-9"
     inkscape:window-y="-9"
     inkscape:window-maximized="1"
     inkscape:current-layer="layer1" />
  <defs
     id="defs828" />
  <g
     inkscape:label="Layer 1"
     inkscape:groupmode="layer"
     id="layer1">
    <path
       id="path447-7-6"
       style="font-weight:bold;font-size:273.224px;line-height:1.25;font-family:Heavitas;-inkscape-font-specification:Heavitas;display:inline;fill:none;stroke:#fe0000;stroke-width:0.264583;stroke-opacity:1"
       d="m 23.305818,48.50017 c -1.82149,0 -3.36963,0.6375 -4.64467,1.91254 -1.27504,1.27505 -1.91255,2.82319 -1.91255,4.64468 v 186.88522 c 0,1.82149 0.63751,3.36963 1.91255,4.64468 1.27504,1.27504 2.82318,1.91254 4.64467,1.91254 h 40.7107 c 1.82149,0 3.36963,-0.6375 4.64468,-1.91254 1.27504,-1.27505 1.91254,-2.82319 1.91254,-4.64468 V 197.6802 c 0,-1.8215 0.6375,-3.36964 1.91254,-4.64468 1.27504,-1.27504 2.82319,-1.91255 4.64468,-1.91255 h 6.011 c 1.8215,0 3.734,0.54629 5.73764,1.63918 2.00364,0.91075 3.55178,2.09505 4.64468,3.55224 5.64662,8.01456 11.293422,15.93771 16.940052,23.77012 5.82877,7.83242 11.6575,15.57416 17.48627,23.22443 1.0929,1.45719 2.64156,2.73219 4.64519,3.82509 2.18579,0.91074 4.189,1.3658 6.01049,1.3658 h 50.81964 c 1.82149,0 3.00579,-0.81942 3.55223,-2.45876 0.54646,-1.82149 0.27332,-3.46086 -0.81958,-4.91805 -6.01092,-8.01456 -12.84151,-16.84887 -20.49178,-26.50277 -7.65026,-9.65391 -14.93643,-19.0345 -21.85809,-28.14195 -1.0929,-1.4572 -1.45726,-2.91463 -1.09296,-4.37183 0.54645,-1.63934 1.54831,-3.00556 3.0055,-4.09846 4.37158,-2.73224 8.28781,-6.10167 11.74864,-10.10894 3.46083,-4.18944 6.46642,-8.83438 9.0165,-13.93455 2.55009,-5.10018 4.46259,-10.47383 5.73764,-16.12045 1.45719,-5.82878 2.18591,-11.6575 2.18591,-17.48628 0,-10.56465 -1.8218,-20.21838 -5.46478,-28.96154 -3.46084,-8.74315 -8.37892,-16.30246 -14.75414,-22.67768 -6.19307,-6.37522 -13.75238,-11.2933 -22.67769,-14.75414 -8.9253,-3.64298 -18.67025,-5.46426 -29.2349,-5.46426 z m 82.780482,4.23385 c 2.25833,0.009 4.51621,0.0455 6.7722,0.16123 5.99211,0.26642 12.03077,1.3422 17.75654,3.1166 5.68948,1.76009 11.27335,4.19779 16.2605,7.3763 5.3864,3.42397 10.23632,7.74359 14.24409,12.65245 6.54892,8.06986 11.06805,17.78696 13.32219,27.91406 1.62968,7.49922 2.13092,15.25723 1.38441,22.88904 -0.80086,7.73521 -2.73667,15.35935 -5.86734,22.51748 -3.40745,7.4768 -7.91272,14.66136 -14.0777,20.22512 -2.46992,2.51652 -5.75682,4.01127 -8.27339,6.46834 -3.20589,2.84675 -4.28585,8.01854 -1.99058,11.73779 13.47314,18.16308 27.88354,35.61256 41.49566,53.67114 0.59327,0.93274 1.49852,1.69541 1.87792,2.7466 -15.82591,0.0763 -31.6522,0.0528 -47.47824,0.0548 -2.73523,0.1234 -5.66828,0.0176 -8.0331,-1.53582 -1.50611,-1.07235 -2.57646,-2.63771 -3.73414,-4.05764 -10.77451,-14.06355 -21.221,-28.37558 -31.402732,-42.87283 -1.93939,-3.22616 -4.93666,-5.76333 -8.39484,-7.23315 -3.56292,-1.89138 -7.71327,-1.72857 -11.62461,-1.66967 -5.56153,-0.69272 -11.264,3.67415 -11.88713,9.2754 -0.1493,14.85331 -0.087,29.70969 -0.0977,44.56421 0.29965,1.34794 -0.26866,3.10094 -1.74201,3.4556 -13.42149,0.1066 -26.84349,0.0752 -40.26525,0.076 -1.3873,0.32338 -3.16256,-0.46738 -3.32486,-2.00763 -0.008,-61.99721 -0.0153,-123.99454 -0.0232,-185.99174 -0.33024,-1.40011 0.35103,-3.23389 1.90634,-3.50056 25.47393,-0.0378 50.94776,-0.0282 76.42169,-0.0274 2.257892,0.005 4.516972,-0.0145 6.775302,-0.006 z" />
  </g>
</svg>
