<?xml version="1.0" encoding="UTF-8" standalone="no"?>
<!-- Created with Inkscape (http://www.inkscape.org/) -->

<svg
   width="210mm"
   height="297mm"
   viewBox="0 0 210 297"
   version="1.1"
   id="svg982"
   inkscape:version="1.2.1 (9c6d41e410, 2022-07-14)"
   sodipodi:docname="L5L6.svg"
   xmlns:inkscape="http://www.inkscape.org/namespaces/inkscape"
   xmlns:sodipodi="http://sodipodi.sourceforge.net/DTD/sodipodi-0.dtd"
   xmlns="http://www.w3.org/2000/svg"
   xmlns:svg="http://www.w3.org/2000/svg">
  <sodipodi:namedview
     id="namedview984"
     pagecolor="#ffffff"
     bordercolor="#000000"
     borderopacity="0.25"
     inkscape:showpageshadow="2"
     inkscape:pageopacity="0.0"
     inkscape:pagecheckerboard="0"
     inkscape:deskcolor="#d1d1d1"
     inkscape:document-units="mm"
     showgrid="false"
     inkscape:zoom="0.2102413"
     inkscape:cx="-16.647538"
     inkscape:cy="563.63806"
     inkscape:window-width="1920"
     inkscape:window-height="1111"
     inkscape:window-x="-9"
     inkscape:window-y="-9"
     inkscape:window-maximized="1"
     inkscape:current-layer="layer1" />
  <defs
     id="defs979" />
  <g
     inkscape:label="Layer 1"
     inkscape:groupmode="layer"
     id="layer1">
    <path
       id="path447-7-6-3"
       style="font-weight:bold;font-size:273.224px;line-height:1.25;font-family:Heavitas;-inkscape-font-specification:Heavitas;display:inline;fill:none;stroke:#fe0000;stroke-width:0.264583;stroke-opacity:1"
       d="m 23.305824,48.50033 c -1.82149,0 -3.36964,0.63751 -4.64468,1.91255 -1.27504,1.27504 -1.91255,2.82319 -1.91255,4.64468 v 186.88523 c 0,1.82149 0.63751,3.36963 1.91255,4.64468 1.27504,1.27504 2.82319,1.91254 4.64468,1.91254 h 40.71069 c 1.82149,0 3.36963,-0.6375 4.64468,-1.91254 1.27504,-1.27505 1.91254,-2.82319 1.91254,-4.64468 v -44.26241 c 0,-1.8215 0.63751,-3.36964 1.91255,-4.64468 1.27504,-1.27504 2.82319,-1.91255 4.64468,-1.91255 h 6.011 c 1.8215,0 3.73399,0.54629 5.73763,1.63918 2.00364,0.91075 3.55178,2.09505 4.64468,3.55224 5.64661,8.01455 11.293426,15.93772 16.940046,23.77012 5.82877,7.83242 11.65751,15.57416 17.48627,23.22443 1.0929,1.45718 2.64157,2.73219 4.6452,3.82508 2.18578,0.91074 4.18899,1.36581 6.01048,1.36581 h 50.81964 c 1.82149,0 3.0058,-0.81942 3.55224,-2.45876 0.54646,-1.82149 0.27331,-3.46086 -0.81959,-4.91805 -6.01091,-8.01455 -12.84151,-16.84888 -20.49177,-26.50277 -7.65026,-9.6539 -14.93645,-19.03451 -21.8581,-28.14195 -1.0929,-1.4572 -1.45726,-2.91463 -1.09296,-4.37183 0.54645,-1.63934 1.54832,-3.00556 3.0055,-4.09846 4.37158,-2.73224 8.28781,-6.10168 11.74864,-10.10894 3.46083,-4.18944 6.46643,-8.83439 9.01651,-13.93455 2.55008,-5.10018 4.46258,-10.47385 5.73763,-16.12046 1.45719,-5.82878 2.18591,-11.6575 2.18591,-17.48628 0,-10.56464 -1.8218,-20.21839 -5.46478,-28.96154 C 171.4843,82.65328 166.56622,75.09395 160.191,68.71874 153.99794,62.34352 146.43862,57.42543 137.51332,53.9646 128.58803,50.32162 118.84305,48.50033 108.27841,48.50033 h -5.50354 v 4.23644 c 1.10389,-0.003 2.20767,-0.007 3.31142,-0.003 2.25833,0.009 4.51621,0.0455 6.7722,0.16123 5.9921,0.26642 12.03078,1.3422 17.75654,3.1166 5.68947,1.76009 11.27336,4.1978 16.26051,7.3763 5.38639,3.42397 10.23632,7.74359 14.24409,12.65245 6.54891,8.06985 11.06804,17.78697 13.32218,27.91406 1.62968,7.49921 2.13092,15.25724 1.38441,22.88904 -0.80086,7.73521 -2.73667,15.35937 -5.86734,22.51749 -3.40745,7.47679 -7.91272,14.66137 -14.07769,20.22512 -2.46992,2.51652 -5.75683,4.01128 -8.2734,6.46834 -3.20589,2.84675 -4.28584,8.01854 -1.99058,11.73779 13.47313,18.16306 27.88356,35.61258 41.49566,53.67114 0.59327,0.93274 1.49852,1.69541 1.87792,2.7466 -15.82589,0.0763 -31.65221,0.0528 -47.47823,0.0548 -2.73523,0.1234 -5.66829,0.0176 -8.03311,-1.53582 -1.5061,-1.07235 -2.57646,-2.63771 -3.73413,-4.05764 -10.7745,-14.06353 -21.22102,-28.3756 -31.402736,-42.87283 -1.93939,-3.22616 -4.93666,-5.76333 -8.39484,-7.23315 -3.56291,-1.89138 -7.71327,-1.72857 -11.62461,-1.66967 -5.56152,-0.69272 -11.264,3.67416 -11.88713,9.2754 -0.1493,14.8533 -0.087,29.7097 -0.0977,44.56421 0.29965,1.34794 -0.26866,3.10094 -1.74201,3.4556 -13.42148,0.1066 -26.8435,0.0752 -40.26524,0.076 -1.3873,0.32338 -3.16256,-0.46738 -3.32486,-2.00763 -0.008,-61.99715 -0.0154,-123.99461 -0.0233,-185.99175 -0.33024,-1.4001 0.35104,-3.23389 1.90635,-3.50056 13.29506,-0.0198 26.59038,-0.0265 39.88542,-0.0284 v -4.2385 z" />
  </g>
</svg>
