<?xml version="1.0" encoding="UTF-8" standalone="no"?>
<!-- Created with Inkscape (http://www.inkscape.org/) -->

<svg
   width="600mm"
   height="300mm"
   viewBox="0 0 600 300"
   version="1.1"
   id="svg5"
   inkscape:version="1.2.1 (9c6d41e410, 2022-07-14)"
   sodipodi:docname="STARS.svg"
   xmlns:inkscape="http://www.inkscape.org/namespaces/inkscape"
   xmlns:sodipodi="http://sodipodi.sourceforge.net/DTD/sodipodi-0.dtd"
   xmlns="http://www.w3.org/2000/svg"
   xmlns:svg="http://www.w3.org/2000/svg">
  <sodipodi:namedview
     id="namedview7"
     pagecolor="#ffffff"
     bordercolor="#eeeeee"
     borderopacity="1"
     inkscape:showpageshadow="0"
     inkscape:pageopacity="0"
     inkscape:pagecheckerboard="0"
     inkscape:deskcolor="#505050"
     inkscape:document-units="mm"
     showgrid="false"
     inkscape:zoom="0.32220826"
     inkscape:cx="845.72629"
     inkscape:cy="533.81623"
     inkscape:window-width="1858"
     inkscape:window-height="1177"
     inkscape:window-x="54"
     inkscape:window-y="-8"
     inkscape:window-maximized="1"
     inkscape:current-layer="layer1" />
  <defs
     id="defs2" />
  <g
     inkscape:label="Layer 1"
     inkscape:groupmode="layer"
     id="layer1">
    <path
       sodipodi:type="star"
       style="fill:#000000;stroke:#000000;stroke-width:0.955919;stroke-linejoin:round"
       id="path238"
       inkscape:flatsided="false"
       sodipodi:sides="5"
       sodipodi:cx="86.516129"
       sodipodi:cy="74.322578"
       sodipodi:r1="52.8419"
       sodipodi:r2="20.661182"
       sodipodi:arg1="-1.5707963"
       sodipodi:arg2="-0.9424778"
       inkscape:rounded="0"
       inkscape:randomized="0"
       d="m 86.51613,21.480679 12.144337,36.126652 38.111293,0.386204 -30.60568,22.7137 11.40974,36.365335 L 86.516129,94.983761 55.456438,117.07257 66.866176,80.707235 36.260496,57.993532 74.37179,57.607331 Z"
       inkscape:transform-center-y="-5.2786404"
       transform="matrix(1.0461138,0,0,1.0461138,-35.930173,-18.990555)" />
    <path
       sodipodi:type="star"
       style="fill:#000000;stroke:#000000;stroke-width:0.955919;stroke-linejoin:round"
       id="path238-4"
       inkscape:flatsided="false"
       sodipodi:sides="5"
       sodipodi:cx="86.516129"
       sodipodi:cy="74.322578"
       sodipodi:r1="52.8419"
       sodipodi:r2="26.473791"
       sodipodi:arg1="-1.5707963"
       sodipodi:arg2="-0.9424778"
       inkscape:rounded="0"
       inkscape:randomized="0"
       d="m 86.51613,21.480679 15.5609,31.424152 34.69473,5.088704 -25.07756,24.509895 5.88162,34.56914 -31.059691,-16.2762 -31.059691,16.2762 5.881619,-34.56914 -25.077561,-24.509898 34.694728,-5.0887 z"
       inkscape:transform-center-x="1.2194689e-06"
       inkscape:transform-center-y="-5.2786404"
       transform="matrix(1.0461138,0,0,1.0461138,44.855982,1.5639857)" />
    <path
       sodipodi:type="star"
       style="fill:#000000;stroke:#000000;stroke-width:0.955919;stroke-linejoin:round"
       id="path392"
       inkscape:flatsided="false"
       sodipodi:sides="5"
       sodipodi:cx="86.516129"
       sodipodi:cy="74.322578"
       sodipodi:r1="52.8419"
       sodipodi:r2="20.661182"
       sodipodi:arg1="-1.5707963"
       sodipodi:arg2="-0.9424778"
       inkscape:rounded="0"
       inkscape:randomized="0"
       d="m 86.51613,21.480679 12.144337,36.126652 38.111293,0.386204 -30.60568,22.7137 11.40974,36.365335 L 86.516129,94.983761 55.456438,117.07257 66.866176,80.707235 36.260496,57.993532 74.37179,57.607331 Z"
       inkscape:transform-center-y="-5.2786404"
       transform="matrix(1.0461138,0,0,1.0461138,125.64214,-18.990555)" />
    <path
       sodipodi:type="star"
       style="fill:#000000;stroke:#000000;stroke-width:0.955919;stroke-linejoin:round"
       id="path394"
       inkscape:flatsided="false"
       sodipodi:sides="5"
       sodipodi:cx="86.516129"
       sodipodi:cy="74.322578"
       sodipodi:r1="52.8419"
       sodipodi:r2="26.473791"
       sodipodi:arg1="-1.5707963"
       sodipodi:arg2="-0.9424778"
       inkscape:rounded="0"
       inkscape:randomized="0"
       d="m 86.51613,21.480679 15.5609,31.424152 34.69473,5.088704 -25.07756,24.509895 5.88162,34.56914 -31.059691,-16.2762 -31.059691,16.2762 5.881619,-34.56914 -25.077561,-24.509898 34.694728,-5.0887 z"
       inkscape:transform-center-x="1.2194689e-06"
       inkscape:transform-center-y="-5.2786404"
       transform="matrix(1.0461138,0,0,1.0461138,206.42829,2.0931524)" />
    <path
       sodipodi:type="star"
       style="fill:#000000;stroke:#000000;stroke-width:0.955919;stroke-linejoin:round"
       id="path396"
       inkscape:flatsided="false"
       sodipodi:sides="5"
       sodipodi:cx="86.516129"
       sodipodi:cy="74.322578"
       sodipodi:r1="52.8419"
       sodipodi:r2="20.661182"
       sodipodi:arg1="-1.5707963"
       sodipodi:arg2="-0.9424778"
       inkscape:rounded="0"
       inkscape:randomized="0"
       d="m 86.51613,21.480679 12.144337,36.126652 38.111293,0.386204 -30.60568,22.7137 11.40974,36.365335 L 86.516129,94.983761 55.456438,117.07257 66.866176,80.707235 36.260496,57.993532 74.37179,57.607331 Z"
       inkscape:transform-center-y="-5.2786404"
       transform="matrix(1.0461138,0,0,1.0461138,287.21445,-18.990555)" />
    <path
       sodipodi:type="star"
       style="fill:#000000;stroke:#000000;stroke-width:0.955919;stroke-linejoin:round"
       id="path398"
       inkscape:flatsided="false"
       sodipodi:sides="5"
       sodipodi:cx="86.516129"
       sodipodi:cy="74.322578"
       sodipodi:r1="52.8419"
       sodipodi:r2="26.473791"
       sodipodi:arg1="-1.5707963"
       sodipodi:arg2="-0.9424778"
       inkscape:rounded="0"
       inkscape:randomized="0"
       d="m 86.51613,21.480679 15.5609,31.424152 34.69473,5.088704 -25.07756,24.509895 5.88162,34.56914 -31.059691,-16.2762 -31.059691,16.2762 5.881619,-34.56914 -25.077561,-24.509898 34.694728,-5.0887 z"
       inkscape:transform-center-x="1.2194689e-06"
       inkscape:transform-center-y="-5.2786404"
       transform="matrix(1.0461138,0,0,1.0461138,368.0006,5.7973193)" />
    <path
       sodipodi:type="star"
       style="fill:#000000;stroke:#000000;stroke-width:0.955919;stroke-linejoin:round"
       id="path400"
       inkscape:flatsided="false"
       sodipodi:sides="5"
       sodipodi:cx="86.516129"
       sodipodi:cy="74.322578"
       sodipodi:r1="52.8419"
       sodipodi:r2="20.661182"
       sodipodi:arg1="-1.5707963"
       sodipodi:arg2="-0.9424778"
       inkscape:rounded="0"
       inkscape:randomized="0"
       d="m 86.51613,21.480679 12.144337,36.126652 38.111293,0.386204 -30.60568,22.7137 11.40974,36.365335 L 86.516129,94.983761 55.456438,117.07257 66.866176,80.707235 36.260496,57.993532 74.37179,57.607331 Z"
       inkscape:transform-center-y="-5.2786404"
       transform="matrix(1.0461138,0,0,1.0461138,448.78676,-18.990555)" />
    <path
       sodipodi:type="star"
       style="fill:#000000;stroke:#000000;stroke-width:0.955919;stroke-linejoin:round"
       id="path402"
       inkscape:flatsided="false"
       sodipodi:sides="5"
       sodipodi:cx="86.516129"
       sodipodi:cy="74.322578"
       sodipodi:r1="52.8419"
       sodipodi:r2="20.661182"
       sodipodi:arg1="-1.5707963"
       sodipodi:arg2="-0.9424778"
       inkscape:rounded="0"
       inkscape:randomized="0"
       d="m 86.51613,21.480679 12.144337,36.126652 38.111293,0.386204 -30.60568,22.7137 11.40974,36.365335 L 86.516129,94.983761 55.456438,117.07257 66.866176,80.707235 36.260496,57.993532 74.37179,57.607331 Z"
       inkscape:transform-center-y="-5.2786404"
       transform="matrix(1.0461138,0,0,1.0461138,-35.930173,67.26361)" />
    <path
       sodipodi:type="star"
       style="fill:#000000;stroke:#000000;stroke-width:0.955919;stroke-linejoin:round"
       id="path404"
       inkscape:flatsided="false"
       sodipodi:sides="5"
       sodipodi:cx="86.516129"
       sodipodi:cy="74.322578"
       sodipodi:r1="52.8419"
       sodipodi:r2="26.473791"
       sodipodi:arg1="-1.5707963"
       sodipodi:arg2="-0.9424778"
       inkscape:rounded="0"
       inkscape:randomized="0"
       d="m 86.51613,21.480679 15.5609,31.424152 34.69473,5.088704 -25.07756,24.509895 5.88162,34.56914 -31.059691,-16.2762 -31.059691,16.2762 5.881619,-34.56914 -25.077561,-24.509898 34.694728,-5.0887 z"
       inkscape:transform-center-x="1.2194689e-06"
       inkscape:transform-center-y="-5.2786404"
       transform="matrix(1.0461138,0,0,1.0461138,44.855982,88.347312)" />
    <path
       sodipodi:type="star"
       style="fill:#000000;stroke:#000000;stroke-width:0.955919;stroke-linejoin:round"
       id="path406"
       inkscape:flatsided="false"
       sodipodi:sides="5"
       sodipodi:cx="86.516129"
       sodipodi:cy="74.322578"
       sodipodi:r1="52.8419"
       sodipodi:r2="20.661182"
       sodipodi:arg1="-1.5707963"
       sodipodi:arg2="-0.9424778"
       inkscape:rounded="0"
       inkscape:randomized="0"
       d="m 86.51613,21.480679 12.144337,36.126652 38.111293,0.386204 -30.60568,22.7137 11.40974,36.365335 L 86.516129,94.983761 55.456438,117.07257 66.866176,80.707235 36.260496,57.993532 74.37179,57.607331 Z"
       inkscape:transform-center-y="-5.2786404"
       transform="matrix(1.0461138,0,0,1.0461138,125.64214,64.617777)" />
    <path
       sodipodi:type="star"
       style="fill:#000000;stroke:#000000;stroke-width:0.955919;stroke-linejoin:round"
       id="path408"
       inkscape:flatsided="false"
       sodipodi:sides="5"
       sodipodi:cx="86.516129"
       sodipodi:cy="74.322578"
       sodipodi:r1="52.8419"
       sodipodi:r2="26.473791"
       sodipodi:arg1="-1.5707963"
       sodipodi:arg2="-0.9424778"
       inkscape:rounded="0"
       inkscape:randomized="0"
       d="m 86.51613,21.480679 15.5609,31.424152 34.69473,5.088704 -25.07756,24.509895 5.88162,34.56914 -31.059691,-16.2762 -31.059691,16.2762 5.881619,-34.56914 -25.077561,-24.509898 34.694728,-5.0887 z"
       inkscape:transform-center-x="1.2194689e-06"
       inkscape:transform-center-y="-5.2786404"
       transform="matrix(1.0461138,0,0,1.0461138,206.42829,95.755657)" />
    <path
       sodipodi:type="star"
       style="fill:#000000;stroke:#000000;stroke-width:0.955919;stroke-linejoin:round"
       id="path410"
       inkscape:flatsided="false"
       sodipodi:sides="5"
       sodipodi:cx="86.516129"
       sodipodi:cy="74.322578"
       sodipodi:r1="52.8419"
       sodipodi:r2="20.661182"
       sodipodi:arg1="-1.5707963"
       sodipodi:arg2="-0.9424778"
       inkscape:rounded="0"
       inkscape:randomized="0"
       d="m 86.51613,21.480679 12.144337,36.126652 38.111293,0.386204 -30.60568,22.7137 11.40974,36.365335 L 86.516129,94.983761 55.456438,117.07257 66.866176,80.707235 36.260496,57.993532 74.37179,57.607331 Z"
       inkscape:transform-center-y="-5.2786404"
       transform="matrix(1.0461138,0,0,1.0461138,287.21445,70.967781)" />
    <path
       sodipodi:type="star"
       style="fill:#000000;stroke:#000000;stroke-width:0.955919;stroke-linejoin:round"
       id="path412"
       inkscape:flatsided="false"
       sodipodi:sides="5"
       sodipodi:cx="86.516129"
       sodipodi:cy="74.322578"
       sodipodi:r1="52.8419"
       sodipodi:r2="26.473791"
       sodipodi:arg1="-1.5707963"
       sodipodi:arg2="-0.9424778"
       inkscape:rounded="0"
       inkscape:randomized="0"
       d="m 86.51613,21.480679 15.5609,31.424152 34.69473,5.088704 -25.07756,24.509895 5.88162,34.56914 -31.059691,-16.2762 -31.059691,16.2762 5.881619,-34.56914 -25.077561,-24.509898 34.694728,-5.0887 z"
       inkscape:transform-center-x="1.2194689e-06"
       inkscape:transform-center-y="-5.2786404"
       transform="matrix(1.0461138,0,0,1.0461138,368.0006,95.755657)" />
    <path
       sodipodi:type="star"
       style="fill:#000000;stroke:#000000;stroke-width:0.955919;stroke-linejoin:round"
       id="path414"
       inkscape:flatsided="false"
       sodipodi:sides="5"
       sodipodi:cx="86.516129"
       sodipodi:cy="74.322578"
       sodipodi:r1="52.8419"
       sodipodi:r2="20.661182"
       sodipodi:arg1="-1.5707963"
       sodipodi:arg2="-0.9424778"
       inkscape:rounded="0"
       inkscape:randomized="0"
       d="m 86.51613,21.480679 12.144337,36.126652 38.111293,0.386204 -30.60568,22.7137 11.40974,36.365335 L 86.516129,94.983761 55.456438,117.07257 66.866176,80.707235 36.260496,57.993532 74.37179,57.607331 Z"
       inkscape:transform-center-y="-5.2786404"
       transform="matrix(1.0461138,0,0,1.0461138,448.78676,70.967781)" />
    <path
       sodipodi:type="star"
       style="fill:#000000;stroke:#000000;stroke-width:0.955919;stroke-linejoin:round"
       id="path416"
       inkscape:flatsided="false"
       sodipodi:sides="5"
       sodipodi:cx="86.516129"
       sodipodi:cy="74.322578"
       sodipodi:r1="52.8419"
       sodipodi:r2="20.661182"
       sodipodi:arg1="-1.5707963"
       sodipodi:arg2="-0.9424778"
       inkscape:rounded="0"
       inkscape:randomized="0"
       d="m 86.51613,21.480679 12.144337,36.126652 38.111293,0.386204 -30.60568,22.7137 11.40974,36.365335 L 86.516129,94.983761 55.456438,117.07257 66.866176,80.707235 36.260496,57.993532 74.37179,57.607331 Z"
       inkscape:transform-center-y="-5.2786404"
       transform="matrix(1.0461138,0,0,1.0461138,-35.930173,154.04694)" />
    <path
       sodipodi:type="star"
       style="fill:#000000;stroke:#000000;stroke-width:0.955919;stroke-linejoin:round"
       id="path418"
       inkscape:flatsided="false"
       sodipodi:sides="5"
       sodipodi:cx="86.516129"
       sodipodi:cy="74.322578"
       sodipodi:r1="52.8419"
       sodipodi:r2="26.473791"
       sodipodi:arg1="-1.5707963"
       sodipodi:arg2="-0.9424778"
       inkscape:rounded="0"
       inkscape:randomized="0"
       d="m 86.51613,21.480679 15.5609,31.424152 34.69473,5.088704 -25.07756,24.509895 5.88162,34.56914 -31.059691,-16.2762 -31.059691,16.2762 5.881619,-34.56914 -25.077561,-24.509898 34.694728,-5.0887 z"
       inkscape:transform-center-x="1.2194689e-06"
       inkscape:transform-center-y="-5.2786404"
       transform="matrix(1.0461138,0,0,1.0461138,44.855982,174.60147)" />
    <path
       sodipodi:type="star"
       style="fill:#000000;stroke:#000000;stroke-width:0.955919;stroke-linejoin:round"
       id="path420"
       inkscape:flatsided="false"
       sodipodi:sides="5"
       sodipodi:cx="86.516129"
       sodipodi:cy="74.322578"
       sodipodi:r1="52.8419"
       sodipodi:r2="20.661182"
       sodipodi:arg1="-1.5707963"
       sodipodi:arg2="-0.9424778"
       inkscape:rounded="0"
       inkscape:randomized="0"
       d="m 86.51613,21.480679 12.144337,36.126652 38.111293,0.386204 -30.60568,22.7137 11.40974,36.365335 L 86.516129,94.983761 55.456438,117.07257 66.866176,80.707235 36.260496,57.993532 74.37179,57.607331 Z"
       inkscape:transform-center-y="-5.2786404"
       transform="matrix(1.0461138,0,0,1.0461138,125.64214,149.81358)" />
    <path
       sodipodi:type="star"
       style="fill:#000000;stroke:#000000;stroke-width:0.955919;stroke-linejoin:round"
       id="path422"
       inkscape:flatsided="false"
       sodipodi:sides="5"
       sodipodi:cx="86.516129"
       sodipodi:cy="74.322578"
       sodipodi:r1="52.8419"
       sodipodi:r2="26.473791"
       sodipodi:arg1="-1.5707963"
       sodipodi:arg2="-0.9424778"
       inkscape:rounded="0"
       inkscape:randomized="0"
       d="m 86.51613,21.480679 15.5609,31.424152 34.69473,5.088704 -25.07756,24.509895 5.88162,34.56914 -31.059691,-16.2762 -31.059691,16.2762 5.881619,-34.56914 -25.077561,-24.509898 34.694728,-5.0887 z"
       inkscape:transform-center-x="1.2194689e-06"
       inkscape:transform-center-y="-5.2786404"
       transform="matrix(1.0461138,0,0,1.0461138,206.42829,185.71404)" />
    <path
       sodipodi:type="star"
       style="fill:#000000;stroke:#000000;stroke-width:0.955919;stroke-linejoin:round"
       id="path424"
       inkscape:flatsided="false"
       sodipodi:sides="5"
       sodipodi:cx="86.516129"
       sodipodi:cy="74.322578"
       sodipodi:r1="52.8419"
       sodipodi:r2="20.661182"
       sodipodi:arg1="-1.5707963"
       sodipodi:arg2="-0.9424778"
       inkscape:rounded="0"
       inkscape:randomized="0"
       d="m 86.51613,21.480679 12.144337,36.126652 38.111293,0.386204 -30.60568,22.7137 11.40974,36.365335 L 86.516129,94.983761 55.456438,117.07257 66.866176,80.707235 36.260496,57.993532 74.37179,57.607331 Z"
       inkscape:transform-center-y="-5.2786404"
       transform="matrix(1.0461138,0,0,1.0461138,287.21445,160.92615)" />
    <path
       sodipodi:type="star"
       style="fill:#000000;stroke:#000000;stroke-width:0.955919;stroke-linejoin:round"
       id="path426"
       inkscape:flatsided="false"
       sodipodi:sides="5"
       sodipodi:cx="86.516129"
       sodipodi:cy="74.322578"
       sodipodi:r1="52.8419"
       sodipodi:r2="26.473791"
       sodipodi:arg1="-1.5707963"
       sodipodi:arg2="-0.9424778"
       inkscape:rounded="0"
       inkscape:randomized="0"
       d="m 86.51613,21.480679 15.5609,31.424152 34.69473,5.088704 -25.07756,24.509895 5.88162,34.56914 -31.059691,-16.2762 -31.059691,16.2762 5.881619,-34.56914 -25.077561,-24.509898 34.694728,-5.0887 z"
       inkscape:transform-center-x="1.2194689e-06"
       inkscape:transform-center-y="-5.2786404"
       transform="matrix(1.0461138,0,0,1.0461138,368.0006,185.71404)" />
    <path
       sodipodi:type="star"
       style="fill:#000000;stroke:#000000;stroke-width:0.955919;stroke-linejoin:round"
       id="path428"
       inkscape:flatsided="false"
       sodipodi:sides="5"
       sodipodi:cx="86.516129"
       sodipodi:cy="74.322578"
       sodipodi:r1="52.8419"
       sodipodi:r2="20.661182"
       sodipodi:arg1="-1.5707963"
       sodipodi:arg2="-0.9424778"
       inkscape:rounded="0"
       inkscape:randomized="0"
       d="m 86.51613,21.480679 12.144337,36.126652 38.111293,0.386204 -30.60568,22.7137 11.40974,36.365335 L 86.516129,94.983761 55.456438,117.07257 66.866176,80.707235 36.260496,57.993532 74.37179,57.607331 Z"
       inkscape:transform-center-y="-5.2786404"
       transform="matrix(1.0461138,0,0,1.0461138,448.78676,160.92615)" />
  </g>
</svg>
