<?xml version="1.0" encoding="UTF-8" standalone="no"?>
<!-- Created with Inkscape (http://www.inkscape.org/) -->

<svg
   width="600mm"
   height="300mm"
   viewBox="0 0 600 300"
   version="1.1"
   id="svg316"
   inkscape:version="1.2 (dc2aedaf03, 2022-05-15)"
   sodipodi:docname="Parts b.svg"
   xmlns:inkscape="http://www.inkscape.org/namespaces/inkscape"
   xmlns:sodipodi="http://sodipodi.sourceforge.net/DTD/sodipodi-0.dtd"
   xmlns="http://www.w3.org/2000/svg"
   xmlns:svg="http://www.w3.org/2000/svg">
  <sodipodi:namedview
     id="namedview318"
     pagecolor="#ffffff"
     bordercolor="#000000"
     borderopacity="0.25"
     inkscape:showpageshadow="2"
     inkscape:pageopacity="0.0"
     inkscape:pagecheckerboard="0"
     inkscape:deskcolor="#d1d1d1"
     inkscape:document-units="mm"
     showgrid="false"
     inkscape:zoom="0.4204826"
     inkscape:cx="1079.7117"
     inkscape:cy="430.45776"
     inkscape:window-width="1920"
     inkscape:window-height="1017"
     inkscape:window-x="-8"
     inkscape:window-y="-8"
     inkscape:window-maximized="1"
     inkscape:current-layer="layer1" />
  <defs
     id="defs313" />
  <g
     inkscape:label="Layer 1"
     inkscape:groupmode="layer"
     id="layer1">
    <path
       id="path447-3-9"
       style="font-weight:bold;font-size:273.224px;line-height:1.25;font-family:Heavitas;-inkscape-font-specification:Heavitas;display:inline;fill:none;stroke:#fe0000;stroke-width:0.1;stroke-dasharray:none;stroke-opacity:1"
       d="m 381.42505,6.9702366 c -1.82149,0 -3.36963,0.637516 -4.64468,1.912545 -1.27496,1.2750354 -1.91254,2.8232014 -1.91254,4.6446774 V 200.4127 c 0,1.82149 0.63758,3.37023 1.91254,4.64519 1.27505,1.27505 2.82319,1.91255 4.64468,1.91255 h 40.71018 c 1.82149,0 3.36963,-0.6375 4.64468,-1.91255 1.27504,-1.27496 1.91306,-2.8237 1.91306,-4.64519 v -44.26242 c 0,-1.82141 0.6375,-3.36963 1.91254,-4.64467 1.27504,-1.27504 2.82319,-1.91255 4.64468,-1.91255 h 6.011 c 1.82149,0 3.734,0.5468 5.73764,1.6397 2.00364,0.91066 3.55178,2.09452 4.64468,3.55172 5.64654,8.01448 11.29342,15.93831 16.94005,23.77063 5.82868,7.83234 11.65749,15.57373 17.48627,23.22391 1.0929,1.4572 2.64104,2.73219 4.64468,3.82509 2.18571,0.91075 4.18951,1.36633 6.011,1.36633 h 50.81963 c 1.8215,0 3.00528,-0.81994 3.55173,-2.45929 0.54645,-1.82149 0.27331,-3.46085 -0.81959,-4.91804 -6.01092,-8.01448 -12.84159,-16.84895 -20.49177,-26.50277 -7.65027,-9.65383 -14.93592,-19.0345 -21.85759,-28.14196 -1.09281,-1.45711 -1.45725,-2.91463 -1.09295,-4.37183 0.54644,-1.63934 1.54831,-3.00504 3.0055,-4.09794 4.37158,-2.73224 8.28781,-6.10227 11.74864,-10.10946 3.46075,-4.18944 6.46598,-8.83446 9.01598,-13.93455 2.55009,-5.10018 4.46319,-10.47341 5.73815,-16.119946 1.4572,-5.828735 2.1854,-11.657537 2.1854,-17.486272 0,-10.564568 -1.82136,-20.21897 -5.46426,-28.962056 -3.46084,-8.743085 -8.379,-16.302513 -14.75414,-22.677686 C 512.11717,20.813476 504.55778,15.895308 495.63255,12.434502 486.70733,8.7915506 476.96222,6.9702366 466.39764,6.9702366 Z m 10.79469,2.204517 h 70.00038 v 3.0003334 h -70.00038 z m 53.50423,5.2058834 c 7.37251,0.0029 14.74528,0.01433 22.11751,0.04961 8.39452,0.08336 16.78952,1.685471 24.65845,4.706173 7.93239,3.033388 15.27872,7.762252 21.1956,13.929899 9.71428,10.092892 15.45806,23.711341 16.97674,37.511405 0.51895,4.563384 0.55775,9.292827 0.15865,13.779521 -0.41058,4.502075 -1.23467,8.949063 -2.47323,13.248287 -2.81796,9.685348 -7.56331,18.968418 -14.6141,26.260928 -2.70767,3.18304 -6.49506,5.11296 -9.61027,7.83208 -4.69891,3.6881 -6.30349,10.96602 -3.14037,16.12926 12.93377,17.51774 26.7579,34.35635 39.92986,51.69555 -9.42973,0.0118 -18.8595,0.0233 -28.28923,0.0351 -4.69861,-0.0149 -9.39776,0.0121 -14.0963,0.004 -2.07682,0.0323 -4.44718,-0.0696 -5.96862,-1.69188 -11.2151,-14.25604 -21.84157,-28.96969 -32.33343,-43.77459 -2.47522,-4.04406 -5.85825,-7.70921 -10.24434,-9.67538 -4.09181,-2.22059 -8.88354,-2.37459 -13.42915,-2.23139 -7.09512,-0.77923 -14.26049,4.80714 -15.13241,11.9109 -0.17873,12.00529 -0.12961,24.01836 -0.14521,36.02674 0.0362,3.11276 -0.0711,6.22785 0.0331,9.33793 -6.33183,0.0496 -12.66371,0.0802 -18.99574,0.0811 -6.67231,0.0265 -13.34631,-0.0393 -20.0179,0.0434 -0.008,-58.67263 -0.0163,-117.346574 -0.0243,-176.019222 -0.0389,-3.049412 0.0736,-6.101895 -0.046,-9.148279 13.79092,-0.01955 27.58226,-0.03247 41.37319,-0.03927 7.37238,6.4e-4 14.745,-0.005 22.11751,-0.0021 z m -68.67333,9.453169 h 2.99982 v 69.999862 h -2.99982 z m 0,97.895314 h 2.99982 v 70.00039 h -2.99982 z m 134.60006,31.83631 24.79745,31.3867 -2.35438,1.85984 -24.79694,-31.38671 z m -88.10419,3.37912 h 2.99982 v 40.00013 h -2.99982 z m 37.67264,2.62723 23.77891,32.16444 -2.41226,1.78336 -23.77891,-32.16444 z m -79.83286,42.20828 h 40.00015 v 2.9998 h -40.00015 z m 118.00417,0 h 40.00014 v 2.9998 h -40.00014 z" />
    <path
       id="path447-3-9-5"
       style="font-weight:bold;font-size:273.224px;line-height:1.25;font-family:Heavitas;-inkscape-font-specification:Heavitas;display:inline;fill:none;stroke:#fe0000;stroke-width:0.1;stroke-dasharray:none;stroke-opacity:1"
       d="m 13.950465,6.9702371 c -1.82149,0 -3.36963,0.637516 -4.6446795,1.912545 -1.27496,1.2750349 -1.91254,2.8232019 -1.91254,4.6446779 V 200.4127 c 0,1.82149 0.63758,3.37023 1.91254,4.64519 1.2750495,1.27505 2.8231895,1.91255 4.6446795,1.91255 h 40.71018 c 1.82149,0 3.36963,-0.6375 4.64468,-1.91255 1.27504,-1.27496 1.91306,-2.8237 1.91306,-4.64519 v -44.26242 c 0,-1.82141 0.6375,-3.36963 1.91254,-4.64467 1.27504,-1.27504 2.82319,-1.91255 4.64468,-1.91255 h 6.011 c 1.82149,0 3.734,0.5468 5.73764,1.6397 2.00364,0.91066 3.55178,2.09452 4.64468,3.55172 5.64654,8.01448 11.29342,15.93831 16.940055,23.77063 5.82868,7.83234 11.65749,15.57373 17.48627,23.22391 1.0929,1.4572 2.64104,2.73219 4.64468,3.82509 2.18571,0.91075 4.18951,1.36633 6.011,1.36633 h 50.81963 c 1.8215,0 3.00528,-0.81994 3.55173,-2.45929 0.54645,-1.82149 0.27331,-3.46085 -0.81959,-4.91804 -6.01092,-8.01448 -12.84159,-16.84895 -20.49177,-26.50277 -7.65027,-9.65383 -14.93592,-19.0345 -21.85759,-28.14196 -1.09281,-1.45711 -1.45725,-2.91463 -1.09295,-4.37183 0.54644,-1.63934 1.54831,-3.00504 3.0055,-4.09794 4.37158,-2.73224 8.28781,-6.10227 11.74864,-10.10946 3.46075,-4.18944 6.46598,-8.83446 9.01598,-13.93455 2.55009,-5.10018 4.46319,-10.47341 5.73815,-16.119944 1.4572,-5.828736 2.1854,-11.657538 2.1854,-17.486273 0,-10.564568 -1.82136,-20.21897 -5.46426,-28.962056 -3.46084,-8.743085 -8.379,-16.302513 -14.75414,-22.677686 C 144.64259,20.813477 137.0832,15.895309 128.15797,12.434503 119.23275,8.7915511 109.48764,6.9702371 98.923055,6.9702371 Z m 10.79469,2.204517 h 70.00038 v 3.0003339 h -70.00038 z m 53.50423,5.2058839 c 7.37251,0.0029 14.74528,0.01433 22.117515,0.04961 8.39452,0.08336 16.78952,1.685471 24.65845,4.706173 7.93239,3.033388 15.27872,7.762252 21.1956,13.929899 9.71428,10.092892 15.45806,23.711341 16.97674,37.511405 0.51895,4.563384 0.55775,9.292827 0.15865,13.779521 -0.41058,4.502075 -1.23467,8.949063 -2.47323,13.24829 -2.81796,9.685344 -7.56331,18.968414 -14.6141,26.260924 -2.70767,3.18304 -6.49506,5.11296 -9.61027,7.83208 -4.69891,3.6881 -6.30349,10.96602 -3.14037,16.12926 12.93377,17.51774 26.7579,34.35635 39.92986,51.69555 -9.42973,0.0118 -18.8595,0.0233 -28.28923,0.0351 -4.69861,-0.0149 -9.39776,0.0121 -14.0963,0.004 -2.07682,0.0323 -4.44718,-0.0696 -5.96862,-1.69188 -11.2151,-14.25604 -21.84157,-28.96969 -32.333435,-43.77459 -2.47522,-4.04406 -5.85825,-7.70921 -10.24434,-9.67538 -4.09181,-2.22059 -8.88354,-2.37459 -13.42915,-2.23139 -7.09512,-0.77923 -14.26049,4.80714 -15.13241,11.9109 -0.17873,12.00529 -0.12961,24.01836 -0.14521,36.02674 0.0362,3.11276 -0.0711,6.22785 0.0331,9.33793 -6.33183,0.0496 -12.66371,0.0802 -18.99574,0.0811 -6.67231,0.0265 -13.34631,-0.0393 -20.0179,0.0434 -0.008,-58.67263 -0.0163,-117.346573 -0.0243,-176.019221 -0.0389,-3.049412 0.0736,-6.101895 -0.046,-9.148279 13.79092,-0.01955 27.58226,-0.03247 41.37319,-0.03927 7.37238,6.4e-4 14.745,-0.005 22.11751,-0.0021 z M 9.5760555,23.833807 H 12.575875 V 93.833669 H 9.5760555 Z m 0,97.895313 h 2.9998195 v 70.00039 H 9.5760555 Z m 134.6000645,31.83631 24.79745,31.3867 -2.35438,1.85984 -24.79694,-31.38671 z m -88.104195,3.37912 h 2.99982 v 40.00013 h -2.99982 z m 37.67264,2.62723 23.778915,32.16444 -2.41226,1.78336 -23.778915,-32.16444 z m -79.83286,42.20828 h 40.00015 v 2.9998 h -40.00015 z m 118.004175,0 h 40.00014 v 2.9998 h -40.00014 z" />
    <path
       id="path447-3-9-3"
       style="font-weight:bold;font-size:273.224px;line-height:1.25;font-family:Heavitas;-inkscape-font-specification:Heavitas;display:inline;fill:none;stroke:#fe0000;stroke-width:0.1;stroke-dasharray:none;stroke-opacity:1"
       d="m 197.68776,6.9702369 c -1.82149,0 -3.36963,0.637516 -4.64468,1.912545 -1.27496,1.2750351 -1.91254,2.8232021 -1.91254,4.6446781 V 200.4127 c 0,1.82149 0.63758,3.37023 1.91254,4.64519 1.27505,1.27505 2.82319,1.91255 4.64468,1.91255 h 40.71018 c 1.82149,0 3.36963,-0.6375 4.64468,-1.91255 1.27504,-1.27496 1.91306,-2.8237 1.91306,-4.64519 v -44.26242 c 0,-1.82141 0.6375,-3.36963 1.91254,-4.64467 1.27504,-1.27504 2.82319,-1.91255 4.64468,-1.91255 h 6.011 c 1.82149,0 3.734,0.5468 5.73764,1.6397 2.00364,0.91066 3.55178,2.09452 4.64468,3.55172 5.64654,8.01448 11.29342,15.93831 16.94005,23.77063 5.82868,7.83234 11.65749,15.57373 17.48627,23.22391 1.0929,1.4572 2.64104,2.73219 4.64468,3.82509 2.18571,0.91075 4.18951,1.36633 6.011,1.36633 h 50.81963 c 1.8215,0 3.00528,-0.81994 3.55173,-2.45929 0.54645,-1.82149 0.27331,-3.46085 -0.81959,-4.91804 -6.01092,-8.01448 -12.84159,-16.84895 -20.49177,-26.50277 -7.65027,-9.65383 -14.93592,-19.0345 -21.85759,-28.14196 -1.09281,-1.45711 -1.45725,-2.91463 -1.09295,-4.37183 0.54644,-1.63934 1.54831,-3.00504 3.0055,-4.09794 4.37158,-2.73224 8.28781,-6.10227 11.74864,-10.10946 3.46075,-4.18944 6.46598,-8.83446 9.01598,-13.93455 2.55009,-5.10018 4.46319,-10.47341 5.73815,-16.119943 1.4572,-5.82874 2.1854,-11.657539 2.1854,-17.486274 0,-10.564568 -1.82136,-20.21897 -5.46426,-28.962056 -3.46084,-8.743085 -8.379,-16.302513 -14.75414,-22.677686 C 328.37988,20.813477 320.82049,15.895309 311.89526,12.434503 302.97004,8.7915509 293.22493,6.9702369 282.66035,6.9702369 Z m 10.79469,2.204517 h 70.00038 v 3.0003341 h -70.00038 z m 53.50423,5.2058841 c 7.37251,0.0029 14.74528,0.01433 22.11751,0.04961 8.39452,0.08336 16.78952,1.685471 24.65845,4.706173 7.93239,3.033388 15.27872,7.762252 21.1956,13.929899 9.71428,10.092892 15.45806,23.711341 16.97674,37.511405 0.51895,4.563384 0.55775,9.292827 0.15865,13.779521 -0.41058,4.502071 -1.23467,8.949061 -2.47323,13.248291 -2.81796,9.685343 -7.56331,18.968413 -14.6141,26.260923 -2.70767,3.18304 -6.49506,5.11296 -9.61027,7.83208 -4.69891,3.6881 -6.30349,10.96602 -3.14037,16.12926 12.93377,17.51774 26.7579,34.35635 39.92986,51.69555 -9.42973,0.0118 -18.8595,0.0233 -28.28923,0.0351 -4.69861,-0.0149 -9.39776,0.0121 -14.0963,0.004 -2.07682,0.0323 -4.44718,-0.0696 -5.96862,-1.69188 -11.2151,-14.25604 -21.84157,-28.96969 -32.33343,-43.77459 -2.47522,-4.04406 -5.85825,-7.70921 -10.24434,-9.67538 -4.09181,-2.22059 -8.88354,-2.37459 -13.42915,-2.23139 -7.09512,-0.77923 -14.26049,4.80714 -15.13241,11.9109 -0.17873,12.00529 -0.12961,24.01836 -0.14521,36.02674 0.0362,3.11276 -0.0711,6.22785 0.0331,9.33793 -6.33183,0.0496 -12.66371,0.0802 -18.99574,0.0811 -6.67231,0.0265 -13.34631,-0.0393 -20.0179,0.0434 -0.008,-58.67263 -0.0163,-117.346573 -0.0243,-176.019221 -0.0389,-3.049412 0.0736,-6.101895 -0.046,-9.148279 13.79092,-0.01955 27.58226,-0.03247 41.37319,-0.03927 7.37238,6.4e-4 14.745,-0.005 22.11751,-0.0021 z m -68.67333,9.453169 h 2.99982 v 69.99986 h -2.99982 z m 0,97.895313 h 2.99982 v 70.00039 h -2.99982 z m 134.60006,31.83631 24.79745,31.3867 -2.35438,1.85984 -24.79694,-31.38671 z m -88.10419,3.37912 h 2.99982 v 40.00013 h -2.99982 z m 37.67264,2.62723 23.77891,32.16444 -2.41226,1.78336 -23.77891,-32.16444 z M 197.649,201.78006 h 40.00015 v 2.9998 H 197.649 Z m 118.00417,0 h 40.00014 v 2.9998 h -40.00014 z" />
  </g>
</svg>
