<?xml version="1.0" encoding="UTF-8" standalone="no"?>
<!-- Created with Inkscape (http://www.inkscape.org/) -->

<svg
   width="600mm"
   height="300mm"
   viewBox="0 0 600 300"
   version="1.1"
   id="svg316"
   inkscape:version="1.2.1 (9c6d41e410, 2022-07-14)"
   sodipodi:docname="Parts H.svg"
   xmlns:inkscape="http://www.inkscape.org/namespaces/inkscape"
   xmlns:sodipodi="http://sodipodi.sourceforge.net/DTD/sodipodi-0.dtd"
   xmlns="http://www.w3.org/2000/svg"
   xmlns:svg="http://www.w3.org/2000/svg">
  <sodipodi:namedview
     id="namedview318"
     pagecolor="#ffffff"
     bordercolor="#000000"
     borderopacity="0.25"
     inkscape:showpageshadow="2"
     inkscape:pageopacity="0.0"
     inkscape:pagecheckerboard="0"
     inkscape:deskcolor="#d1d1d1"
     inkscape:document-units="mm"
     showgrid="false"
     inkscape:zoom="0.4204826"
     inkscape:cx="919.18191"
     inkscape:cy="172.42093"
     inkscape:window-width="1920"
     inkscape:window-height="1111"
     inkscape:window-x="-9"
     inkscape:window-y="-9"
     inkscape:window-maximized="1"
     inkscape:current-layer="layer1" />
  <defs
     id="defs313" />
  <g
     inkscape:label="Layer 1"
     inkscape:groupmode="layer"
     id="layer1">
    <path
       id="path447"
       style="font-weight:bold;font-size:273.224px;line-height:1.25;font-family:Heavitas;-inkscape-font-specification:Heavitas;display:inline;fill:none;stroke:#fe0000;stroke-width:0.1;stroke-dasharray:none;stroke-opacity:1"
       d="m 27.793819,6.9701172 c -1.82149,0 -3.370152,0.6375073 -4.645195,1.9125447 -1.275043,1.2750441 -1.912545,2.8237051 -1.912545,4.6451941 v 71.739808 c -0.228834,-0.148593 -0.548989,-0.253797 -0.979268,-0.306442 -2.118124,-0.274408 -3.926952,0.04431 -5.424475,0.956014 -0.09235,0.0509 -0.182116,0.104639 -0.269751,0.161748 l -5.17e-4,-0.001 c -1.315054,0.854965 -2.10097,2.394668 -2.358513,4.617289 -0.09797,0.738411 -0.109342,1.544311 -0.03256,2.418974 0.05752,0.719168 0.105671,1.486863 0.143661,2.303219 0.0575,0.719147 0.241749,1.438032 0.551904,2.157491 0.367964,1.185944 0.424839,2.284015 0.171049,3.294377 -0.195409,0.97151 -0.54622,1.96288 -1.052649,2.97294 l -1.139465,2.27325 c -0.8961643,1.94251 -1.8121512,3.85553 -2.7471193,5.7397 -0.9154361,1.78703 -1.7729198,3.66135 -2.571936,5.62343 -0.4483626,1.22394 -0.8187134,2.4375 -1.1115601,3.64215 -0.2928687,1.20465 -0.4889981,2.42943 -0.587561,3.67316 -0.07929,1.39925 0.027229,2.76002 0.3172933,4.08192 0.2900817,1.3219 0.9002984,2.55649 1.8319295,3.70417 1.6499503,1.84819 3.8254243,3.09442 6.5262166,3.73879 2.661966,0.58598 5.403064,0.15182 8.222754,-1.30276 0.176873,-0.0844 0.344338,-0.18288 0.510563,-0.28319 v 65.68023 c 0,1.82149 0.637502,3.36963 1.912545,4.64468 1.275043,1.27504 2.823705,1.91254 4.645195,1.91254 h 40.710176 c 1.821491,0 3.369634,-0.6375 4.644678,-1.91254 1.275044,-1.27505 1.912545,-2.82319 1.912545,-4.64468 v -44.26241 c 0,-1.8215 0.6375,-3.36964 1.912545,-4.64468 1.275036,-1.27504 2.823705,-1.91255 4.645194,-1.91255 h 6.010486 c 1.821489,0 3.734515,0.54629 5.738151,1.63918 2.003633,0.91075 3.55178,2.09453 4.644678,3.55172 5.646618,8.01456 11.293428,15.93824 16.940048,23.77064 5.82877,7.8324 11.6575,15.57365 17.48628,23.22391 1.09288,1.45719 2.64103,2.73219 4.64467,3.82509 2.18579,0.91074 4.18951,1.36632 6.01101,1.36632 h 50.81963 c 1.82149,0 3.00528,-0.81942 3.55172,-2.45876 0.54646,-1.82149 0.2733,-3.46086 -0.81958,-4.91805 -6.01093,-8.01455 -12.84151,-16.84888 -20.49178,-26.50277 -7.65025,-9.6539 -14.93644,-19.03502 -21.85809,-28.14247 -1.0929,-1.45719 -1.45726,-2.91411 -1.09296,-4.37131 0.54645,-1.63934 1.54831,-3.00556 3.0055,-4.09846 4.37158,-2.73224 8.28781,-6.10218 11.74864,-10.10946 3.46082,-4.18944 6.46642,-8.83387 9.0165,-13.93403 2.55009,-5.10018 4.46259,-10.47385 5.73764,-16.120465 0.23171,-0.92685 0.43816,-1.853862 0.63303,-2.780709 0.818,-0.49365 1.61392,-1.020078 2.37557,-1.598352 2.99529,-2.076311 4.96191,-4.941008 5.89886,-8.593791 1.56116,-5.751089 1.21732,-11.45555 -1.03094,-17.113684 -0.54244,-1.574837 -1.2209,-3.10107 -2.03554,-4.579049 -0.71749,-1.458429 -1.48289,-2.92641 -2.29753,-4.404382 -1.24156,-2.119765 -2.50369,-4.142344 -3.78427,-6.067847 -1.26102,-2.022696 -2.65771,-3.997381 -4.19096,-5.923152 -0.50447,-0.758539 -0.69841,-1.555477 -0.58084,-2.391069 0.19532,-0.971542 0.34306,-1.952927 0.44132,-2.944006 0.0594,-1.049435 0.13846,-2.069716 0.23668,-3.060795 l 0.1788,-3.905705 c 0.11815,-1.340899 0.0613,-2.691739 -0.17054,-4.052466 -0.13512,-0.835853 -0.63965,-1.089088 -1.51463,-0.759644 -0.66105,0.271436 -1.00201,0.708099 -1.02216,1.310515 0.0186,0.408167 -0.0106,0.806649 -0.0889,1.195276 -0.0586,0.291457 -0.0487,0.621255 0.0284,0.990637 -0.0209,1.360428 -0.0617,2.691984 -0.12144,3.994071 -0.0401,1.204953 -0.19722,2.487161 -0.47077,3.847311 -0.0391,0.194229 -0.0493,0.368994 -0.03,0.524515 0.0176,0.146828 -0.0985,0.267514 -0.34003,0.362252 C 171.99915,35.521186 168.61819,31.128226 164.679,27.189038 158.48595,20.813824 150.92662,15.895726 142.00132,12.4349 133.07602,8.7919202 123.33106,6.9701172 112.76641,6.9701172 Z m 64.298917,7.4104008 c 7.372584,0.0029 14.745204,0.01485 22.117514,0.05013 8.39459,0.08336 16.789,1.685449 24.65793,4.706172 6.03001,2.305904 11.71952,5.593563 16.70182,9.746176 0.0963,0.623183 0.2199,1.227424 0.39377,1.798856 0.17426,0.641545 0.38793,1.340862 0.63976,2.099097 0.30982,0.97211 0.64978,1.925448 1.01802,2.85874 0.36823,0.93329 0.67707,1.905183 0.92863,2.916101 1.76217,5.813072 2.90205,11.829714 3.41995,18.049544 0.13574,1.088402 0.22177,2.168024 0.25941,3.237012 0.0573,0.971817 0.12343,2.020804 0.19999,3.148128 l -0.58291,-0.117305 c -0.2136,-0.194561 -0.40754,-0.359893 -0.58239,-0.496094 -0.11628,-0.175069 -0.2811,-0.359816 -0.49455,-0.554488 -2.87338,-2.801902 -5.34835,-5.827445 -7.42435,-9.075415 -0.83413,-1.380854 -1.6779,-2.711951 -2.53163,-3.995622 l -2.38693,-3.968233 c -0.25204,-0.505628 -0.49477,-0.933035 -0.72761,-1.283126 -0.21323,-0.447271 -0.45545,-0.874679 -0.72709,-1.283126 -0.50424,-1.011137 -1.06685,-1.98407 -1.68775,-2.917651 -0.56249,-0.972414 -1.11479,-1.993317 -1.65778,-3.062862 -0.52368,-0.914068 -1.31035,-1.274261 -2.36006,-1.081071 -2.83814,0.541041 -5.10504,2.005902 -6.79855,4.394564 -0.58404,0.89337 -0.60431,1.74834 -0.061,2.565218 l 0.64079,1.342037 c 0.17447,0.388898 0.36754,0.806433 0.58084,1.25367 2.2298,4.744659 4.83859,9.237039 7.82691,13.477214 0.26613,0.356771 0.53424,0.707284 0.80151,1.058333 0.0536,0.191975 0.10925,0.384087 0.15968,0.575675 0.63874,2.352372 1.18026,4.68475 1.6247,6.998023 0.44446,2.313295 0.64621,4.704483 0.60462,7.172689 -0.0201,0.602489 -0.0595,1.175672 -0.11834,1.719791 -0.0589,0.544141 -0.20581,1.146058 -0.43977,1.806608 -0.85427,-0.778345 -1.57229,-1.60471 -2.15439,-2.479952 -0.65969,-0.991901 -1.25187,-1.945224 -1.7756,-2.859257 -0.56255,-0.972363 -1.11478,-1.99334 -1.65778,-3.062862 -1.29958,-2.333659 -2.62891,-4.647366 -3.98684,-6.942212 -1.35792,-2.294856 -2.83269,-4.512173 -4.42402,-6.65179 -0.71805,-0.953137 -1.52278,-1.847901 -2.41587,-2.684591 -0.9319,-0.895059 -1.97108,-1.635698 -3.11712,-2.220019 -2.56397,-1.324426 -5.14927,-1.540713 -7.75457,-0.649573 -0.93331,0.368244 -1.72055,0.891965 -2.36265,1.57148 -0.58376,0.640718 -0.88573,1.514797 -0.9064,2.622579 -0.0396,0.699626 -0.0317,1.40938 0.0258,2.128552 0.0186,0.660815 0.13529,1.341319 0.3483,2.04122 0.19347,0.797064 0.40593,1.624025 0.6382,2.479435 0.29062,0.816599 0.55218,1.65193 0.78445,2.50734 0.0581,0.213853 0.1456,0.40838 0.262,0.583427 0.11643,0.175048 0.0969,0.397787 -0.0589,0.669727 -0.17478,-0.136252 -0.33017,-0.242501 -0.46612,-0.320394 -0.17478,-0.136252 -0.33119,-0.243546 -0.46716,-0.321428 -1.41738,-1.24542 -2.89295,-1.946571 -4.42815,-2.103747 -1.51567,-0.254323 -3.11902,-0.07174 -4.81056,0.548287 -2.0221,0.75574 -3.21942,2.182791 -3.591,4.281392 -0.2546,1.768323 -0.26603,3.45919 -0.0346,5.072559 0.19291,1.302369 0.43392,2.614783 0.72399,3.93671 0.29007,1.321927 0.61017,2.624145 0.95859,3.907255 0.0773,0.36934 0.18368,0.719005 0.31936,1.049549 0.0969,0.272216 0.15469,0.613465 0.17364,1.021643 -0.19429,-0.03911 -0.31053,-0.08841 -0.34934,-0.146761 l -0.17466,-0.262516 c -0.95088,-1.303181 -1.8147,-2.664916 -2.59054,-4.084506 l -2.4443,-4.433838 c -0.31017,-0.719435 -0.677969,-1.39989 -1.104838,-2.041735 -0.40732,-0.738993 -0.708284,-1.506676 -0.901754,-2.303736 -0.29063,-0.816597 -0.882717,-1.264334 -1.776636,-1.34307 -2.720607,-0.294533 -5.072805,0.3441 -7.056933,1.916162 -0.79762,0.698779 -1.012128,1.514616 -0.643889,2.447913 0.15496,0.486045 0.339132,0.952665 0.552421,1.399914 0.21328,0.447251 0.445522,0.924294 0.697632,1.429887 1.299289,2.586311 2.637554,5.103712 4.014742,7.554061 1.272209,2.137185 2.566316,4.306013 3.869015,6.489009 0.229299,1.346839 0.30627,2.69306 0.22996,4.039547 -0.17701,1.885041 -0.800285,3.731335 -1.871204,5.537647 -0.27193,-0.155806 -0.46648,-0.321562 -0.58291,-0.496611 l -0.173633,-0.641304 c -0.659129,-1.497224 -1.397102,-2.984797 -2.211751,-4.462777 -0.814619,-1.477961 -1.687096,-2.917198 -2.618445,-4.317566 -1.047759,-1.575416 -2.271178,-3.034437 -3.669027,-4.376994 -1.980228,-1.965157 -4.125919,-3.104343 -6.438366,-3.417879 -2.292904,-0.410661 -4.741834,-0.296891 -7.346839,0.341581 -0.913755,0.271118 -1.778819,0.67834 -2.595707,1.221631 -0.758519,0.504495 -1.585967,0.97022 -2.480469,1.396814 -1.633471,0.833901 -2.839478,1.930633 -3.618383,3.290238 -0.72057,1.320789 -1.101276,2.836253 -1.14205,4.546493 -0.139024,2.701334 0.198303,5.296944 1.011825,7.785571 0.774714,2.430236 1.870335,4.772986 3.286621,7.029026 9.31e-4,10e-4 0.0026,0.004 0.0036,0.006 0.258815,0.90264 0.482414,1.80476 0.664043,2.70733 0.328592,1.63292 0.677501,3.29501 1.044897,4.98625 0.658035,2.50789 0.956188,5.0445 0.895036,7.60988 l -0.06046,1.8066 c -0.05891,0.5441 -0.195889,1.09801 -0.41031,1.6614 -0.446962,-0.0393 -0.806052,-0.13664 -1.077971,-0.29249 -0.271938,-0.15581 -0.563131,-0.34141 -0.873848,-0.55552 -1.53439,-0.91516 -3.049391,-1.79991 -4.544943,-2.65668 -1.534389,-0.91516 -3.097954,-1.81136 -4.690669,-2.6877 -1.243168,-0.60386 -2.535121,-1.09116 -3.875733,-1.46192 -1.321078,-0.4679 -2.691029,-0.69276 -4.109826,-0.6749 -0.388618,-0.0782 -0.621565,-0.17577 -0.699183,-0.29249 1.51791,-1.7669 2.588993,-3.69978 3.213241,-5.79809 0.624248,-2.09831 1.015043,-4.29402 1.173055,-6.5872 0.139315,-2.95397 -0.129897,-5.762989 -0.807186,-8.426355 -0.716089,-2.721715 -1.713341,-5.424058 -2.993099,-8.107515 -2.036074,-4.200255 -5.132933,-7.526838 -9.289355,-9.980269 -1.631526,-0.934689 -3.253282,-1.412812 -4.86637,-1.434021 -1.651909,-0.07966 -3.353158,0.210344 -5.103048,0.869197 -1.167833,0.470354 -2.070906,1.220558 -2.717146,2.242241 -0.0025,-18.368037 -0.0052,-36.736146 -0.0078,-55.10413 -0.03929,-3.049433 0.07357,-6.101874 -0.04599,-9.148279 13.790982,-0.01955 27.582192,-0.03247 41.373185,-0.03927 7.372457,6.38e-4 14.744931,-0.005 22.117513,-0.0021 z m 70.537294,25.7545 c 0.34948,0.272518 0.64101,0.583184 0.87385,0.933276 l 0.64079,0.963249 c 1.35843,1.78959 2.67783,3.646252 3.95841,5.571753 l 3.78375,5.689058 c 0.54329,0.816876 0.70684,1.760603 0.49196,2.829285 l -1.46502,6.528284 -1.46451,6.5288 c -0.56647,2.564797 -1.00601,5.129497 -1.31982,7.694621 -0.27499,2.623431 -0.34556,5.237441 -0.21239,7.841899 0.0764,1.379945 0.26865,2.682494 0.57826,3.907255 0.3096,1.224739 0.9107,2.381233 1.80351,3.470589 1.26162,1.517356 2.63929,2.578606 4.13514,3.182751 0.27073,0.116875 0.55519,0.202769 0.84595,0.274919 -0.17541,0.688095 -0.35725,1.374141 -0.55346,2.055172 -2.81794,9.685411 -7.56323,18.967921 -14.61409,26.260411 -2.70767,3.18313 -6.49506,5.11296 -9.61027,7.83208 -4.69898,3.68819 -6.30349,10.96601 -3.14037,16.12925 12.93391,17.51788 26.75783,34.35621 39.92986,51.69555 -9.4298,0.0118 -18.85995,0.0239 -28.28975,0.0357 -4.69868,-0.0149 -9.39724,0.0121 -14.09578,0.004 -2.07691,0.0323 -4.44763,-0.07 -5.96914,-1.6924 -11.21517,-14.25611 -21.8415,-28.96953 -32.33343,-43.77459 -2.47522,-4.04406 -5.85826,-7.70921 -10.244337,-9.67538 -4.091899,-2.22059 -8.883464,-2.37459 -13.429155,-2.23139 -7.095196,-0.77923 -14.260493,4.80707 -15.13241,11.9109 -0.178687,12.00536 -0.129124,24.0183 -0.144694,36.02675 0.03624,3.11274 -0.07108,6.22777 0.03307,9.33793 -6.331899,0.0496 -12.664153,0.0807 -18.996256,0.0816 -6.67239,0.0265 -13.345725,-0.0393 -20.017383,0.0434 -0.0033,-23.72801 -0.0065,-47.45619 -0.0098,-71.18428 2.156745,2.70603 4.490122,5.25966 7.016626,7.64708 1.495005,1.36212 3.039316,2.60824 4.631758,3.73724 1.553625,1.07066 3.272857,1.94646 5.157308,2.62878 2.972423,1.05279 5.770945,0.57987 8.396904,-1.41904 0.81687,-0.54329 1.197499,-1.17423 1.139982,-1.89342 -0.09622,-0.77754 -0.534076,-1.37073 -1.311031,-1.77974 -0.543824,-0.31155 -1.009005,-0.63295 -1.397331,-0.96376 l -1.282092,-1.16686 c -1.009513,-1.01172 -1.930735,-2.08197 -2.765206,-3.21014 -0.814923,-1.2253 -1.669819,-2.38276 -2.562635,-3.47214 -0.815199,-0.97266 -1.571638,-1.98467 -2.270145,-3.03495 -0.737307,-1.1086 -1.425872,-2.20735 -2.066024,-3.29644 -0.42686,-0.64182 -0.251963,-1.01059 0.525549,-1.10691 0.894231,-0.1738 1.86566,0.0213 2.914551,0.58601 0.699341,0.29229 1.35981,0.65282 1.981274,1.08107 0.640988,0.3311 1.273021,0.71068 1.894458,1.13895 1.883629,1.44026 3.970898,2.87093 6.262667,4.29224 1.883903,1.1876 3.836306,2.03597 5.857007,2.54352 2.117852,0.5271 4.148219,0.60689 6.092135,0.23977 1.905114,-0.4255 3.762943,-1.24027 5.571753,-2.44326 1.6921,-1.12536 2.58777,-2.68894 2.687174,-4.69067 0.04103,-1.9629 -0.07391,-3.78066 -0.344165,-5.45238 -0.430691,-2.10584 -0.942916,-4.18196 -1.534273,-6.23062 1.619354,1.39539 3.413816,2.61813 5.385201,3.66954 2.330868,1.22697 4.662654,1.82274 6.994922,1.78645 2.332247,-0.0362 4.646084,-0.60729 6.940661,-1.71255 3.402917,-1.5899 5.202701,-4.26011 5.401221,-8.01088 0.15661,-1.02989 0.128994,-2.02091 -0.08372,-2.97347 -0.15437,-0.99135 -0.357228,-1.99201 -0.608748,-3.00291 -0.0964,-0.77748 0.08876,-1.32152 0.555522,-1.63195 1.108628,-0.737308 1.868337,-1.74804 2.277893,-3.030302 0.48128,-1.382925 0.78414,-2.75947 0.91313,-4.12998 0.0174,0.02628 0.0352,0.05309 0.0527,0.07958 0.91207,1.244831 1.87275,2.499728 2.88199,3.764112 1.72757,1.964868 3.51351,3.637409 5.35833,5.019329 1.2041,0.79819 2.37014,1.15859 3.49746,1.08211 1.18568,-0.11525 2.40015,-0.50236 3.64474,-1.16169 1.34201,-0.89254 1.56742,-2.008681 0.67489,-3.350699 -0.36878,-0.427979 -0.66003,-0.866372 -0.87333,-1.313615 l -0.63975,-1.34152 c -0.65941,-1.244603 -1.25976,-2.527699 -1.80247,-3.849894 -0.58154,-1.380525 -1.11501,-2.751915 -1.59939,-4.112927 -1.12426,-2.702701 -2.01548,-5.434317 -2.67322,-8.194849 -0.69656,-2.818861 -1.08199,-5.675627 -1.15652,-8.57157 -0.0186,-0.660808 -0.028,-1.244971 -0.0274,-1.750281 -0.0383,-0.56367 0.0797,-1.146015 0.35243,-1.748213 0.33027,0.116989 0.57186,0.292149 0.72709,0.525549 l 0.40773,0.612882 c 2.0179,3.034116 4.10438,5.981451 6.25853,8.840804 0.89281,1.089357 1.81507,2.158526 2.76624,3.209107 0.91236,0.99219 2.03827,1.800216 3.37861,2.423625 0.7965,0.311839 1.63266,0.429218 2.50734,0.352433 0.87467,-0.07676 1.62329,-0.406626 2.24585,-0.989087 0.71969,-0.562886 0.98177,-1.368766 0.78859,-2.418457 -0.13514,-0.835867 -0.35645,-1.613754 -0.66663,-2.333191 -0.34898,-0.777786 -0.67892,-1.52642 -0.98909,-2.245858 l -2.1518,-5.13302 -2.15181,-5.133537 c -0.6008,-1.536034 -1.10452,-3.052125 -1.51102,-4.549076 -0.40648,-1.496965 -0.61803,-3.081756 -0.63562,-4.753198 0.0391,-0.194229 0.0194,-0.349435 -0.0584,-0.466122 -0.0581,-0.213854 0.0302,-0.398755 0.26355,-0.553971 0.19429,0.03909 0.36826,0.175878 0.52348,0.409277 l 2.15387,3.238046 c 0.75684,1.011474 1.44645,2.11071 2.06706,3.296956 l 3.60753,6.183602 c 1.16389,2.00313 2.46442,3.958516 3.90054,5.864758 l 1.92081,2.509408 c 0.64043,0.836405 1.31979,1.603789 2.03812,2.304252 1.66977,1.498361 3.41825,2.482273 5.24464,2.950724 1.78759,0.410123 3.76985,0.227223 5.94744,-0.54777 2.48861,-0.813541 3.66631,-2.521307 3.53312,-5.125785 8.4e-4,-0.757965 -0.0573,-1.477658 -0.17312,-2.158008 l -0.28783,-2.333191 c -0.37326,-2.282881 -0.87456,-4.524851 -1.49707,-6.728272 1.47691,1.539343 3.13199,2.928488 4.96817,4.166671 2.31106,1.57683 4.68198,1.978783 7.11223,1.204061 1.96375,-0.716952 3.58756,-1.88163 4.87205,-3.493327 0.87579,-1.087414 1.20722,-2.233861 0.99477,-3.439066 l -0.37465,-3.032373 c -0.096,-1.030177 -0.26942,-2.050921 -0.5209,-3.061829 -0.58014,-2.643824 -1.11127,-5.277559 -1.59422,-7.901843 -0.52192,-2.682609 -1.10251,-5.326275 -1.74098,-7.931299 0.0391,-0.19423 6.6e-4,-0.379453 -0.11575,-0.554488 -0.0579,-0.213896 -0.0105,-0.456205 0.14624,-0.728121 z m 12.34137,19.686654 c 0.97462,3.53342 1.67089,7.137726 2.06912,10.756449 0.51895,4.563409 0.55827,9.29228 0.15917,13.779004 -0.20704,2.270229 -0.51997,4.52626 -0.93741,6.756693 -0.58548,-0.415389 -1.06652,-0.843942 -1.41439,-1.28881 -1.68847,-2.15918 -2.64753,-4.551261 -2.87786,-7.175272 -0.11484,-1.690978 -0.15135,-3.391237 -0.11059,-5.101498 0.0991,-1.749058 0.31374,-3.449855 0.64596,-5.101497 0.3328,-2.15694 0.70478,-4.254988 1.11518,-6.295223 0.46874,-2.07904 0.91878,-4.187806 1.34875,-6.325196 z M 33.613102,80.747526 c 0.602183,0.272774 1.057945,0.643214 1.368392,1.11001 0.368801,0.427979 0.70913,0.875261 1.019576,1.342037 5.065429,6.47752 7.836121,13.933758 8.312671,22.369177 0.13261,3.10974 -0.337694,6.07297 -1.409733,8.8899 -0.857087,1.74819 -1.95674,3.19512 -3.299024,4.3403 -0.484944,-0.85569 -0.931103,-1.65361 -1.338419,-2.39262 -0.387779,-0.83612 -0.726886,-1.6613 -1.017509,-2.47788 -0.833344,-2.13882 -1.647176,-4.24994 -2.441712,-6.33037 -0.775008,-2.17761 -1.384896,-4.42272 -1.829346,-6.73602 -0.502529,-2.527108 -0.908236,-5.03451 -1.216463,-7.522538 -0.308114,-2.488068 -0.22745,-5.024471 0.241846,-7.608838 0.215527,-1.574029 0.752639,-3.234928 1.609721,-4.983158 z m 41.111702,2.525427 c 2.308653,-0.07212 4.423473,0.727562 6.343282,2.396236 1.805729,1.576266 3.465596,3.501836 4.979025,5.777426 0.194019,0.291726 0.41711,0.690221 0.669209,1.195792 0.31045,0.466776 0.590733,0.952738 0.842843,1.458309 l 0.174666,0.641305 c 0.0776,0.116492 -0.01996,0.224468 -0.291972,0.321427 -0.427679,0.116079 -0.797089,0.319234 -1.108459,0.610299 -0.31124,0.29123 -0.467112,0.688919 -0.467672,1.194242 -0.079,1.14661 0.357279,2.245402 1.308448,3.295921 0.562819,0.71977 1.427274,1.19692 2.593123,1.43144 0.621739,0.17566 1.058178,0.64216 1.309997,1.40043 l 0.464055,2.21744 c 0.1742,0.64155 0.290272,1.32101 0.347782,2.04018 0.0962,0.77752 0.06648,1.55543 -0.08992,2.33268 -0.098,0.73841 -0.371798,1.46625 -0.819588,2.18488 -0.31157,0.5438 -0.602672,0.86431 -0.874882,0.96118 -0.2139,0.0579 -0.602978,-0.0189 -1.166337,-0.2341 -0.563389,-0.2144 -1.078379,-0.41906 -1.544609,-0.61391 -0.505019,-0.25322 -1.029201,-0.53589 -1.57303,-0.8475 -6.020514,-3.99083 -10.144529,-9.24237 -12.372372,-15.755624 -0.484387,-1.361013 -0.871608,-2.702655 -1.161686,-4.024561 -0.231714,-1.360723 -0.29881,-2.789626 -0.199988,-4.286043 0.03936,-0.446974 0.107968,-0.913628 0.205673,-1.399398 l 0.293522,-1.456758 c 0.0149,-0.262366 0.08475,-0.442811 0.208773,-0.541053 0.04134,-0.03269 0.08814,-0.05683 0.141593,-0.07131 0.272213,-0.09683 0.53438,-0.144901 0.787032,-0.144694 0.337725,-0.04589 0.671682,-0.07393 1.001489,-0.08423 z M 28.658882,101.47494 c 0.291916,1.20787 0.610037,2.42107 0.962215,3.64112 0.07734,0.36934 0.203761,0.74902 0.378272,1.13792 0.135673,0.33054 0.173629,0.76796 0.114722,1.31206 -0.135694,-0.33055 -0.261863,-0.58457 -0.378272,-0.75964 l -0.290421,-0.43718 c -0.271901,-0.50559 -0.524172,-1.01352 -0.785999,-1.52032 -1.55e-4,-1.12465 -3.62e-4,-2.24931 -5.17e-4,-3.37396 z m -13.523723,4.09019 c 0.04618,-0.01 0.09354,-0.01 0.142111,0 0.910954,2.25548 1.909166,4.45381 2.995166,6.59288 0.951519,1.74636 1.94484,3.50088 2.963643,5.26066 v 15.11329 c -0.0039,0.003 -0.0085,0.004 -0.0124,0.007 -0.388929,0.17443 -0.806889,0.36814 -1.254187,0.58136 -1.672592,1.02816 -3.577502,1.32763 -5.714897,0.89762 -2.137409,-0.42994 -3.8083,-1.42248 -5.0115803,-2.97863 -0.9120651,-1.24486 -1.4638286,-2.51909 -1.6567465,-3.82147 -0.1929058,-1.30235 -0.17277,-2.66289 0.062012,-4.08141 0.1373488,-1.18538 0.3917477,-2.32218 0.7622273,-3.41012 0.4288106,-1.12679 0.8769833,-2.22338 1.3446208,-3.29179 l 2.5714189,-5.24568 c 0.818273,-1.80658 1.626449,-3.56468 2.425175,-5.27409 0.116839,-0.20394 0.24489,-0.32031 0.383439,-0.34934 z" />
    <path
       id="path523-4"
       style="font-style:italic;font-size:50.8px;font-family:'Hello Valentica';-inkscape-font-specification:'Hello Valentica Italic';fill:none;stroke:#ff0000;stroke-width:0.1;stroke-opacity:1"
       d="m 203.93324,67.638402 c -1.31505,0.85496 -2.10104,2.39454 -2.35858,4.61717 -0.098,0.73841 -0.10911,1.54429 -0.0323,2.41896 0.0575,0.71917 0.10569,1.4869 0.14368,2.30325 0.0575,0.71915 0.24141,1.4383 0.55157,2.15776 0.36796,1.18594 0.42482,2.28401 0.17103,3.29437 -0.19541,0.97152 -0.54577,1.96264 -1.0522,2.9727 l -1.13981,2.27334 c -0.89616,1.94252 -1.81216,3.85565 -2.74713,5.73982 -0.91544,1.78703 -1.77273,3.66108 -2.57174,5.62316 -0.44837,1.223938 -0.81852,2.437938 -1.11136,3.642588 -0.29287,1.20465 -0.48914,2.42937 -0.5877,3.6731 -0.0793,1.39925 0.0272,2.75998 0.31725,4.08189 0.29008,1.3219 0.89998,2.55625 1.83161,3.70393 1.64996,1.84819 3.82589,3.09476 6.52668,3.73913 2.66197,0.58598 5.40291,0.15167 8.22261,-1.30291 0.89446,-0.42663 1.65268,-1.05714 2.2755,-1.8922 0.27252,-0.34948 0.33116,-0.64125 0.17594,-0.87464 -0.0776,-0.1165 -0.19369,-0.16595 -0.34919,-0.14671 l -0.43732,-0.0879 c -0.42765,0.11628 -0.81654,0.29141 -1.16664,0.52421 -0.38893,0.17443 -0.8072,0.36812 -1.2545,0.58134 -1.67259,1.02816 -3.57737,1.32727 -5.71477,0.89726 -2.13741,-0.42994 -3.80823,-1.42236 -5.01152,-2.97851 -0.91206,-1.24486 -1.46388,-2.51913 -1.65679,-3.82151 -0.19291,-1.30235 -0.17274,-2.66264 0.062,-4.08116 0.13735,-1.18538 0.39188,-2.3225 0.76236,-3.41045 0.42881,-1.12679 0.87704,-2.223388 1.34467,-3.291798 l 2.57132,-5.24536 c 0.81828,-1.80658 1.62642,-3.56456 2.42515,-5.27398 0.15578,-0.27192 0.33099,-0.38841 0.52529,-0.34935 0.91095,2.25548 1.90907,4.45346 2.99507,6.59253 1.14435,2.10028 2.33777,4.21003 3.57928,6.329828 1.97884,3.22845 4.08353,6.33039 6.3153,9.30647 2.29012,2.93724 4.79438,5.69006 7.51248,8.25853 1.495,1.36212 3.03893,2.60829 4.63138,3.73729 1.55362,1.07066 3.27303,1.94615 5.15748,2.62847 2.97242,1.05279 5.77118,0.57998 8.39714,-1.41893 0.81688,-0.54329 1.1972,-1.17399 1.13968,-1.89318 -0.0962,-0.77754 -0.53394,-1.3709 -1.3109,-1.77991 -0.54382,-0.31155 -1.00887,-0.63274 -1.3972,-0.96355 l -1.2822,-1.16722 c -1.00952,-1.01172 -1.93096,-2.08186 -2.76544,-3.21003 -0.81492,-1.2253 -1.66946,-2.38288 -2.56227,-3.47226 -0.8152,-0.97266 -1.57155,-1.98455 -2.27006,-3.03484 -0.7373,-1.1086 -1.42618,-2.20704 -2.06633,-3.29613 -0.42686,-0.64182 -0.25168,-1.01102 0.52583,-1.10734 0.89424,-0.1738 1.86563,0.0215 2.91453,0.58625 0.69934,0.29229 1.35983,0.65281 1.9813,1.08106 0.64099,0.3311 1.27259,0.71083 1.89403,1.1391 1.88363,1.44026 3.97093,2.87088 6.26271,4.29219 1.8839,1.1876 3.83648,2.03566 5.85719,2.54321 2.11785,0.5271 4.14829,0.60694 6.09221,0.23982 1.90512,-0.4255 3.76266,-1.24012 5.57147,-2.44311 1.69211,-1.12536 2.58786,-2.68894 2.68726,-4.69067 0.041,-1.9629 -0.0737,-3.78057 -0.34393,-5.452288 -0.4307,-2.10584 -0.94325,-4.18221 -1.53461,-6.23088 1.61936,1.3954 3.41391,2.61851 5.38529,3.66992 2.33087,1.22697 4.66275,1.82278 6.99502,1.78649 2.33225,-0.0362 4.64617,-0.60742 6.94075,-1.71269 3.40292,-1.5899 5.20266,-4.2601 5.40118,-8.01088 0.15661,-1.02989 0.12911,-2.02111 -0.0836,-2.97367 -0.15437,-0.99135 -0.35753,-1.99213 -0.60905,-3.00304 -0.0964,-0.77748 0.089,-1.3215 0.55576,-1.63193 1.10863,-0.73731 1.86809,-1.74782 2.27765,-3.03008 0.48128,-1.38293 0.78422,-2.75925 0.91321,-4.12976 0.0174,0.0263 0.0352,0.0528 0.0527,0.0793 0.91208,1.24483 1.873,2.49972 2.88224,3.7641 1.72757,1.96487 3.51348,3.63762 5.3583,5.01954 1.2041,0.79819 2.36998,1.15863 3.4973,1.08215 1.18568,-0.11525 2.40021,-0.5024 3.6448,-1.16173 1.34201,-0.89254 1.56734,-2.00895 0.67481,-3.35096 -0.36879,-0.42798 -0.6601,-0.866 -0.8734,-1.31324 l -0.63941,-1.34163 c -0.65941,-1.2446 -1.26023,-2.52794 -1.80295,-3.85014 -0.58154,-1.38053 -1.11458,-2.75195 -1.59896,-4.11296 -1.12426,-2.7027 -2.01586,-5.43394 -2.6736,-8.19448 -0.69656,-2.81886 -1.08176,-5.67586 -1.15629,-8.5718 -0.0186,-0.66081 -0.028,-1.2447 -0.0274,-1.75001 -0.0383,-0.56367 0.0797,-1.14622 0.35246,-1.74842 0.33027,0.11699 0.57195,0.29232 0.72718,0.52572 l 0.40738,0.61254 c 2.01791,3.03412 4.10444,5.98143 6.25859,8.84078 0.89281,1.08936 1.81514,2.15888 2.76631,3.20946 0.91236,0.99219 2.03833,1.79994 3.37867,2.42335 0.79651,0.31184 1.63263,0.42918 2.50731,0.35239 0.87467,-0.0768 1.62318,-0.40644 2.24574,-0.9889 0.71969,-0.56289 0.98203,-1.36904 0.78885,-2.41873 -0.13514,-0.83587 -0.35658,-1.61343 -0.66676,-2.33287 -0.34898,-0.77779 -0.67874,-1.52632 -0.98891,-2.24576 l -2.15179,-5.13343 -2.15179,-5.13343 c -0.6008,-1.53603 -1.10478,-3.05182 -1.51128,-4.54877 -0.40648,-1.49697 -0.61802,-3.08221 -0.63561,-4.75365 0.0391,-0.19423 0.0195,-0.34925 -0.0583,-0.46594 -0.0581,-0.21385 0.03,-0.39876 0.26336,-0.55398 0.19429,0.0391 0.36865,0.17584 0.52387,0.40924 l 2.15359,3.23812 c 0.75684,1.01147 1.4463,2.1108 2.06691,3.29705 l 3.60793,6.18365 c 1.16389,2.00313 2.46426,3.95836 3.90038,5.8646 l 1.92069,2.50953 c 0.64043,0.83641 1.32004,1.60366 2.03837,2.30412 1.66977,1.49837 3.41824,2.48216 5.24463,2.95061 1.78759,0.41012 3.76988,0.2276 5.94747,-0.54739 2.48861,-0.81354 3.66612,-2.52147 3.53293,-5.12595 8.4e-4,-0.75796 -0.057,-1.47761 -0.17287,-2.15796 l -0.2881,-2.33303 c -0.37326,-2.28288 -0.87451,-4.52505 -1.49702,-6.72848 1.47691,1.53935 3.1322,2.92859 4.96838,4.16677 2.31106,1.57683 4.68196,1.97863 7.11221,1.20391 1.96375,-0.71695 3.58736,-1.88142 4.87185,-3.49312 0.87579,-1.08741 1.20734,-2.23406 0.99489,-3.43926 l -0.37477,-3.03255 c -0.096,-1.03018 -0.2694,-2.05074 -0.52088,-3.06165 -0.58014,-2.64383 -1.11119,-5.27749 -1.59414,-7.90178 -0.52192,-2.68261 -1.10248,-5.32626 -1.74095,-7.93129 0.0391,-0.19423 5.4e-4,-0.37965 -0.11587,-0.55469 -0.0579,-0.21389 -0.0103,-0.45596 0.14649,-0.72788 0.34948,0.27252 0.64071,0.58295 0.87355,0.93305 l 0.64068,0.96331 c 1.35843,1.7896 2.67792,3.64617 3.95851,5.57167 l 3.78374,5.68921 c 0.54329,0.81688 0.70708,1.76041 0.4922,2.8291 l -1.46509,6.5283 -1.46449,6.52918 c -0.56647,2.5648 -1.00638,5.12911 -1.32019,7.69423 -0.27499,2.62344 -0.34557,5.23777 -0.2124,7.84223 0.0764,1.37994 0.26874,2.68215 0.57835,3.90691 0.3096,1.22475 0.91087,2.38147 1.80368,3.47083 1.26162,1.51736 2.63941,2.57833 4.13527,3.18247 1.53461,0.66252 3.39133,0.60649 5.56895,-0.16842 1.03043,-0.34871 2.00226,-0.78534 2.9163,-1.30906 0.97243,-0.5625 1.90623,-1.18355 2.80096,-1.86286 2.9953,-2.07632 4.96162,-4.94058 5.89857,-8.59336 1.56116,-5.7511 1.21762,-11.4559 -1.03064,-17.11404 -0.54244,-1.57483 -1.2212,-3.10074 -2.03584,-4.57872 -0.71749,-1.45843 -1.48297,-2.92667 -2.29761,-4.40465 -1.24156,-2.11976 -2.5033,-4.1424 -3.78388,-6.06791 -1.26102,-2.02269 -2.6577,-3.99725 -4.19095,-5.92302 -0.50448,-0.75854 -0.69854,-1.55561 -0.58097,-2.3912 0.19532,-0.97155 0.34269,-1.95265 0.44095,-2.94373 0.0594,-1.04944 0.13884,-2.07004 0.23706,-3.06112 l 0.17877,-3.90577 c 0.11815,-1.3409 0.0613,-2.69163 -0.17049,-4.05236 -0.13512,-0.8358497 -0.63961,-1.0891197 -1.51459,-0.7596797 -0.66105,0.27144 -1.00235,0.7081397 -1.0225,1.3105497 0.0186,0.40817 -0.0103,0.80671 -0.0886,1.19533 -0.0586,0.29146 -0.049,0.62117 0.0281,0.99055 -0.0209,1.36043 -0.0613,2.6924 -0.12105,3.99448 -0.0401,1.20496 -0.19718,2.48689 -0.47074,3.84704 -0.0391,0.19423 -0.0493,0.36908 -0.03,0.5246 0.0186,0.15548 -0.10738,0.28256 -0.37935,0.37953 -1.24235,-1.36183 -2.47475,-2.77224 -3.69756,-4.23121 -1.2228,-1.45899 -2.42629,-2.88861 -3.61031,-4.28927 -0.73752,-0.85599 -1.48483,-1.66416 -2.24195,-2.42297 -0.75714,-0.75881 -1.57306,-1.4783697 -2.4469,-2.1595797 -1.39813,-1.08991 -2.94245,-1.4514 -4.6337,-1.084 -0.15545,0.0192 -0.34084,0.0578 -0.5547,0.11593 l -0.46594,0.0583 c -1.20524,0.21247 -1.75017,0.91096 -1.63488,2.0966497 0.0973,0.77739 0.25043,1.51648 0.4634,2.21639 0.17426,0.64155 0.3879,1.34091 0.63973,2.09915 0.30982,0.97211 0.64934,1.92517 1.01758,2.85847 0.36823,0.93329 0.67731,1.90527 0.92887,2.91619 1.76217,5.81308 2.90193,11.8298 3.41983,18.04963 0.13574,1.08841 0.22208,2.16765 0.25972,3.23664 0.0573,0.97182 0.12311,2.02085 0.19967,3.14818 l -0.58262,-0.1172 c -0.2136,-0.19456 -0.40793,-0.35969 -0.58278,-0.49589 -0.11628,-0.17507 -0.28111,-0.3599 -0.49456,-0.55458 -2.87339,-2.8019 -5.34789,-5.82724 -7.42389,-9.07521 -0.83413,-1.38086 -1.67809,-2.71223 -2.53182,-3.99591 l -2.38672,-3.96816 c -0.25204,-0.50563 -0.49476,-0.93299 -0.7276,-1.28308 -0.21323,-0.44727 -0.45578,-0.87474 -0.72742,-1.28319 -0.50425,-1.01114 -1.06656,-1.98404 -1.68746,-2.91762 -0.56249,-0.97241 -1.11525,-1.99335 -1.65824,-3.06289 -0.52368,-0.91407 -1.31028,-1.27409 -2.35999,-1.0809 -2.83814,0.54104 -5.1049,2.00564 -6.79841,4.3943 -0.58404,0.89337 -0.60423,1.74827 -0.0609,2.56515 l 0.64085,1.34205 c 0.17447,0.3889 0.36746,0.80635 0.58076,1.25359 2.2298,4.74467 4.83866,9.23725 7.82699,13.47742 0.26613,0.35678 0.53404,0.70707 0.80131,1.05812 0.0536,0.19198 0.1091,0.38422 0.15953,0.5758 0.63875,2.35238 1.18037,4.68462 1.62481,6.99789 0.44446,2.3133 0.64635,4.7047 0.60476,7.17291 -0.0201,0.60249 -0.0596,1.1758 -0.11843,1.71992 -0.0589,0.54415 -0.20578,1.14589 -0.43974,1.80644 -0.85427,-0.77834 -1.57203,-1.60488 -2.15413,-2.48012 -0.65969,-0.99191 -1.25185,-1.94497 -1.77558,-2.859 -0.56255,-0.97237 -1.11523,-1.99337 -1.65823,-3.06289 -1.29958,-2.33366 -2.62875,-4.64754 -3.98668,-6.94239 -1.35792,-2.29486 -2.83248,-4.51201 -4.42381,-6.65163 -0.71805,-0.95314 -1.52297,-1.84806 -2.41606,-2.68475 -0.9319,-0.89506 -1.9713,-1.63531 -3.11734,-2.21963 -2.56397,-1.32443 -5.14897,-1.54086 -7.75427,-0.64972 -0.93331,0.36824 -1.72082,0.892 -2.36292,1.57151 -0.58377,0.64072 -0.88557,1.51488 -0.90624,2.62266 -0.0396,0.69962 -0.0314,1.40925 0.0261,2.12843 0.0186,0.66081 0.13528,1.34138 0.34829,2.04129 0.19347,0.79706 0.40584,1.62364 0.63811,2.47905 0.29062,0.8166 0.55204,1.65226 0.78431,2.50767 0.0581,0.21385 0.14571,0.40827 0.26211,0.58332 0.11643,0.17504 0.0966,0.39792 -0.0592,0.66986 -0.17478,-0.13625 -0.33018,-0.24261 -0.46613,-0.3205 -0.17478,-0.13626 -0.33077,-0.24351 -0.46674,-0.32139 -1.41738,-1.24542 -2.89334,-1.94677 -4.42854,-2.10395 -1.51567,-0.25432 -3.11864,-0.0714 -4.81018,0.54865 -2.0221,0.75575 -3.21973,2.1827 -3.59131,4.28131 -0.2546,1.76832 -0.26611,3.45892 -0.0347,5.07229 0.19291,1.30237 0.43421,2.61507 0.72428,3.937 0.29007,1.32193 0.61019,2.62393 0.95861,3.90704 0.0773,0.36934 0.18374,0.71932 0.31942,1.04986 0.0969,0.27222 0.15428,0.61309 0.17323,1.02126 -0.19429,-0.0391 -0.31037,-0.0883 -0.34918,-0.1467 l -0.17468,-0.26263 c -0.95088,-1.30319 -1.81453,-2.66449 -2.59037,-4.08408 l -2.44435,-4.43416 c -0.31017,-0.71943 -0.67793,-1.39969 -1.1048,-2.04154 -0.40732,-0.73899 -0.70819,-1.5067 -0.90166,-2.30376 -0.29063,-0.8166 -0.88275,-1.26427 -1.77667,-1.34301 -2.72061,-0.29453 -5.07311,0.34392 -7.05724,1.91598 -0.79762,0.69878 -1.01181,1.51468 -0.64357,2.44798 0.15496,0.48604 0.33885,0.95251 0.55214,1.39976 0.21328,0.44725 0.44589,0.9243 0.698,1.42989 1.29929,2.58631 2.63756,5.10385 4.01475,7.5542 1.27221,2.13719 2.56616,4.30612 3.86886,6.48912 0.2293,1.34684 0.30641,2.69316 0.2301,4.03965 -0.17701,1.88504 -0.80024,3.73106 -1.87116,5.53737 -0.27193,-0.1558 -0.46695,-0.32175 -0.58338,-0.4968 l -0.17337,-0.64106 c -0.65913,-1.49722 -1.3972,-2.98499 -2.21185,-4.46297 -0.81462,-1.47796 -1.68692,-2.91684 -2.61827,-4.31721 -1.04776,-1.57542 -2.27107,-3.03484 -3.66892,-4.3774 -1.98023,-1.96516 -4.12621,-3.10401 -6.43866,-3.41754 -2.2929,-0.41066 -4.7417,-0.29694 -7.34671,0.34153 -0.91375,0.27112 -1.77876,0.67832 -2.59565,1.22161 -0.75852,0.5045 -1.58597,0.97014 -2.48047,1.39673 -1.63347,0.8339 -2.83976,1.93057 -3.61866,3.29017 -0.72057,1.32079 -1.10127,2.83621 -1.14204,4.54645 -0.13903,2.70134 0.19863,5.29686 1.01216,7.78549 0.77471,2.43024 1.87041,4.77303 3.2867,7.02907 9.3e-4,0.001 0.002,0.004 0.004,0.006 0.25881,0.90264 0.48233,1.80456 0.66396,2.70713 0.3286,1.63293 0.6772,3.29504 1.04459,4.98629 0.65804,2.50789 0.95666,5.044708 0.89551,7.610088 l -0.0604,1.80654 c -0.0589,0.5441 -0.19607,1.09775 -0.4105,1.66114 -0.44696,-0.0393 -0.80604,-0.13656 -1.07796,-0.29241 -0.27193,-0.15581 -0.56321,-0.34112 -0.87393,-0.55523 -1.53439,-0.91516 -3.04922,-1.80036 -4.54478,-2.65714 -1.53439,-0.91516 -3.09795,-1.81093 -4.69067,-2.687268 -1.24317,-0.60386 -2.53526,-1.09139 -3.87587,-1.46215 -1.32108,-0.4679 -2.69105,-0.69263 -4.10985,-0.67477 -0.38862,-0.0782 -0.62165,-0.17588 -0.69927,-0.2926 1.51791,-1.76691 2.58885,-3.69969 3.2131,-5.798 0.62425,-2.09831 1.01504,-4.29387 1.17305,-6.58705 0.13931,-2.95398 -0.12953,-5.76332 -0.80682,-8.42669 -0.71609,-2.72172 -1.71363,-5.42417 -2.99339,-8.10763 -2.03607,-4.20026 -5.1329,-7.52683 -9.28933,-9.98026 -1.63153,-0.93469 -3.25333,-1.41268 -4.86641,-1.43389 -1.65192,-0.0797 -3.35306,0.21035 -5.10296,0.8692 -1.92494,0.77529 -3.14132,2.29939 -3.64915,4.57275 -0.27359,1.36016 -0.46942,2.71093 -0.58751,4.05181 -0.0597,1.30209 -0.0997,2.63258 -0.12067,3.99304 0.0553,2.7404 0.29476,5.44292 0.7194,8.10602 0.48299,2.62428 1.11176,5.27759 1.8862,7.96051 0.0773,0.36934 0.20354,0.74911 0.37805,1.13801 0.13568,0.33054 0.17371,0.76769 0.1148,1.31179 -0.1357,-0.33055 -0.26146,-0.58424 -0.37787,-0.75931 l -0.29073,-0.43713 c -1.06675,-1.98357 -2.05604,-3.9764 -2.96729,-5.97924 -0.8917,-2.09996 -1.7256,-4.23911 -2.5006,-6.41669 -0.42631,-1.14717 -0.82301,-2.31356 -1.19096,-3.49955 -0.36797,-1.18594 -0.64816,-2.42984 -0.84108,-3.7322 -0.077,-0.62202 -0.2225,-1.03067 -0.43606,-1.22528 -0.19404,-0.29172 -0.61137,-0.4766 -1.25265,-0.55506 -2.11813,-0.27441 -3.92669,0.0441 -5.42421,0.95577 -0.0923,0.0509 -0.18238,0.10449 -0.27001,0.1616 z m 19.05085,-5.33007 c 0.60219,0.27277 1.05813,0.64296 1.36858,1.10976 0.3688,0.42798 0.70912,0.87508 1.01956,1.34185 5.06544,6.47753 7.83617,13.93396 8.31272,22.36939 0.13261,3.10974 -0.33753,6.0732 -1.40957,8.89013 -0.85709,1.7482 -1.95697,3.19485 -3.29926,4.340028 -0.48494,-0.855688 -0.93078,-1.653338 -1.3381,-2.392348 -0.38778,-0.83612 -0.7271,-1.66166 -1.01772,-2.47824 -0.83334,-2.13882 -1.64714,-4.24963 -2.44167,-6.33006 -0.77501,-2.17762 -1.385,-4.42269 -1.82945,-6.73599 -0.50253,-2.52711 -0.90796,-5.03459 -1.21619,-7.52262 -0.30811,-2.48807 -0.22749,-5.02446 0.2418,-7.60883 0.21553,-1.57403 0.75222,-3.23484 1.6093,-4.98307 z m 39.18199,2.8253 c 0.0413,-0.0327 0.0881,-0.0565 0.14151,-0.071 0.27221,-0.0968 0.53455,-0.14505 0.7872,-0.14484 2.70181,-0.36709 5.15031,0.4047 7.34438,2.31176 1.80573,1.57627 3.46563,3.50213 4.97906,5.77772 0.19402,0.29173 0.41739,0.69029 0.66949,1.19586 0.31045,0.46678 0.59058,0.95263 0.84269,1.4582 l 0.17486,0.64139 c 0.0776,0.11649 -0.0201,0.22452 -0.29211,0.32148 -0.42768,0.11608 -0.79701,0.31888 -1.10838,0.60994 -0.31124,0.29123 -0.46725,0.68927 -0.46781,1.1946 -0.079,1.14661 0.35717,2.24507 1.30834,3.29559 0.56282,0.71977 1.42744,1.1972 2.59329,1.43172 0.62174,0.17566 1.05832,0.64203 1.31014,1.4003 l 0.46404,2.21729 c 0.1742,0.64155 0.29018,1.32124 0.34769,2.04041 0.0962,0.77752 0.0666,1.55537 -0.0898,2.33262 -0.098,0.73841 -0.37193,1.46639 -0.81972,2.18502 -0.31157,0.54381 -0.60282,0.86389 -0.87503,0.96076 -0.2139,0.0579 -0.60273,-0.0186 -1.16609,-0.23379 -0.56339,-0.2144 -1.07847,-0.41894 -1.5447,-0.61379 -0.50502,-0.25322 -1.02935,-0.53623 -1.57318,-0.84784 -6.02052,-3.99084 -10.14464,-9.24198 -12.37249,-15.75524 -0.48439,-1.36101 -0.87154,-2.70307 -1.16162,-4.02498 -0.23171,-1.36072 -0.29872,-2.78938 -0.1999,-4.2858 0.0394,-0.44697 0.10818,-0.91346 0.20588,-1.39923 l 0.29313,-1.45725 c 0.0149,-0.26236 0.0851,-0.44275 0.20908,-0.54099 z m 102.46586,-24.44534 c 0.77586,1.41959 1.50314,2.82857 2.18184,4.22866 0.73709,1.36123 1.42503,2.71299 2.06489,4.05473 1.12453,2.45009 2.113,5.20157 2.96478,8.2538 0.65829,2.25523 0.86972,4.47099 0.63411,6.64747 -0.17733,2.1377 -0.63688,4.29434 -1.37784,6.4703 -0.23396,0.66053 -0.57421,1.22418 -1.02174,1.69011 -0.44755,0.46589 -0.91398,0.90254 -1.40031,1.31016 -0.58347,0.38804 -1.19627,0.41655 -1.83726,0.0855 -1.18483,-0.64268 -2.05858,-1.32377 -2.62139,-2.04352 -1.68847,-2.15918 -2.64756,-4.55112 -2.87789,-7.17514 -0.11484,-1.69098 -0.15126,-3.39125 -0.1105,-5.10151 0.0991,-1.74906 0.31368,-3.44964 0.6459,-5.10128 0.3328,-2.15694 0.70481,-4.25534 1.11521,-6.29557 0.46874,-2.07905 0.91865,-4.18759 1.34862,-6.32498 z" />
    <path
       id="path523-4-4"
       style="font-style:italic;font-size:50.8px;font-family:'Hello Valentica';-inkscape-font-specification:'Hello Valentica Italic';fill:none;stroke:#ff0000;stroke-width:0.1;stroke-opacity:1"
       d="m 200.15782,138.74218 c -1.31505,0.85496 -2.10104,2.39454 -2.35858,4.61718 -0.098,0.7384 -0.10911,1.54428 -0.0323,2.41895 0.0575,0.71917 0.10569,1.4869 0.14368,2.30325 0.0575,0.71915 0.24141,1.4383 0.55157,2.15776 0.36796,1.18594 0.42482,2.28401 0.17103,3.29437 -0.19541,0.97152 -0.54577,1.96264 -1.0522,2.97271 l -1.13981,2.27333 c -0.89616,1.94252 -1.81216,3.85565 -2.74713,5.73982 -0.91544,1.78703 -1.77273,3.66109 -2.57174,5.62316 -0.44837,1.22394 -0.81852,2.43794 -1.11136,3.64259 -0.29287,1.20465 -0.48914,2.42937 -0.5877,3.6731 -0.0793,1.39925 0.0272,2.75998 0.31725,4.08189 0.29008,1.3219 0.89998,2.55625 1.83161,3.70393 1.64996,1.84819 3.82589,3.09476 6.52668,3.73913 2.66197,0.58598 5.40291,0.15167 8.22261,-1.30291 0.89446,-0.42663 1.65268,-1.05714 2.2755,-1.8922 0.27252,-0.34948 0.33116,-0.64125 0.17594,-0.87464 -0.0776,-0.1165 -0.19369,-0.16595 -0.34919,-0.14671 l -0.43732,-0.0879 c -0.42765,0.11628 -0.81654,0.29141 -1.16664,0.52421 -0.38893,0.17443 -0.8072,0.36812 -1.2545,0.58134 -1.67259,1.02816 -3.57737,1.32727 -5.71477,0.89726 -2.13741,-0.42994 -3.80823,-1.42236 -5.01152,-2.97851 -0.91206,-1.24486 -1.46388,-2.51913 -1.65679,-3.82151 -0.19291,-1.30235 -0.17274,-2.66264 0.062,-4.08116 0.13735,-1.18538 0.39188,-2.3225 0.76236,-3.41045 0.42881,-1.12679 0.87704,-2.22338 1.34467,-3.2918 l 2.57132,-5.24536 c 0.81828,-1.80658 1.62642,-3.56455 2.42515,-5.27398 0.15578,-0.27191 0.33099,-0.3884 0.52529,-0.34935 0.91095,2.25549 1.90907,4.45346 2.99507,6.59253 1.14435,2.10028 2.33777,4.21003 3.57928,6.32983 1.97884,3.22845 4.08353,6.33039 6.3153,9.30647 2.29012,2.93724 4.79438,5.69006 7.51248,8.25853 1.495,1.36212 3.03893,2.60829 4.63138,3.73729 1.55362,1.07066 3.27303,1.94615 5.15748,2.62847 2.97242,1.05279 5.77118,0.57998 8.39714,-1.41893 0.81688,-0.54329 1.1972,-1.17399 1.13968,-1.89318 -0.0962,-0.77754 -0.53394,-1.3709 -1.3109,-1.77991 -0.54382,-0.31155 -1.00887,-0.63274 -1.3972,-0.96355 l -1.2822,-1.16722 c -1.00952,-1.01172 -1.93096,-2.08186 -2.76544,-3.21003 -0.81492,-1.2253 -1.66946,-2.38288 -2.56227,-3.47226 -0.8152,-0.97266 -1.57155,-1.98455 -2.27006,-3.03484 -0.7373,-1.1086 -1.42618,-2.20704 -2.06633,-3.29613 -0.42686,-0.64182 -0.25168,-1.01102 0.52583,-1.10734 0.89424,-0.1738 1.86563,0.0215 2.91453,0.58625 0.69934,0.29229 1.35983,0.65281 1.9813,1.08106 0.64099,0.3311 1.27259,0.71083 1.89403,1.1391 1.88363,1.44026 3.97093,2.87088 6.26271,4.29219 1.8839,1.1876 3.83648,2.03566 5.85719,2.54321 2.11785,0.5271 4.14829,0.60694 6.09221,0.23982 1.90512,-0.4255 3.76266,-1.24012 5.57147,-2.44311 1.69211,-1.12536 2.58786,-2.68894 2.68726,-4.69067 0.041,-1.9629 -0.0737,-3.78057 -0.34393,-5.45229 -0.4307,-2.10584 -0.94325,-4.18221 -1.53461,-6.23088 1.61936,1.3954 3.41391,2.61851 5.38529,3.66993 2.33087,1.22697 4.66275,1.82277 6.99502,1.78649 2.33225,-0.0362 4.64617,-0.60743 6.94075,-1.71269 3.40292,-1.5899 5.20266,-4.26011 5.40118,-8.01088 0.15661,-1.02989 0.12911,-2.02111 -0.0836,-2.97367 -0.15437,-0.99136 -0.35753,-1.99213 -0.60905,-3.00304 -0.0964,-0.77748 0.089,-1.32151 0.55576,-1.63194 1.10863,-0.7373 1.86809,-1.74781 2.27765,-3.03007 0.48128,-1.38293 0.78422,-2.75925 0.91321,-4.12976 0.0174,0.0263 0.0352,0.0528 0.0527,0.0793 0.91208,1.24482 1.873,2.49972 2.88224,3.76409 1.72757,1.96488 3.51348,3.63763 5.3583,5.01955 1.2041,0.79819 2.36998,1.15863 3.4973,1.08215 1.18568,-0.11525 2.40021,-0.5024 3.6448,-1.16173 1.34201,-0.89254 1.56734,-2.00895 0.67481,-3.35097 -0.36879,-0.42797 -0.6601,-0.86599 -0.8734,-1.31323 l -0.63941,-1.34163 c -0.65941,-1.2446 -1.26023,-2.52794 -1.80295,-3.85014 -0.58154,-1.38053 -1.11458,-2.75195 -1.59896,-4.11296 -1.12426,-2.7027 -2.01586,-5.43394 -2.6736,-8.19448 -0.69656,-2.81886 -1.08176,-5.67586 -1.15629,-8.5718 -0.0186,-0.66081 -0.028,-1.2447 -0.0274,-1.75001 -0.0383,-0.56367 0.0797,-1.14622 0.35246,-1.74842 0.33027,0.11699 0.57195,0.29232 0.72718,0.52572 l 0.40738,0.61254 c 2.01791,3.03412 4.10444,5.98143 6.25859,8.84078 0.89281,1.08936 1.81514,2.15888 2.76631,3.20946 0.91236,0.99219 2.03833,1.79994 3.37867,2.42335 0.79651,0.31184 1.63263,0.42918 2.50731,0.35239 0.87467,-0.0768 1.62318,-0.40644 2.24574,-0.9889 0.71969,-0.56289 0.98203,-1.36904 0.78885,-2.41873 -0.13514,-0.83587 -0.35658,-1.61343 -0.66676,-2.33287 -0.34898,-0.77779 -0.67874,-1.52632 -0.98891,-2.24576 l -2.15179,-5.13343 -2.15179,-5.13343 c -0.6008,-1.53603 -1.10478,-3.05182 -1.51128,-4.54877 -0.40648,-1.49697 -0.61802,-3.08221 -0.63561,-4.75365 0.0391,-0.19423 0.0195,-0.34925 -0.0583,-0.46594 -0.0581,-0.21385 0.03,-0.39876 0.26336,-0.55398 0.19429,0.0391 0.36865,0.17584 0.52387,0.40924 l 2.15359,3.23812 c 0.75684,1.01147 1.4463,2.1108 2.06691,3.29705 l 3.60793,6.18365 c 1.16389,2.00313 2.46426,3.95836 3.90038,5.8646 l 1.92069,2.50953 c 0.64043,0.83641 1.32004,1.60366 2.03837,2.30412 1.66977,1.49837 3.41824,2.48216 5.24463,2.95061 1.78759,0.41012 3.76988,0.2276 5.94747,-0.54739 2.48861,-0.81354 3.66612,-2.52147 3.53293,-5.12595 8.4e-4,-0.75796 -0.057,-1.47761 -0.17287,-2.15796 l -0.2881,-2.33303 c -0.37326,-2.28288 -0.87451,-4.52505 -1.49702,-6.72848 1.47691,1.53935 3.1322,2.92859 4.96838,4.16677 2.31106,1.57683 4.68196,1.97863 7.11221,1.20391 1.96375,-0.71695 3.58736,-1.88142 4.87185,-3.49312 0.87579,-1.08741 1.20734,-2.23406 0.99489,-3.43926 l -0.37477,-3.03255 c -0.096,-1.03018 -0.2694,-2.05074 -0.52088,-3.06165 -0.58014,-2.64383 -1.11119,-5.27749 -1.59414,-7.90178 -0.52192,-2.682607 -1.10248,-5.326257 -1.74095,-7.931287 0.0391,-0.19423 5.4e-4,-0.37965 -0.11587,-0.55469 -0.0579,-0.21389 -0.0103,-0.45596 0.14649,-0.72788 0.34948,0.27252 0.64071,0.58295 0.87355,0.93305 l 0.64068,0.96331 c 1.35843,1.7896 2.67792,3.64617 3.95851,5.571667 l 3.78374,5.68921 c 0.54329,0.81688 0.70708,1.76041 0.4922,2.8291 l -1.46509,6.5283 -1.46449,6.52918 c -0.56647,2.5648 -1.00638,5.12911 -1.32019,7.69423 -0.27499,2.62344 -0.34557,5.23777 -0.2124,7.84223 0.0764,1.37994 0.26874,2.68215 0.57835,3.90691 0.3096,1.22475 0.91087,2.38147 1.80368,3.47083 1.26162,1.51736 2.63941,2.57833 4.13527,3.18247 1.53461,0.66252 3.39133,0.60649 5.56895,-0.16842 1.03043,-0.34871 2.00226,-0.78534 2.9163,-1.30906 0.97243,-0.5625 1.90623,-1.18355 2.80096,-1.86286 2.9953,-2.07632 4.96162,-4.94058 5.89857,-8.59336 1.56116,-5.7511 1.21762,-11.4559 -1.03064,-17.11404 -0.54244,-1.57483 -1.2212,-3.10074 -2.03584,-4.57872 -0.71749,-1.45843 -1.48297,-2.92667 -2.29761,-4.40465 -1.24156,-2.11976 -2.5033,-4.1424 -3.78388,-6.06791 -1.26102,-2.02269 -2.6577,-3.997247 -4.19095,-5.923017 -0.50448,-0.75854 -0.69854,-1.55561 -0.58097,-2.3912 0.19532,-0.97155 0.34269,-1.95265 0.44095,-2.94373 0.0594,-1.04944 0.13884,-2.07004 0.23706,-3.06112 l 0.17877,-3.90577 c 0.11815,-1.3409 0.0613,-2.691635 -0.17049,-4.052365 -0.13512,-0.83585 -0.63961,-1.08912 -1.51459,-0.75968 -0.66105,0.27144 -1.00235,0.70814 -1.0225,1.31055 0.0186,0.40817 -0.0103,0.80671 -0.0886,1.195335 -0.0586,0.29146 -0.049,0.62117 0.0281,0.99055 -0.0209,1.36043 -0.0613,2.6924 -0.12105,3.99448 -0.0401,1.20496 -0.19718,2.48689 -0.47074,3.84704 -0.0391,0.19423 -0.0493,0.36908 -0.03,0.5246 0.0186,0.15548 -0.10738,0.28256 -0.37935,0.37953 -1.24235,-1.36183 -2.47475,-2.77224 -3.69756,-4.23121 -1.2228,-1.45899 -2.42629,-2.88861 -3.61031,-4.28927 -0.73752,-0.85599 -1.48483,-1.664165 -2.24195,-2.422975 -0.75714,-0.75881 -1.57306,-1.47837 -2.4469,-2.15958 -1.39813,-1.08991 -2.94245,-1.4514 -4.6337,-1.084 -0.15545,0.0192 -0.34084,0.0578 -0.5547,0.11593 l -0.46594,0.0583 c -1.20524,0.21247 -1.75017,0.91096 -1.63488,2.09665 0.0973,0.77739 0.25043,1.51648 0.4634,2.216395 0.17426,0.64155 0.3879,1.34091 0.63973,2.09915 0.30982,0.97211 0.64934,1.92517 1.01758,2.85847 0.36823,0.93329 0.67731,1.90527 0.92887,2.91619 1.76217,5.81308 2.90193,11.829797 3.41983,18.049627 0.13574,1.08841 0.22208,2.16765 0.25972,3.23664 0.0573,0.97182 0.12311,2.02085 0.19967,3.14818 l -0.58262,-0.1172 c -0.2136,-0.19456 -0.40793,-0.35969 -0.58278,-0.49589 -0.11628,-0.17507 -0.28111,-0.3599 -0.49456,-0.55458 -2.87339,-2.8019 -5.34789,-5.82724 -7.42389,-9.07521 -0.83413,-1.38086 -1.67809,-2.71223 -2.53182,-3.99591 l -2.38672,-3.968157 c -0.25204,-0.50563 -0.49476,-0.93299 -0.7276,-1.28308 -0.21323,-0.44727 -0.45578,-0.87474 -0.72742,-1.28319 -0.50425,-1.01114 -1.06656,-1.98404 -1.68746,-2.91762 -0.56249,-0.97241 -1.11525,-1.99335 -1.65824,-3.06289 -0.52368,-0.91407 -1.31028,-1.27409 -2.35999,-1.0809 -2.83814,0.54104 -5.1049,2.00564 -6.79841,4.3943 -0.58404,0.89337 -0.60423,1.74827 -0.0609,2.56515 l 0.64085,1.34205 c 0.17447,0.3889 0.36746,0.80635 0.58076,1.25359 2.2298,4.744667 4.83866,9.237247 7.82699,13.477417 0.26613,0.35678 0.53404,0.70707 0.80131,1.05812 0.0536,0.19198 0.1091,0.38422 0.15953,0.5758 0.63875,2.35238 1.18037,4.68462 1.62481,6.99789 0.44446,2.3133 0.64635,4.7047 0.60476,7.17291 -0.0201,0.60249 -0.0596,1.1758 -0.11843,1.71992 -0.0589,0.54415 -0.20578,1.14589 -0.43974,1.80644 -0.85427,-0.77834 -1.57203,-1.60488 -2.15413,-2.48012 -0.65969,-0.99191 -1.25185,-1.94497 -1.77558,-2.859 -0.56255,-0.97237 -1.11523,-1.99337 -1.65823,-3.06289 -1.29958,-2.33366 -2.62875,-4.64754 -3.98668,-6.94239 -1.35792,-2.29486 -2.83248,-4.51201 -4.42381,-6.65163 -0.71805,-0.95314 -1.52297,-1.84806 -2.41606,-2.68475 -0.9319,-0.89506 -1.9713,-1.63531 -3.11734,-2.21963 -2.56397,-1.32443 -5.14897,-1.54086 -7.75427,-0.64972 -0.93331,0.36824 -1.72082,0.892 -2.36292,1.57151 -0.58377,0.64072 -0.88557,1.51488 -0.90624,2.62266 -0.0396,0.69962 -0.0314,1.40925 0.0261,2.12843 0.0186,0.66081 0.13528,1.34138 0.34829,2.04129 0.19347,0.79706 0.40584,1.62364 0.63811,2.47905 0.29062,0.8166 0.55204,1.65226 0.78431,2.50767 0.0581,0.21385 0.14571,0.40827 0.26211,0.58332 0.11643,0.17504 0.0966,0.39792 -0.0592,0.66986 -0.17478,-0.13625 -0.33018,-0.24261 -0.46613,-0.3205 -0.17478,-0.13626 -0.33077,-0.24351 -0.46674,-0.32139 -1.41738,-1.24542 -2.89334,-1.94677 -4.42854,-2.10395 -1.51567,-0.25432 -3.11864,-0.0714 -4.81018,0.54865 -2.0221,0.75575 -3.21973,2.1827 -3.59131,4.28131 -0.2546,1.76832 -0.26611,3.45892 -0.0347,5.07229 0.19291,1.30237 0.43421,2.61507 0.72428,3.937 0.29007,1.32193 0.61019,2.62393 0.95861,3.90704 0.0773,0.36934 0.18374,0.71932 0.31942,1.04986 0.0969,0.27222 0.15428,0.61309 0.17323,1.02126 -0.19429,-0.0391 -0.31037,-0.0883 -0.34918,-0.1467 l -0.17468,-0.26263 c -0.95088,-1.30319 -1.81453,-2.66449 -2.59037,-4.08408 l -2.44435,-4.43416 c -0.31017,-0.71943 -0.67793,-1.39969 -1.1048,-2.04154 -0.40732,-0.73899 -0.70819,-1.5067 -0.90166,-2.30376 -0.29063,-0.8166 -0.88275,-1.26427 -1.77667,-1.34301 -2.72061,-0.29453 -5.07311,0.34392 -7.05724,1.91598 -0.79762,0.69878 -1.01181,1.51468 -0.64357,2.44798 0.15496,0.48604 0.33885,0.95251 0.55214,1.39976 0.21328,0.44725 0.44589,0.9243 0.698,1.42989 1.29929,2.58631 2.63756,5.10385 4.01475,7.5542 1.27221,2.13719 2.56616,4.30612 3.86886,6.48912 0.2293,1.34684 0.30641,2.69316 0.2301,4.03965 -0.17701,1.88504 -0.80024,3.73106 -1.87116,5.53737 -0.27193,-0.1558 -0.46695,-0.32175 -0.58338,-0.4968 l -0.17337,-0.64106 c -0.65913,-1.49722 -1.3972,-2.98499 -2.21185,-4.46297 -0.81462,-1.47796 -1.68692,-2.91684 -2.61827,-4.31721 -1.04776,-1.57542 -2.27107,-3.03484 -3.66892,-4.3774 -1.98023,-1.96516 -4.12621,-3.10401 -6.43866,-3.41754 -2.2929,-0.41066 -4.7417,-0.29694 -7.34671,0.34153 -0.91375,0.27112 -1.77876,0.67832 -2.59565,1.22161 -0.75852,0.5045 -1.58597,0.97014 -2.48047,1.39673 -1.63347,0.8339 -2.83976,1.93057 -3.61866,3.29017 -0.72057,1.32079 -1.10127,2.83621 -1.14204,4.54645 -0.13903,2.70134 0.19863,5.29686 1.01216,7.78549 0.77471,2.43024 1.87041,4.77303 3.2867,7.02907 9.3e-4,10e-4 0.002,0.004 0.004,0.006 0.25881,0.90264 0.48233,1.80456 0.66396,2.70713 0.3286,1.63293 0.6772,3.29504 1.04459,4.98629 0.65804,2.50789 0.95666,5.0447 0.89551,7.61008 l -0.0604,1.80654 c -0.0589,0.5441 -0.19607,1.09775 -0.4105,1.66114 -0.44696,-0.0393 -0.80604,-0.13656 -1.07796,-0.29241 -0.27193,-0.15581 -0.56321,-0.34112 -0.87393,-0.55523 -1.53439,-0.91516 -3.04922,-1.80036 -4.54478,-2.65714 -1.53439,-0.91516 -3.09795,-1.81093 -4.69067,-2.68726 -1.24317,-0.60386 -2.53526,-1.09139 -3.87587,-1.46215 -1.32108,-0.4679 -2.69105,-0.69263 -4.10985,-0.67477 -0.38862,-0.0782 -0.62165,-0.17588 -0.69927,-0.2926 1.51791,-1.76691 2.58885,-3.69969 3.2131,-5.798 0.62425,-2.09831 1.01504,-4.29387 1.17305,-6.58705 0.13931,-2.95398 -0.12953,-5.76332 -0.80682,-8.42669 -0.71609,-2.72172 -1.71363,-5.42417 -2.99339,-8.10763 -2.03607,-4.20026 -5.1329,-7.52683 -9.28933,-9.98026 -1.63153,-0.93469 -3.25333,-1.41268 -4.86641,-1.43389 -1.65192,-0.0797 -3.35306,0.21035 -5.10296,0.8692 -1.92494,0.77529 -3.14132,2.29939 -3.64915,4.57275 -0.27359,1.36016 -0.46942,2.71093 -0.58751,4.05181 -0.0597,1.30209 -0.0997,2.63258 -0.12067,3.99304 0.0553,2.7404 0.29476,5.44292 0.7194,8.10602 0.48299,2.62428 1.11176,5.27759 1.8862,7.96051 0.0773,0.36934 0.20354,0.74911 0.37805,1.13801 0.13568,0.33054 0.17371,0.76769 0.1148,1.31179 -0.1357,-0.33055 -0.26146,-0.58424 -0.37787,-0.75931 l -0.29073,-0.43713 c -1.06675,-1.98357 -2.05604,-3.9764 -2.96729,-5.97924 -0.8917,-2.09996 -1.7256,-4.23911 -2.5006,-6.41669 -0.42631,-1.14717 -0.82301,-2.31356 -1.19096,-3.49955 -0.36797,-1.18594 -0.64816,-2.42984 -0.84108,-3.7322 -0.077,-0.62202 -0.2225,-1.03067 -0.43606,-1.22528 -0.19404,-0.29172 -0.61137,-0.4766 -1.25265,-0.55506 -2.11813,-0.27441 -3.92669,0.0441 -5.42421,0.95577 -0.0923,0.0509 -0.18238,0.10449 -0.27001,0.1616 z m 19.05085,-5.33007 c 0.60219,0.27277 1.05813,0.64296 1.36858,1.10976 0.3688,0.42798 0.70912,0.87508 1.01956,1.34185 5.06544,6.47753 7.83617,13.93396 8.31272,22.36939 0.13261,3.10974 -0.33753,6.0732 -1.40957,8.89013 -0.85709,1.7482 -1.95697,3.19485 -3.29926,4.34003 -0.48494,-0.85569 -0.93078,-1.65334 -1.3381,-2.39235 -0.38778,-0.83611 -0.7271,-1.66166 -1.01772,-2.47824 -0.83334,-2.13882 -1.64714,-4.24962 -2.44167,-6.33006 -0.77501,-2.17762 -1.385,-4.42269 -1.82945,-6.73599 -0.50253,-2.52711 -0.90796,-5.03459 -1.21619,-7.52262 -0.30811,-2.48807 -0.22749,-5.02446 0.2418,-7.60883 0.21553,-1.57403 0.75222,-3.23484 1.6093,-4.98307 z m 39.18199,2.82531 c 0.0413,-0.0327 0.0881,-0.0565 0.14151,-0.071 0.27221,-0.0968 0.53455,-0.14504 0.7872,-0.14484 2.70181,-0.36709 5.15031,0.4047 7.34438,2.31176 1.80573,1.57628 3.46563,3.50214 4.97906,5.77773 0.19402,0.29173 0.41739,0.69029 0.66949,1.19586 0.31045,0.46677 0.59058,0.95263 0.84269,1.45819 l 0.17486,0.64139 c 0.0776,0.11649 -0.0201,0.22453 -0.29211,0.32148 -0.42768,0.11609 -0.79701,0.31888 -1.10838,0.60994 -0.31124,0.29123 -0.46725,0.68927 -0.46781,1.1946 -0.079,1.14661 0.35717,2.24507 1.30834,3.29559 0.56282,0.71977 1.42744,1.1972 2.59329,1.43172 0.62174,0.17566 1.05832,0.64203 1.31014,1.4003 l 0.46404,2.21729 c 0.1742,0.64155 0.29018,1.32125 0.34769,2.04041 0.0962,0.77752 0.0666,1.55537 -0.0898,2.33262 -0.098,0.73841 -0.37193,1.46639 -0.81972,2.18503 -0.31157,0.5438 -0.60282,0.86388 -0.87503,0.96075 -0.2139,0.0579 -0.60273,-0.0186 -1.16609,-0.23379 -0.56339,-0.2144 -1.07847,-0.41894 -1.5447,-0.61378 -0.50502,-0.25322 -1.02935,-0.53624 -1.57318,-0.84785 -6.02052,-3.99084 -10.14464,-9.24198 -12.37249,-15.75524 -0.48439,-1.361 -0.87154,-2.70306 -1.16162,-4.02498 -0.23171,-1.36072 -0.29872,-2.78937 -0.1999,-4.28579 0.0394,-0.44698 0.10818,-0.91347 0.20588,-1.39924 l 0.29313,-1.45725 c 0.0149,-0.26236 0.0851,-0.44275 0.20908,-0.54098 z m 102.46586,-24.44535 c 0.77586,1.41959 1.50314,2.82857 2.18184,4.22866 0.73709,1.36123 1.42503,2.713 2.06489,4.05473 1.12453,2.4501 2.113,5.20157 2.96478,8.2538 0.65829,2.25523 0.86972,4.471 0.63411,6.64747 -0.17733,2.1377 -0.63688,4.29435 -1.37784,6.4703 -0.23396,0.66053 -0.57421,1.22418 -1.02174,1.69011 -0.44755,0.46589 -0.91398,0.90254 -1.40031,1.31016 -0.58347,0.38804 -1.19627,0.41655 -1.83726,0.0855 -1.18483,-0.64268 -2.05858,-1.32377 -2.62139,-2.04352 -1.68847,-2.15918 -2.64756,-4.55112 -2.87789,-7.17514 -0.11484,-1.69098 -0.15126,-3.39125 -0.1105,-5.10151 0.0991,-1.74906 0.31368,-3.44964 0.6459,-5.10128 0.3328,-2.15694 0.70481,-4.25534 1.11521,-6.29557 0.46874,-2.07905 0.91865,-4.18759 1.34862,-6.32498 z" />
    <path
       id="path523-2"
       style="font-style:italic;font-size:50.8px;font-family:'Hello Valentica';-inkscape-font-specification:'Hello Valentica Italic';fill:none;stroke:#ff0000;stroke-width:0.1;stroke-opacity:1"
       d="m 196.3546,6.7372004 c -0.75803,-0.0079 -1.48638,0.4013 -2.18488,1.226799 -0.23706,0.270933 -0.45722,0.592266 -0.66042,0.964799 -0.16933,0.3048 -0.35542,0.626649 -0.55862,0.965316 -0.16934,0.3047986 -0.2878,0.6434246 -0.35554,1.0159576 -0.16933,0.575733 -0.44033,1.032827 -0.81287,1.371493 -0.33866,0.338666 -0.74491,0.64374 -1.21904,0.914673 l -1.06712,0.609782 c -0.88053,0.541866 -1.76117,1.066581 -2.6417,1.574581 -0.84667,0.474132 -1.69323,0.998848 -2.5399,1.57458 -0.508,0.372533 -0.98187,0.762005 -1.42213,1.168405 -0.44027,0.406399 -0.84703,0.846716 -1.21957,1.320849 -0.4064,0.541866 -0.72773,1.117944 -0.9648,1.727543 -0.23706,0.6096 -0.32198,1.269559 -0.25424,1.980754 0.16933,1.18534 0.71134,2.26935 1.62574,3.25149 0.9144,0.94826 2.13366,1.50705 3.65765,1.67638 0.47414,0.0677 0.94801,0.0169 1.42214,-0.15245 0.2032,-0.0677 0.30489,-0.16942 0.30489,-0.30489 0,-0.0677 -0.0335,-0.11858 -0.10129,-0.15244 l -0.15244,-0.15245 c -0.2032,-0.0677 -0.40658,-0.10128 -0.60978,-0.10128 -0.2032,-0.0339 -0.42336,-0.0679 -0.66043,-0.10181 -0.94826,-0.0339 -1.79483,-0.42333 -2.53989,-1.1684 -0.74507,-0.74507 -1.15183,-1.59163 -1.21957,-2.5399 -0.0339,-0.745064 0.0851,-1.40554 0.35605,-1.981272 0.27094,-0.575733 0.64311,-1.117741 1.11725,-1.625741 0.37253,-0.440266 0.77929,-0.829738 1.21956,-1.168404 0.47413,-0.338666 0.948,-0.659999 1.42214,-0.964799 l 2.43861,-1.422652 c 0.8128,-0.508 1.60852,-0.999163 2.38745,-1.473295 0.13547,-0.06773 0.23716,-0.06773 0.30489,0 -0.23707,1.151465 -0.42367,2.303104 -0.55914,3.454569 -0.1016,1.151466 -0.186,2.31988 -0.25373,3.505213 -0.0677,1.828801 -0.051,3.640391 0.0506,5.435331 0.13547,1.79493 0.40647,3.57297 0.81287,5.33404 0.23707,0.94826 0.52485,1.86297 0.86352,2.7435 0.33866,0.84667 0.79627,1.65916 1.372,2.43809 0.9144,1.2192 2.16722,1.77799 3.75895,1.67639 0.47413,0 0.79598,-0.15202 0.96531,-0.45682 0.16934,-0.33867 0.15204,-0.69459 -0.0512,-1.06712 -0.13546,-0.27093 -0.23664,-0.52465 -0.30437,-0.76171 l -0.2036,-0.81287 c -0.13547,-0.67733 -0.21987,-1.35459 -0.25374,-2.03192 0,-0.7112 -0.0341,-1.40574 -0.1018,-2.08308 -0.0677,-0.6096 -0.10128,-1.21923 -0.10128,-1.82883 0,-0.64346 0.0168,-1.26987 0.0506,-1.87947 0,-0.37253 0.16931,-0.47422 0.50798,-0.30489 0.4064,0.16934 0.74502,0.50796 1.01596,1.01596 0.2032,0.3048 0.37251,0.62665 0.50798,0.96532 0.16933,0.3048 0.32187,0.62665 0.45733,0.96531 0.37254,1.08373 0.82963,2.21808 1.37149,3.40341 0.44027,0.98213 0.99906,1.84599 1.67639,2.59106 0.7112,0.77893 1.50692,1.35449 2.38745,1.72702 0.88053,0.33867 1.84608,0.50798 2.89595,0.50798 0.98213,0 1.76107,-0.38947 2.33681,-1.1684 0.54186,-0.77893 0.98218,-1.5411 1.32084,-2.28617 0.39029,-0.96271 0.73974,-1.93546 1.05007,-2.91816 0.2782,0.99494 0.67301,1.96744 1.18494,2.91816 0.6096,1.1176 1.38854,1.98146 2.33681,2.59106 0.94826,0.6096 2.03228,0.99907 3.25148,1.1684 1.79493,0.27094 3.23383,-0.32192 4.31757,-1.77818 0.33866,-0.37253 0.59289,-0.77878 0.76222,-1.21905 0.2032,-0.44026 0.38929,-0.89736 0.55863,-1.37149 0.16933,-0.33867 0.38949,-0.50798 0.66042,-0.50798 0.64347,0 1.21954,-0.20338 1.72754,-0.60978 0.5638,-0.42771 1.05407,-0.90049 1.47278,-1.41749 -1e-5,0.0153 0,0.0307 0,0.046 0.0339,0.74506 0.0847,1.50723 0.15245,2.28616 0.16933,1.25307 0.44033,2.40419 0.81287,3.45405 0.27093,0.64347 0.64363,1.10056 1.11776,1.3715 0.508,0.27093 1.10034,0.44024 1.77767,0.50798 0.77893,0 1.1684,-0.38896 1.1684,-1.16789 -0.0339,-0.27093 -0.0339,-0.52516 0,-0.76223 l 0.1018,-0.71107 c 0.0677,-0.67733 0.16943,-1.35458 0.3049,-2.03191 0.13546,-0.7112 0.288,-1.40575 0.45733,-2.08308 0.27093,-1.38853 0.64311,-2.72626 1.11725,-4.01319 0.47413,-1.3208 1.08376,-2.57361 1.82883,-3.75895 0.16933,-0.27093 0.32187,-0.50838 0.45733,-0.71158 0.13547,-0.23707 0.33885,-0.43993 0.60978,-0.60927 0.1016,0.13547 0.15193,0.27071 0.15193,0.40618 v 0.35553 c 0,1.76107 0.0508,3.50556 0.15245,5.23276 0.0677,0.67733 0.15265,1.35458 0.25425,2.03192 0.1016,0.64346 0.33853,1.26987 0.71106,1.87947 0.23707,0.33867 0.54214,0.60967 0.91468,0.81287 0.37253,0.2032 0.762,0.27082 1.1684,0.20309 0.44027,-0.0339 0.7616,-0.2881 0.9648,-0.76223 0.16933,-0.37253 0.28832,-0.74471 0.35605,-1.11724 0.0677,-0.4064 0.13536,-0.79588 0.20309,-1.16841 l 0.50798,-2.6417 0.50798,-2.6417 c 0.16933,-0.77893 0.3722,-1.5238 0.60926,-2.235 0.23707,-0.7112 0.57621,-1.40575 1.01648,-2.08308 0.0677,-0.0677 0.10128,-0.135355 0.10128,-0.203088 0.0339,-0.1016 0.11879,-0.152446 0.25425,-0.152446 0.0677,0.06773 0.10129,0.169425 0.10129,0.304894 v 1.87947 c 0.0339,0.6096 0.0171,1.23652 -0.0506,1.87999 l -0.20308,3.45405 c -0.0677,1.1176 -0.0677,2.25246 0,3.40393 l 0.10128,1.52394 c 0.0339,0.50799 0.10201,0.99864 0.20361,1.47277 0.27093,1.04987 0.71125,1.91373 1.32085,2.59106 0.6096,0.64347 1.45616,1.10056 2.53989,1.37149 1.2192,0.33867 2.15017,-0.0335 2.79363,-1.11724 0.2032,-0.3048 0.37251,-0.60988 0.50798,-0.91467 l 0.5085,-1.01596 c 0.46078,-1.01858 0.85916,-2.05503 1.19837,-3.10834 0.18235,1.01474 0.47666,2.01682 0.88419,3.00653 0.508,1.25307 1.35456,2.04931 2.53989,2.38797 0.98214,0.23707 1.94717,0.203 2.89543,-0.1018 0.64347,-0.2032 1.08379,-0.5759 1.32085,-1.11776 l 0.66043,-1.32085 c 0.23706,-0.44027 0.44045,-0.89736 0.60978,-1.37149 0.47413,-1.2192 0.9653,-2.42117 1.4733,-3.6065 0.50799,-1.2192 0.98186,-2.43846 1.42213,-3.65766 0.0677,-0.0677 0.1018,-0.15265 0.1018,-0.25425 0.0339,-0.1016 0.11827,-0.186 0.25373,-0.25373 0.0677,0.2032 0.10181,0.40607 0.10181,0.60927 v 0.55913 c 0.0677,1.08374 0.1018,2.18401 0.1018,3.30161 v 3.30213 c 0,0.47413 -0.18661,0.89767 -0.55914,1.2702 l -2.33681,2.23501 -2.33681,2.23552 c -0.91439,0.88053 -1.77774,1.79472 -2.59054,2.74299 -0.81279,0.98213 -1.54089,2.0153 -2.18436,3.09903 -0.33866,0.57573 -0.60967,1.1513 -0.81287,1.72703 -0.2032,0.57573 -0.27082,1.20214 -0.20309,1.87947 0.1016,0.948266 0.37209,1.743976 0.81236,2.387446 0.44026,0.67733 1.20243,1.15172 2.28616,1.42266 0.508,0.13546 1.01594,0.21986 1.52394,0.25373 0.54187,0.0339 1.08387,0.0339 1.62574,0 1.76107,-0.0339 3.31895,-0.66028 4.67362,-1.87948 2.16746,-1.896526 3.55604,-4.284196 4.16563,-7.162866 0.2032,-0.77893 0.33845,-1.57465 0.40618,-2.38745 0.1016,-0.77893 0.18652,-1.57465 0.25425,-2.38745 0.0677,-1.18533 0.10129,-2.33697 0.10129,-3.45457 0.0339,-1.15147 3.1e-4,-2.31988 -0.10129,-3.50521 0,-0.44027 0.13524,-0.81296 0.40618,-1.11776 0.33866,-0.33867 0.66051,-0.69407 0.96531,-1.0666 0.3048,-0.4064 0.60987,-0.79588 0.91467,-1.16841 l 1.11725,-1.52394 c 0.4064,-0.508 0.74502,-1.06678 1.01596,-1.67638 0.16933,-0.37253 0.0341,-0.60947 -0.40618,-0.71107 -0.33867,-0.0677 -0.59289,0.0167 -0.76223,0.25373 -0.1016,0.16934 -0.22006,0.32187 -0.35553,0.45734 -0.1016,0.1016 -0.186,0.23684 -0.25373,0.40618 -0.37253,0.54186 -0.74523,1.06709 -1.11776,1.57509 -0.33867,0.47414 -0.74492,0.94801 -1.21905,1.42214 -0.0677,0.0677 -0.11858,0.13535 -0.15245,0.20309 -0.0339,0.0677 -0.11878,0.085 -0.25424,0.0512 -0.13547,-0.88053 -0.25394,-1.77795 -0.35554,-2.69234 -0.1016,-0.9144 -0.20329,-1.81181 -0.30489,-2.69235 -0.0677,-0.54186 -0.15213,-1.06709 -0.25373,-1.57509 -0.1016,-0.508 -0.23736,-1.01594 -0.40669,-1.52394 -0.27094,-0.812802 -0.79565,-1.371587 -1.57458,-1.676386 -0.0677,-0.03387 -0.15265,-0.06794 -0.25425,-0.101803 l -0.20309,-0.101286 c -0.54187,-0.237066 -0.94811,-0.101822 -1.21905,0.406177 -0.16933,0.338666 -0.30509,0.677292 -0.40669,1.015959 -0.1016,0.304799 -0.20278,0.643429 -0.30437,1.015959 -0.13547,0.47413 -0.25394,0.94852 -0.35554,1.42265 -0.1016,0.47413 -0.23736,0.948 -0.40669,1.42214 -0.84667,2.81093 -1.99831,5.53723 -3.45457,8.17883 -0.23707,0.47413 -0.49078,0.93174 -0.76171,1.37201 -0.23707,0.4064 -0.4913,0.8462 -0.76223,1.32033 l -0.20309,-0.20309 c -0.0339,-0.13547 -0.0679,-0.25393 -0.1018,-0.35553 0,-0.1016 -0.0168,-0.22007 -0.0506,-0.35554 -0.4064,-1.89653 -0.59249,-3.77626 -0.55863,-5.63893 0.0339,-0.77893 0.0506,-1.54058 0.0506,-2.28565 l 0.1018,-2.23552 c 0.0339,-0.27093 0.0506,-0.50787 0.0506,-0.71107 0.0339,-0.23706 0.0507,-0.474 0.0507,-0.71107 0.0677,-0.54186 0.1018,-1.08387 0.1018,-1.62574 0.0339,-0.541863 0.0847,-1.100648 0.15244,-1.676381 0.0339,-0.507999 -0.18629,-0.863402 -0.66042,-1.066601 -1.28693,-0.541866 -2.59111,-0.55916 -3.91191,-0.05116 -0.47413,0.2032 -0.71106,0.541826 -0.71106,1.015959 l -0.10129,0.711584 c -0.0339,0.2032 -0.0679,0.422842 -0.1018,0.659908 -0.37254,2.506131 -0.52507,5.012271 -0.45734,7.518401 0.0116,0.2148 0.0257,0.42747 0.0393,0.64027 -0.0298,0.0916 -0.0589,0.18382 -0.0899,0.27441 -0.37254,1.1176 -0.77878,2.2011 -1.21905,3.25096 -0.44027,1.04987 -0.99905,2.06626 -1.67638,3.04839 -0.16934,0.23707 -0.33865,0.45723 -0.50798,0.66043 -0.16934,0.2032 -0.38949,0.40606 -0.66043,0.60926 -0.13546,-0.54186 -0.20309,-1.06658 -0.20309,-1.57458 0,-0.57573 0.0168,-1.11774 0.0507,-1.62574 0.0339,-0.54186 0.0847,-1.10065 0.15244,-1.67638 0.1016,-1.28693 0.186,-2.57382 0.25373,-3.86075 0.0677,-1.28693 0.0677,-2.57381 0,-3.86074 -0.0339,-0.57574 -0.11826,-1.1513 -0.25373,-1.72703 -0.13546,-0.6096 -0.35562,-1.18568 -0.66042,-1.727544 -0.67733,-1.219199 -1.65966,-1.998142 -2.94659,-2.336808 -0.47414,-0.1016 -0.93123,-0.1016 -1.37149,0 -0.4064,0.1016 -0.76181,0.372604 -1.06661,0.81287 -0.2032,0.270933 -0.3898,0.558714 -0.55914,0.863513 -0.16933,0.270933 -0.30457,0.576007 -0.40617,0.914673 -0.13547,0.372536 -0.27123,0.762006 -0.4067,1.168406 -0.1016,0.4064 -0.22006,0.81265 -0.35553,1.21905 -0.0339,0.1016 -0.0506,0.20329 -0.0506,0.30489 0,0.1016 -0.0676,0.18599 -0.20309,0.25373 -0.0339,-0.1016 -0.0679,-0.186 -0.1018,-0.25373 -0.0339,-0.1016 -0.0679,-0.18652 -0.10181,-0.25425 -0.23706,-0.88053 -0.64331,-1.55779 -1.21904,-2.03192 -0.54187,-0.507998 -1.2359,-0.863401 -2.08256,-1.066601 -1.016,-0.237066 -1.87986,0.01664 -2.59106,0.761711 -0.57573,0.64347 -1.03283,1.32072 -1.37149,2.03192 -0.27094,0.57573 -0.52516,1.16858 -0.76223,1.77818 -0.23707,0.6096 -0.45671,1.21923 -0.65991,1.82883 -0.0677,0.16934 -0.11858,0.33865 -0.15244,0.50798 -0.0339,0.13547 -0.10201,0.28801 -0.20361,0.45734 -0.0677,-0.0677 -0.10128,-0.11858 -0.10128,-0.15245 v -0.15244 c -0.0339,-0.77893 -0.0171,-1.55788 0.0506,-2.33681 l 0.20309,-2.43861 c 0.0677,-0.37253 0.1018,-0.74471 0.1018,-1.11725 0.0339,-0.4064 0.11826,-0.795868 0.25373,-1.168401 0.1016,-0.406399 -0.0169,-0.745025 -0.35553,-1.015958 -1.016,-0.846666 -2.13357,-1.219361 -3.35277,-1.117761 -0.508,0.06773 -0.81256,0.338737 -0.91416,0.81287 -0.0677,0.237066 -0.11857,0.474001 -0.15244,0.711068 -0.0339,0.237066 -0.0679,0.491294 -0.1018,0.762227 -0.16934,1.388535 -0.30458,2.759815 -0.40618,4.114475 -0.06,1.20054 -0.11981,2.41968 -0.17983,3.64681 -0.2682,0.60337 -0.59749,1.16579 -0.98857,1.68723 -0.57574,0.7112 -1.32061,1.28728 -2.23501,1.72755 -0.0677,-0.13547 -0.1018,-0.25445 -0.1018,-0.35605 l 0.1018,-0.30438 c 0.13547,-0.77893 0.23664,-1.57517 0.30437,-2.38797 0.0677,-0.81279 0.10181,-1.62529 0.10181,-2.43809 0,-0.9144 -0.10169,-1.8291 -0.30489,-2.7435 -0.27094,-1.3208 -0.82972,-2.35345 -1.67639,-3.098521 -0.8128,-0.778932 -1.82868,-1.388562 -3.04787,-1.828828 -0.44027,-0.135467 -0.89736,-0.203089 -1.3715,-0.203089 -0.44026,0 -0.89787,-0.03407 -1.37201,-0.101802 -0.88053,-0.1016 -1.65947,0.01687 -2.3368,0.355533 -0.64347,0.338667 -1.20225,0.846606 -1.67639,1.523938 -0.77893,1.049869 -1.33771,2.184729 -1.67638,3.403929 -0.33867,1.18533 -0.52476,2.42137 -0.55862,3.7083 -3e-5,8.6e-4 2e-5,0.002 0,0.003 -0.13743,0.43251 -0.28887,0.85529 -0.45734,1.26711 -0.3048,0.74507 -0.60936,1.50723 -0.91416,2.28616 -0.4064,1.18534 -0.96518,2.28613 -1.67638,3.30213 l -0.50798,0.71107 c -0.16933,0.2032 -0.37271,0.38929 -0.60978,0.55862 -0.16933,-0.13547 -0.2878,-0.27071 -0.35553,-0.40618 -0.0677,-0.13546 -0.13536,-0.288 -0.20309,-0.45733 -0.37254,-0.77894 -0.74523,-1.54059 -1.11776,-2.28565 -0.37254,-0.77894 -0.76201,-1.55788 -1.16841,-2.33681 -0.33866,-0.57573 -0.72814,-1.11774 -1.1684,-1.62574 -0.4064,-0.54187 -0.89756,-0.99896 -1.4733,-1.37149 -0.13546,-0.13547 -0.20309,-0.23716 -0.20309,-0.3049 1.08374,-0.3048 2.03199,-0.79596 2.84479,-1.47329 0.8128,-0.67733 1.55768,-1.45628 2.23501,-2.33681 0.84666,-1.15146 1.49036,-2.353949 1.93063,-3.607014 0.44027,-1.286932 0.76212,-2.641436 0.96532,-4.063835 0.30479,-2.235198 -0.0511,-4.402714 -1.06712,-6.502445 -0.4064,-0.8127996 -0.93112,-1.4392056 -1.57458,-1.8794716 -0.64347,-0.474133 -1.40564,-0.812759 -2.28617,-1.015959 -0.98213,-0.2032 -1.87954,0.08458 -2.69234,0.863513 -0.47413,0.474133 -0.91445,0.965296 -1.32085,1.473295 -0.37253,0.5079996 -0.74471,1.0327146 -1.11725,1.5745806 -0.71119,1.117599 -1.33812,2.269238 -1.87998,3.45457 -0.508,1.185332 -0.9651,2.421368 -1.3715,3.708301 -0.0677,0.169333 -0.11858,0.355939 -0.15244,0.559139 -0.0339,0.169333 -0.13556,0.355422 -0.30489,0.558622 0.0339,-0.169333 0.0512,-0.305094 0.0512,-0.406694 v -0.253731 c 0.1016,-1.083732 0.23684,-2.150456 0.40617,-3.200322 0.2032,-1.083732 0.44014,-2.167748 0.71107,-3.251481 0.13547,-0.575732 0.288,-1.151293 0.45734,-1.727026 0.16933,-0.575733 0.38949,-1.1512936 0.66042,-1.7270256 0.13547,-0.270933 0.18631,-0.474316 0.15245,-0.609782 0,-0.169333 -0.11847,-0.355423 -0.35554,-0.558623 -0.77893,-0.677332 -1.59194,-1.033251 -2.43861,-1.067118 -0.0508,-0.0042 -0.10139,-0.0067 -0.15193,-0.0072 z m 9.09299,2.953825 c 0.16933,0.270933 0.25373,0.5419376 0.25373,0.8128706 0.0339,0.270933 0.0512,0.541937 0.0512,0.81287 0.3048,3.962396 -0.57583,7.704575 -2.6417,11.226705 -0.77893,1.286931 -1.76126,2.353651 -2.94659,3.200321 -0.8128,0.47413 -1.64259,0.76191 -2.48925,0.86351 0.0339,-0.47413 0.0679,-0.91445 0.1018,-1.32085 0.0677,-0.44026 0.15213,-0.86329 0.25373,-1.26969 0.23707,-1.08373 0.47452,-2.150969 0.71159,-3.200834 0.27093,-1.083733 0.62633,-2.150456 1.0666,-3.200322 0.47413,-1.151465 0.98207,-2.269034 1.52393,-3.352767 0.54187,-1.083732 1.25319,-2.082834 2.13372,-2.997233 0.508,-0.575733 1.16848,-1.100448 1.98128,-1.5745806 z m 15.01149,11.6235796 c 0.0254,-0.0021 0.0506,8.35e-4 0.076,0.0093 0.13547,0.03387 0.25393,0.08471 0.35553,0.152445 1.18534,0.575733 1.96428,1.541282 2.33681,2.895952 0.3048,1.1176 0.45734,2.33686 0.45734,3.65766 0,0.16933 -0.0168,0.38949 -0.0506,0.66042 0,0.27093 -0.0173,0.54142 -0.0512,0.81235 l -0.10129,0.3049 c 0,0.0677 -0.0681,0.085 -0.2036,0.0512 -0.2032,-0.0677 -0.40607,-0.085 -0.60927,-0.0512 -0.2032,0.0339 -0.37251,0.15233 -0.50798,0.35553 -0.33867,0.44027 -0.45713,0.99905 -0.35553,1.67638 0.0339,0.44027 0.25402,0.86381 0.66042,1.27021 0.2032,0.23707 0.25405,0.54162 0.15245,0.91416 l -0.4067,1.01647 c -0.1016,0.3048 -0.23684,0.60936 -0.40617,0.91416 -0.16934,0.33866 -0.38949,0.64374 -0.66043,0.91467 -0.23706,0.27093 -0.54214,0.49057 -0.91467,0.65991 -0.27093,0.13546 -0.4738,0.18631 -0.60927,0.15244 -0.1016,-0.0339 -0.23736,-0.16911 -0.40669,-0.40617 -0.16933,-0.23707 -0.32187,-0.45723 -0.45734,-0.66043 -0.13546,-0.23706 -0.27071,-0.49129 -0.40617,-0.76223 -1.35467,-3.21733 -1.6089,-6.43427 -0.76223,-9.6516 0.16933,-0.67734 0.37272,-1.32103 0.60978,-1.93063 0.27094,-0.6096 0.62634,-1.20246 1.0666,-1.778193 0.13547,-0.169333 0.28801,-0.338646 0.45734,-0.507979 l 0.50798,-0.50798 c 0.0762,-0.101599 0.15273,-0.155397 0.22893,-0.161747 z M 268.236,38.901132 c -0.0677,0.77893 -0.15213,1.54058 -0.25373,2.28565 -0.0677,0.74506 -0.15264,1.47316 -0.25424,2.18436 -0.2032,1.28693 -0.54183,2.65873 -1.01596,4.11499 -0.33867,1.08374 -0.84661,2.03199 -1.52394,2.84479 -0.64347,0.8128 -1.40563,1.557666 -2.28617,2.235006 -0.27093,0.2032 -0.55871,0.33896 -0.86351,0.40669 -0.3048,0.0677 -0.60936,0.11858 -0.91416,0.15245 -0.33866,0 -0.59289,-0.15254 -0.76222,-0.45734 -0.3048,-0.57573 -0.47412,-1.08367 -0.50798,-1.523936 -0.1016,-1.3208 0.15263,-2.54006 0.76222,-3.65766 0.4064,-0.7112 0.84672,-1.40522 1.32085,-2.08256 0.508,-0.67733 1.0495,-1.30425 1.62523,-1.87999 0.7112,-0.77893 1.42252,-1.5238 2.13372,-2.235 0.74506,-0.7112 1.49045,-1.4393 2.23552,-2.18436 z" />
  </g>
</svg>
