<?xml version="1.0" encoding="UTF-8" standalone="no"?>
<!-- Created with Inkscape (http://www.inkscape.org/) -->

<svg
   width="600mm"
   height="300mm"
   viewBox="0 0 600 300"
   version="1.1"
   id="svg316"
   inkscape:version="1.2 (dc2aedaf03, 2022-05-15)"
   sodipodi:docname="Parts G.svg"
   xmlns:inkscape="http://www.inkscape.org/namespaces/inkscape"
   xmlns:sodipodi="http://sodipodi.sourceforge.net/DTD/sodipodi-0.dtd"
   xmlns="http://www.w3.org/2000/svg"
   xmlns:svg="http://www.w3.org/2000/svg">
  <sodipodi:namedview
     id="namedview318"
     pagecolor="#ffffff"
     bordercolor="#000000"
     borderopacity="0.25"
     inkscape:showpageshadow="2"
     inkscape:pageopacity="0.0"
     inkscape:pagecheckerboard="0"
     inkscape:deskcolor="#d1d1d1"
     inkscape:document-units="mm"
     showgrid="false"
     inkscape:zoom="0.5946522"
     inkscape:cx="311.10623"
     inkscape:cy="460.77354"
     inkscape:window-width="1920"
     inkscape:window-height="1017"
     inkscape:window-x="-8"
     inkscape:window-y="-8"
     inkscape:window-maximized="1"
     inkscape:current-layer="layer1" />
  <defs
     id="defs313" />
  <g
     inkscape:label="Layer 1"
     inkscape:groupmode="layer"
     id="layer1">
    <path
       id="path571-2"
       style="fill:none;stroke:#ff0000;stroke-width:0.1;stroke-linejoin:round"
       d="m 180.09802,186.26949 a 1.45,1.45 0 0 1 -1.44694,1.37356 1.45,1.45 0 0 1 -1.4459,-1.34566 45,45.25 0 0 0 -43.55445,45.19569 45,45.25 0 0 0 45.00035,45.24995 45,45.25 0 0 0 44.99984,-45.24995 45,45.25 0 0 0 -43.5529,-45.22359 z" />
    <path
       id="path571-2-1"
       style="fill:none;stroke:#0000ff;stroke-width:0.1;stroke-linejoin:round;stroke-opacity:1"
       d="m 69.933464,194.43433 a 1.45,1.45 0 0 1 -1.44694,1.37356 1.45,1.45 0 0 1 -1.4459,-1.34566 45,45.25 0 0 0 -43.55445,45.19569 45,45.25 0 0 0 45.00035,45.24994 45,45.25 0 0 0 44.999846,-45.24994 45,45.25 0 0 0 -43.552906,-45.22359 z" />
    <path
       sodipodi:type="star"
       style="fill:none;stroke:#ff0000;stroke-width:0.111469;stroke-dashoffset:43.7995;stroke-opacity:1;paint-order:markers fill stroke"
       id="path8648"
       inkscape:flatsided="false"
       sodipodi:sides="60"
       sodipodi:cx="76.974266"
       sodipodi:cy="144.1599"
       sodipodi:r1="55.756996"
       sodipodi:r2="57.481438"
       sodipodi:arg1="0.69771151"
       sodipodi:arg2="0.75007139"
       inkscape:rounded="0.01"
       inkscape:randomized="0"
       d="m 119.70166,179.98185 c -0.022,0.0263 -0.64829,3.33754 -0.67166,3.36263 -0.0234,0.0251 -3.28216,0.88353 -3.30682,0.90736 -0.0247,0.0238 -0.9936,3.25149 -1.01947,3.274 -0.0259,0.0225 -3.35654,0.53562 -3.38355,0.55674 -0.027,0.0211 -1.32803,3.12982 -1.35611,3.1495 -0.0281,0.0197 -3.39414,0.18183 -3.42321,0.20001 -0.0291,0.0182 -1.64791,2.97385 -1.6779,2.99049 -0.03,0.0166 -3.39455,-0.17395 -3.42536,-0.1589 -0.0308,0.015 -1.949737,2.78531 -1.981296,2.79872 -0.03156,0.0134 -3.357771,-0.52782 -3.389988,-0.51608 -0.03222,0.0117 -2.2302,2.56624 -2.262988,2.57628 -0.03279,0.01 -3.284204,-0.87591 -3.317472,-0.8676 -0.03327,0.008 -2.486229,2.31907 -2.519886,2.32563 -0.03366,0.007 -3.174655,-1.21441 -3.20861,-1.20963 -0.03396,0.005 -2.715017,2.04649 -2.749176,2.04949 -0.03416,0.003 -3.030324,-1.5396 -3.064593,-1.53839 -0.03427,0.001 -2.914059,1.75148 -2.948345,1.7509 -0.03428,-5.9e-4 -2.852792,-1.84792 -2.887,-1.8503 -0.03421,-0.002 -3.081175,1.43728 -3.115211,1.43312 -0.03404,-0.004 -2.644004,-2.136 -2.677776,-2.14194 -0.03377,-0.006 -3.214533,1.10734 -3.247948,1.09964 -0.03341,-0.008 -2.406248,-2.40067 -2.439214,-2.41011 -0.03297,-0.009 -3.312671,0.76526 -3.345098,0.75411 -0.03243,-0.0111 -2.142128,-2.63903 -2.173927,-2.65186 -0.0318,-0.0128 -3.374515,0.41479 -3.405599,0.40031 -0.03108,-0.0145 -1.854539,-2.84849 -1.884823,-2.86457 -0.03028,-0.0161 -3.399387,0.0598 -3.428787,0.0421 -0.0294,-0.0177 -1.546631,-3.02674 -1.575068,-3.0459 -0.02844,-0.0192 -3.387015,-0.29587 -3.414409,-0.31649 -0.02739,-0.0206 -1.221778,-3.17183 -1.248056,-3.19386 -0.02628,-0.022 -3.337534,-0.64829 -3.362622,-0.67166 -0.02509,-0.0234 -0.88354,-3.28216 -0.90737,-3.30682 -0.02383,-0.0247 -3.251487,-0.9936 -3.273994,-1.01947 -0.02251,-0.0259 -0.53562,-3.35654 -0.556743,-3.38355 -0.02112,-0.027 -3.129814,-1.32803 -3.149494,-1.35611 -0.01968,-0.0281 -0.181833,-3.39414 -0.200016,-3.42321 -0.01818,-0.0291 -2.973852,-1.64791 -2.990489,-1.6779 -0.01664,-0.03 0.173948,-3.39455 0.158903,-3.42536 -0.01504,-0.0308 -2.785308,-1.94974 -2.798719,-1.9813 -0.01341,-0.0316 0.527821,-3.35777 0.51608,-3.38998 -0.01174,-0.0322 -2.566246,-2.2302 -2.576286,-2.26299 -0.01004,-0.0328 0.875913,-3.28421 0.867604,-3.31747 -0.0083,-0.0333 -2.319069,-2.48623 -2.325626,-2.51989 -0.0066,-0.0337 1.214407,-3.17465 1.209621,-3.20861 -0.0048,-0.034 -2.046483,-2.71502 -2.049486,-2.74918 -0.003,-0.0342 1.539596,-3.03032 1.538385,-3.06459 -0.0012,-0.0343 -1.751475,-2.91406 -1.750891,-2.94834 5.84e-4,-0.0343 1.847917,-2.85279 1.850295,-2.887 0.0024,-0.0342 -1.437279,-3.08118 -1.433114,-3.11521 0.0042,-0.034 2.135992,-2.64401 2.141932,-2.67778 0.0059,-0.0338 -1.107334,-3.21453 -1.099634,-3.24795 0.0077,-0.0334 2.400664,-2.40625 2.410102,-2.43921 0.0094,-0.033 -0.765258,-3.31267 -0.754108,-3.3451 0.01115,-0.0324 2.639035,-2.14213 2.651868,-2.17393 0.01283,-0.0318 -0.414798,-3.37451 -0.400319,-3.4056 0.01448,-0.0311 2.848491,-1.85454 2.864577,-1.88482 0.01608,-0.0303 -0.05979,-3.39939 -0.04214,-3.42879 0.01765,-0.0294 3.026739,-1.54663 3.045902,-1.57506 0.01916,-0.0284 0.295868,-3.38702 0.316493,-3.41441 0.02062,-0.0274 3.171826,-1.22178 3.193856,-1.24806 0.02203,-0.0263 0.648287,-3.33753 0.671662,-3.36262 0.02338,-0.0251 3.282161,-0.88354 3.306817,-0.90737 0.02466,-0.0238 0.993603,-3.25149 1.019473,-3.274 0.02587,-0.0225 3.356535,-0.53562 3.383548,-0.55674 0.02701,-0.0211 1.328032,-3.129813 1.356113,-3.149493 0.02808,-0.01968 3.394135,-0.181832 3.423208,-0.200015 0.02907,-0.01818 1.647912,-2.973852 1.677896,-2.990489 0.02998,-0.01664 3.394549,0.173947 3.425362,0.158903 0.03081,-0.01505 1.949737,-2.785308 1.981296,-2.79872 0.03156,-0.01341 3.357771,0.527822 3.389988,0.516081 0.03222,-0.01174 2.2302,-2.566247 2.262988,-2.576286 0.03279,-0.01004 3.284204,0.875913 3.317472,0.867603 0.03327,-0.0083 2.486229,-2.319068 2.519886,-2.325625 0.03366,-0.0066 3.174655,1.214407 3.20861,1.20962 0.03396,-0.0048 2.715017,-2.046483 2.749176,-2.049485 0.03416,-0.003 3.030324,1.539596 3.064593,1.538385 0.03427,-0.0012 2.91406,-1.751476 2.948345,-1.750892 0.03429,5.84e-4 2.852792,1.847918 2.887,1.850296 0.03421,0.0024 3.081175,-1.437279 3.115212,-1.433114 0.03404,0.0042 2.644003,2.135992 2.677775,2.141932 0.03377,0.0059 3.214533,-1.107334 3.247948,-1.099635 0.03341,0.0077 2.406248,2.400665 2.439214,2.410103 0.03297,0.0094 3.312671,-0.765258 3.345098,-0.754108 0.03243,0.01115 2.142128,2.639035 2.173927,2.651867 0.0318,0.01283 3.37452,-0.414797 3.4056,-0.400319 0.0311,0.01448 1.85454,2.848492 1.88482,2.864578 0.0303,0.01609 3.39939,-0.05979 3.42879,-0.04214 0.0294,0.01765 1.54663,3.026739 1.57507,3.045902 0.0284,0.01916 3.38701,0.295868 3.41441,0.316493 0.0274,0.02062 1.22177,3.171822 1.24805,3.193852 0.0263,0.022 3.33754,0.64829 3.36262,0.67167 0.0251,0.0234 0.88354,3.28216 0.90737,3.30681 0.0238,0.0247 3.25149,0.99361 3.274,1.01948 0.0225,0.0259 0.53562,3.35653 0.55674,3.38354 0.0211,0.027 3.12982,1.32804 3.1495,1.35612 0.0197,0.0281 0.18183,3.39413 0.20001,3.4232 0.0182,0.0291 2.97385,1.64792 2.99049,1.6779 0.0166,0.03 -0.17395,3.39455 -0.1589,3.42536 0.015,0.0308 2.7853,1.94974 2.79872,1.9813 0.0134,0.0316 -0.52783,3.35777 -0.51608,3.38999 0.0117,0.0322 2.56624,2.2302 2.57628,2.26298 0.01,0.0328 -0.87591,3.28421 -0.8676,3.31748 0.008,0.0333 2.31907,2.48623 2.32562,2.51988 0.007,0.0337 -1.2144,3.17466 -1.20962,3.20861 0.005,0.034 2.04649,2.71502 2.04949,2.74918 0.003,0.0342 -1.5396,3.03032 -1.53839,3.06459 0.001,0.0343 1.75148,2.91406 1.7509,2.94835 -5.9e-4,0.0343 -1.84792,2.85279 -1.8503,2.887 -0.002,0.0342 1.43728,3.08117 1.43311,3.11521 -0.004,0.034 -2.13599,2.644 -2.14193,2.67777 -0.006,0.0338 1.10734,3.21454 1.09964,3.24795 -0.008,0.0334 -2.40067,2.40625 -2.41011,2.43922 -0.009,0.033 0.76526,3.31267 0.75411,3.34509 -0.0111,0.0324 -2.63903,2.14213 -2.65187,2.17393 -0.0128,0.0318 0.4148,3.37452 0.40032,3.4056 -0.0145,0.0311 -2.84849,1.85454 -2.86457,1.88482 -0.0161,0.0303 0.0598,3.39939 0.0421,3.42879 -0.0176,0.0294 -3.02674,1.54663 -3.0459,1.57507 -0.0192,0.0284 -0.29587,3.38701 -0.3165,3.41441 -0.0206,0.0274 -3.17182,1.22178 -3.19385,1.24805 z"
       inkscape:transform-center-y="-2.2280308e-06"
       transform="matrix(0.89711313,0,0,0.89711313,-0.56835636,110.34336)" />
    <path
       sodipodi:type="star"
       style="fill:none;stroke:#ff0000;stroke-width:0.111469;stroke-dashoffset:43.7995;stroke-opacity:1;paint-order:markers fill stroke"
       id="path8648-0"
       inkscape:flatsided="false"
       sodipodi:sides="60"
       sodipodi:cx="76.974266"
       sodipodi:cy="144.1599"
       sodipodi:r1="55.756996"
       sodipodi:r2="57.481438"
       sodipodi:arg1="0.69771151"
       sodipodi:arg2="0.75007139"
       inkscape:rounded="0.01"
       inkscape:randomized="0"
       d="m 119.70166,179.98185 c -0.022,0.0263 -0.64829,3.33754 -0.67166,3.36263 -0.0234,0.0251 -3.28216,0.88353 -3.30682,0.90736 -0.0247,0.0238 -0.9936,3.25149 -1.01947,3.274 -0.0259,0.0225 -3.35654,0.53562 -3.38355,0.55674 -0.027,0.0211 -1.32803,3.12982 -1.35611,3.1495 -0.0281,0.0197 -3.39414,0.18183 -3.42321,0.20001 -0.0291,0.0182 -1.64791,2.97385 -1.6779,2.99049 -0.03,0.0166 -3.39455,-0.17395 -3.42536,-0.1589 -0.0308,0.015 -1.949737,2.78531 -1.981296,2.79872 -0.03156,0.0134 -3.357771,-0.52782 -3.389988,-0.51608 -0.03222,0.0117 -2.2302,2.56624 -2.262988,2.57628 -0.03279,0.01 -3.284204,-0.87591 -3.317472,-0.8676 -0.03327,0.008 -2.486229,2.31907 -2.519886,2.32563 -0.03366,0.007 -3.174655,-1.21441 -3.20861,-1.20963 -0.03396,0.005 -2.715017,2.04649 -2.749176,2.04949 -0.03416,0.003 -3.030324,-1.5396 -3.064593,-1.53839 -0.03427,0.001 -2.914059,1.75148 -2.948345,1.7509 -0.03428,-5.9e-4 -2.852792,-1.84792 -2.887,-1.8503 -0.03421,-0.002 -3.081175,1.43728 -3.115211,1.43312 -0.03404,-0.004 -2.644004,-2.136 -2.677776,-2.14194 -0.03377,-0.006 -3.214533,1.10734 -3.247948,1.09964 -0.03341,-0.008 -2.406248,-2.40067 -2.439214,-2.41011 -0.03297,-0.009 -3.312671,0.76526 -3.345098,0.75411 -0.03243,-0.0111 -2.142128,-2.63903 -2.173927,-2.65186 -0.0318,-0.0128 -3.374515,0.41479 -3.405599,0.40031 -0.03108,-0.0145 -1.854539,-2.84849 -1.884823,-2.86457 -0.03028,-0.0161 -3.399387,0.0598 -3.428787,0.0421 -0.0294,-0.0177 -1.546631,-3.02674 -1.575068,-3.0459 -0.02844,-0.0192 -3.387015,-0.29587 -3.414409,-0.31649 -0.02739,-0.0206 -1.221778,-3.17183 -1.248056,-3.19386 -0.02628,-0.022 -3.337534,-0.64829 -3.362622,-0.67166 -0.02509,-0.0234 -0.88354,-3.28216 -0.90737,-3.30682 -0.02383,-0.0247 -3.251487,-0.9936 -3.273994,-1.01947 -0.02251,-0.0259 -0.53562,-3.35654 -0.556743,-3.38355 -0.02112,-0.027 -3.129814,-1.32803 -3.149494,-1.35611 -0.01968,-0.0281 -0.181833,-3.39414 -0.200016,-3.42321 -0.01818,-0.0291 -2.973852,-1.64791 -2.990489,-1.6779 -0.01664,-0.03 0.173948,-3.39455 0.158903,-3.42536 -0.01504,-0.0308 -2.785308,-1.94974 -2.798719,-1.9813 -0.01341,-0.0316 0.527821,-3.35777 0.51608,-3.38998 -0.01174,-0.0322 -2.566246,-2.2302 -2.576286,-2.26299 -0.01004,-0.0328 0.875913,-3.28421 0.867604,-3.31747 -0.0083,-0.0333 -2.319069,-2.48623 -2.325626,-2.51989 -0.0066,-0.0337 1.214407,-3.17465 1.209621,-3.20861 -0.0048,-0.034 -2.046483,-2.71502 -2.049486,-2.74918 -0.003,-0.0342 1.539596,-3.03032 1.538385,-3.06459 -0.0012,-0.0343 -1.751475,-2.91406 -1.750891,-2.94834 5.84e-4,-0.0343 1.847917,-2.85279 1.850295,-2.887 0.0024,-0.0342 -1.437279,-3.08118 -1.433114,-3.11521 0.0042,-0.034 2.135992,-2.64401 2.141932,-2.67778 0.0059,-0.0338 -1.107334,-3.21453 -1.099634,-3.24795 0.0077,-0.0334 2.400664,-2.40625 2.410102,-2.43921 0.0094,-0.033 -0.765258,-3.31267 -0.754108,-3.3451 0.01115,-0.0324 2.639035,-2.14213 2.651868,-2.17393 0.01283,-0.0318 -0.414798,-3.37451 -0.400319,-3.4056 0.01448,-0.0311 2.848491,-1.85454 2.864577,-1.88482 0.01608,-0.0303 -0.05979,-3.39939 -0.04214,-3.42879 0.01765,-0.0294 3.026739,-1.54663 3.045902,-1.57506 0.01916,-0.0284 0.295868,-3.38702 0.316493,-3.41441 0.02062,-0.0274 3.171826,-1.22178 3.193856,-1.24806 0.02203,-0.0263 0.648287,-3.33753 0.671662,-3.36262 0.02338,-0.0251 3.282161,-0.88354 3.306817,-0.90737 0.02466,-0.0238 0.993603,-3.25149 1.019473,-3.274 0.02587,-0.0225 3.356535,-0.53562 3.383548,-0.55674 0.02701,-0.0211 1.328032,-3.129813 1.356113,-3.149493 0.02808,-0.01968 3.394135,-0.181832 3.423208,-0.200015 0.02907,-0.01818 1.647912,-2.973852 1.677896,-2.990489 0.02998,-0.01664 3.394549,0.173947 3.425362,0.158903 0.03081,-0.01505 1.949737,-2.785308 1.981296,-2.79872 0.03156,-0.01341 3.357771,0.527822 3.389988,0.516081 0.03222,-0.01174 2.2302,-2.566247 2.262988,-2.576286 0.03279,-0.01004 3.284204,0.875913 3.317472,0.867603 0.03327,-0.0083 2.486229,-2.319068 2.519886,-2.325625 0.03366,-0.0066 3.174655,1.214407 3.20861,1.20962 0.03396,-0.0048 2.715017,-2.046483 2.749176,-2.049485 0.03416,-0.003 3.030324,1.539596 3.064593,1.538385 0.03427,-0.0012 2.91406,-1.751476 2.948345,-1.750892 0.03429,5.84e-4 2.852792,1.847918 2.887,1.850296 0.03421,0.0024 3.081175,-1.437279 3.115212,-1.433114 0.03404,0.0042 2.644003,2.135992 2.677775,2.141932 0.03377,0.0059 3.214533,-1.107334 3.247948,-1.099635 0.03341,0.0077 2.406248,2.400665 2.439214,2.410103 0.03297,0.0094 3.312671,-0.765258 3.345098,-0.754108 0.03243,0.01115 2.142128,2.639035 2.173927,2.651867 0.0318,0.01283 3.37452,-0.414797 3.4056,-0.400319 0.0311,0.01448 1.85454,2.848492 1.88482,2.864578 0.0303,0.01609 3.39939,-0.05979 3.42879,-0.04214 0.0294,0.01765 1.54663,3.026739 1.57507,3.045902 0.0284,0.01916 3.38701,0.295868 3.41441,0.316493 0.0274,0.02062 1.22177,3.171822 1.24805,3.193852 0.0263,0.022 3.33754,0.64829 3.36262,0.67167 0.0251,0.0234 0.88354,3.28216 0.90737,3.30681 0.0238,0.0247 3.25149,0.99361 3.274,1.01948 0.0225,0.0259 0.53562,3.35653 0.55674,3.38354 0.0211,0.027 3.12982,1.32804 3.1495,1.35612 0.0197,0.0281 0.18183,3.39413 0.20001,3.4232 0.0182,0.0291 2.97385,1.64792 2.99049,1.6779 0.0166,0.03 -0.17395,3.39455 -0.1589,3.42536 0.015,0.0308 2.7853,1.94974 2.79872,1.9813 0.0134,0.0316 -0.52783,3.35777 -0.51608,3.38999 0.0117,0.0322 2.56624,2.2302 2.57628,2.26298 0.01,0.0328 -0.87591,3.28421 -0.8676,3.31748 0.008,0.0333 2.31907,2.48623 2.32562,2.51988 0.007,0.0337 -1.2144,3.17466 -1.20962,3.20861 0.005,0.034 2.04649,2.71502 2.04949,2.74918 0.003,0.0342 -1.5396,3.03032 -1.53839,3.06459 0.001,0.0343 1.75148,2.91406 1.7509,2.94835 -5.9e-4,0.0343 -1.84792,2.85279 -1.8503,2.887 -0.002,0.0342 1.43728,3.08117 1.43311,3.11521 -0.004,0.034 -2.13599,2.644 -2.14193,2.67777 -0.006,0.0338 1.10734,3.21454 1.09964,3.24795 -0.008,0.0334 -2.40067,2.40625 -2.41011,2.43922 -0.009,0.033 0.76526,3.31267 0.75411,3.34509 -0.0111,0.0324 -2.63903,2.14213 -2.65187,2.17393 -0.0128,0.0318 0.4148,3.37452 0.40032,3.4056 -0.0145,0.0311 -2.84849,1.85454 -2.86457,1.88482 -0.0161,0.0303 0.0598,3.39939 0.0421,3.42879 -0.0176,0.0294 -3.02674,1.54663 -3.0459,1.57507 -0.0192,0.0284 -0.29587,3.38701 -0.3165,3.41441 -0.0206,0.0274 -3.17182,1.22178 -3.19385,1.24805 z"
       inkscape:transform-center-y="-2.2280308e-06"
       transform="matrix(-0.89711313,0,0,0.89711313,125.32374,-75.30885)" />
    <g
       aria-label="Close &lt;== Open ==&gt; Close"
       id="text8802"
       style="font-size:8.99999px;line-height:0.8;font-family:Papyrus;-inkscape-font-specification:'Papyrus, Normal';text-align:center;text-anchor:middle;fill:#000000;fill-opacity:1;stroke:none;stroke-width:0.1;stroke-dashoffset:43.7995;paint-order:markers fill stroke"
       transform="translate(-123.69275,-65.850818)">
      <path
         d="m 137.38498,108.71206 q -0.0595,0.0487 -0.10911,0.0309 -0.0207,-0.007 -0.18906,-0.12376 -0.10577,-0.0566 -0.3725,-0.25018 l 0.0513,-0.18234 q -0.0511,-0.0136 -0.1821,1.1e-4 -0.0293,0.004 -0.0665,-0.01 -0.0496,-0.0178 -0.29803,-0.22349 -0.15776,-0.0939 -0.27321,-0.21461 -0.0649,-0.0793 -0.17862,-0.21805 0.029,-0.055 0.0432,-0.0685 0.0429,-0.0546 0.0459,-0.0629 0.0104,-0.029 -0.0159,-0.0991 0.011,-0.0567 3.8e-4,-0.0792 -0.0106,-0.0225 -0.0558,-0.0527 l -0.048,0.0948 -0.16376,-0.012 v 0 q -0.0414,-0.0148 -0.121,-0.18341 -0.0186,-0.0393 -0.059,-0.0958 -0.0717,-0.0864 -0.085,-0.11449 -0.0451,-0.0955 -0.11335,-0.15266 l -0.0186,-0.0393 q -0.0809,-0.11301 -0.0977,-0.17037 -0.0118,-0.0322 -0.0551,-0.21113 l 0.0169,-0.008 -0.0164,-0.13659 -0.0922,-0.0424 -0.23488,-0.68635 q -0.0144,-0.0379 -0.03,-0.15079 l -0.0344,-0.13838 0.008,-0.1138 q -0.0539,-0.20137 -0.0465,-0.22205 0.0133,-0.0372 0.0844,-0.10515 l -0.13232,-0.11277 0.0939,-0.15775 -0.0742,-0.0406 q 0.008,-0.15134 0.007,-0.20278 -0.005,-0.16968 0.0364,-0.32306 l 0.007,-0.13745 q 0.0229,-0.15517 0.0206,-0.17468 -0.003,-0.0432 -0.0389,-0.12597 0.0249,-0.0564 0.0397,-0.0978 0.0178,-0.0496 0.0203,-0.22612 0.002,-0.0695 0.0282,-0.14393 0.0222,-0.062 0.0595,-0.11404 0.0287,-0.0411 0.029,-0.055 l 0.18061,-0.55615 q 0.0646,-0.15424 0.25684,-0.23474 0.1319,-0.0554 0.13931,-0.0761 0.0267,-0.0745 -0.12335,-0.20291 0.13431,-0.10126 0.16692,-0.19227 0.0104,-0.029 0.0166,-0.0594 0.0152,-0.12059 0.0152,-0.12059 l 0.0929,-0.11608 q 0.33634,-0.49567 0.46299,-0.62768 l 0.12411,0.0445 -0.001,0.004 q 0.0425,0.0899 0.0572,0.11387 0.10649,0.21088 0.0887,0.26052 -0.0148,0.0414 -0.1027,0.11725 -0.17964,0.20171 -0.40104,0.46782 l -0.15579,0.005 q -0.0131,0.0887 -0.0137,0.11645 -0.003,0.0736 -0.007,0.086 -0.006,0.0165 -0.18323,0.23777 -0.0556,0.0641 -0.092,0.0744 -0.0364,0.0103 -0.0713,0.0165 0.005,0.15579 -0.008,0.19303 l -0.0845,0.2358 -0.1186,0.33096 -0.0495,0.099 q -0.0377,0.19654 -0.0319,0.31065 l -0.0615,0.26273 q -0.0247,0.1732 -0.0408,0.27014 -0.01,0.0526 0.0125,0.18654 l 0.021,0.24094 0.05,0.18599 q 0.0246,0.51764 0.17924,0.75045 -0.008,0.1138 0.0284,0.28558 0.0497,0.0178 0.0892,0.0506 0.0117,0.0976 0.0993,0.283 l 0.0554,0.1319 q 0.12515,0.18488 0.13249,0.22953 0.0115,0.0461 -3.8e-4,0.0792 -0.006,0.0165 -0.0219,0.0482 0.0544,-0.009 0.0668,-0.004 0.0124,0.004 0.27073,0.32575 0.10915,0.2165 0.13748,0.25466 0.0204,0.0213 0.18517,0.17372 l 0.17572,0.161 0.10663,0.0802 q 0.1612,0.18847 0.25011,0.25301 0.0603,0.0403 0.22895,0.14272 0.22184,0.14951 0.2437,0.16668 0.0535,0.0332 0.0338,0.16617 0.11201,0.0261 0.21198,-0.0314 0.0927,0.0799 0.12583,0.0918 0.091,0.0326 0.2394,0.0484 0.0139,3.1e-4 0.018,0.002 0.0372,0.0133 0.0404,0.0565 l 0.007,0.3713 q -9.3e-4,0.0417 0.0322,0.0535 0.0166,0.006 0.0529,-0.004 0.11739,-0.028 0.16882,-0.0282 0.0987,-0.002 0.10584,-0.009 0.10708,-0.0643 0.21977,-0.13132 l 0.2155,-0.002 q 0.0724,-0.007 0.16228,0.0161 l -0.009,0.0248 0.14955,0.0256 0.0373,-0.052 q 0.0949,-0.0173 0.14455,4.5e-4 l 0.004,-0.0124 q 0.0872,0.0172 0.11349,0.022 0.13566,0.0253 0.17055,0.0191 l 0.17561,-0.0211 q 0.34351,-0.008 0.39729,0.0117 0.0414,0.0148 0.0117,0.0976 l 0.11825,-0.004 q 0.0255,-0.0842 0.0584,-0.1238 0.0314,-0.0354 0.0695,-0.0638 0.12479,-0.0487 0.25076,-0.0875 l 0.15617,-0.0841 0.15407,-0.0522 q 0.15031,-0.13287 0.22219,-0.17713 0.10077,0.0314 0.16851,-0.0143 0.0861,-0.0579 0.17044,-0.163 l 0.1784,-0.14614 0.1166,-0.11693 0.11214,-0.10453 0.1027,-0.11725 0.10442,-0.0699 q 0.0355,-0.034 0.1,-0.0575 -0.0372,-0.0787 -0.0179,-0.13245 0.003,-0.008 0.3002,-0.43393 0.18795,-0.5115 0.19685,-0.53632 0.0104,-0.029 0.0485,-0.0573 0.0624,-0.057 0.0885,-0.10367 -0.0123,-0.0698 -0.0286,-0.0896 -0.0171,-0.0435 -0.0112,-0.06 l 0.0219,-0.0482 0.0145,-0.0275 0.0746,-0.3514 q 0.024,-0.0801 0.0507,-0.40198 0.10036,-0.13676 0.11073,-0.16572 0.0222,-0.062 -0.021,-0.24094 l 0.0242,-0.21074 q 0.006,-0.19864 -0.007,-0.26842 l 0.0548,-0.0877 q 0.0276,-0.0508 0.035,-0.38425 0.007,-0.38488 0.005,-0.40439 -0.004,-0.0154 -0.0549,-0.0944 l -0.0223,-0.18537 q -0.0285,-0.15492 0.0115,-0.26662 0.009,-0.0248 0.0604,-0.0904 -0.10608,-0.0427 -0.11904,-0.0847 -0.0133,-0.0281 -0.0199,-0.16586 -0.0312,-0.16055 -0.0252,-0.1771 0.0104,-0.0289 0.0684,-0.0735 0.21332,0.0951 0.3081,0.20843 0.0487,0.0595 0.14058,0.11573 0.0328,0.0258 0.0443,0.0719 0.009,0.0405 -0.0501,0.37419 0.0102,0.16703 6.6e-4,0.21964 -0.002,0.0319 -0.0263,0.24266 l -0.028,0.19537 -0.0159,0.21371 -0.0374,0.18264 q -0.0133,0.28466 -0.0281,0.32603 -0.0163,0.0455 -0.0501,0.12676 -0.0208,0.0579 -0.0649,0.16814 l 0.0248,0.009 q 0.0786,0.0282 0.043,0.12745 -0.006,0.0165 -0.016,0.0316 -0.0364,0.0756 -0.0379,0.0798 -0.001,0.004 -0.008,0.0485 l -0.0665,0.55035 q -0.0247,0.1732 -0.092,0.38715 l -0.0961,0.32034 q 0,0 -0.006,0.0165 0.0446,0.058 0.025,0.12566 -0.0599,0.19326 -0.10884,0.32978 -0.0311,0.0869 -0.17378,0.2505 -0.0314,0.0354 -0.0536,0.0975 -0.0193,0.0538 0.0344,0.13838 l -0.0809,0.19975 q -0.14252,0.033 -0.16623,0.0992 l -0.004,0.0124 q -0.0311,0.0869 -0.0507,0.15455 -0.0154,0.0691 -0.0184,0.0774 -0.0563,0.1572 -0.26907,0.34705 -0.16303,0.14232 -0.33261,0.32896 -0.33816,0.26629 -0.43197,0.35871 l -0.0848,0.002 0.0326,-0.091 q -0.0331,-0.0119 -0.0579,-0.0208 -0.13652,-0.0489 -0.18599,0.0501 0.0481,0.0872 0.0333,0.12862 -0.007,0.0207 -0.15531,0.10774 l -0.29524,0.21164 -0.1511,0.0439 -0.0603,0.0251 -0.26701,0.0677 q -0.55414,0.16555 -1.13876,0.0774 l -0.02,-0.10052 -0.0786,-0.0282 -0.0947,0.0688 q -0.0952,-0.0341 -0.19123,-0.0265 l -0.0958,-0.006 q -0.0866,0.0203 -0.1088,0.017 -0.018,-0.002 -0.15869,-0.0522 l -0.18795,-0.0487 -0.0738,-0.0545 q -0.13479,-0.002 -0.17202,-0.015 -0.0951,-0.0341 -0.15979,-0.12728 -0.005,-0.0112 -0.14121,-0.0879 z"
         id="path8955"
         style="fill:#000000;fill-opacity:1;stroke:none" />
      <path
         d="m 137.02868,98.097155 q 0.0146,-0.06663 0.007,-0.119794 -0.014,-0.125976 -0.007,-0.186817 0.008,-0.12962 -0.0514,-0.273879 0.0101,-0.01952 0.0182,-0.03514 0.0464,-0.0898 0.15181,-0.03534 l 0.008,0.004 q 0.0234,0.0121 0.0487,0.03013 0.0175,0.01399 0.0214,0.01601 l 0.15682,0.03156 0.31989,0.185051 q 0.31423,0.167288 0.32783,0.179261 0.035,0.02798 0.0711,0.120833 l 0.11284,0.08797 0.0541,-0.07594 q 0.10971,0.027 0.15266,0.04919 0.0742,0.03832 0.11381,0.162673 0.10528,0.06429 0.13652,0.08042 0.0429,0.02219 0.11211,-0.0064 0.0762,0.03442 0.11134,0.05257 l 0.47795,0.271657 0.49584,0.256169 q 0.039,0.02017 0.11596,0.148943 0.0308,0.04561 0.066,0.06377 0.008,0.004 0.22345,0.04619 0.004,0.002 0.0195,0.01009 0.0586,0.03026 0.0904,0.15057 l 0.23178,0.01093 0.0534,-0.02681 0.24206,0.12506 0.88451,0.44213 0.007,0.09247 q 0.0919,0.03266 0.14661,0.0609 0.0156,0.008 0.1753,0.12025 0.008,0.004 0.10541,0.0545 l 0.0781,-0.11297 q 0.0213,0.0258 0.0213,0.0258 l 0.6727,0.2585 0.15995,0.0925 q 0.12923,0.0371 0.12923,0.0371 0.0846,0.14263 0.0963,0.14868 0.0195,0.0101 0.0608,0.007 -0.009,0.0942 0.004,0.27915 0.004,0.1062 0.002,0.11993 -1.3e-4,0.01 -0.0344,0.0762 0.0258,0.13203 -0.004,0.19059 -0.008,0.0156 -0.0439,0.0466 -0.0566,-0.0342 -0.0956,-0.0543 -0.039,-0.0202 -0.1291,-0.0469 -0.0392,-0.0103 -0.0665,-0.0245 -0.0117,-0.006 -0.1049,-0.0938 l -0.0819,-0.0522 -0.10906,-0.0761 -0.0802,-0.0266 -0.0414,-0.43688 -0.38203,0.20329 -0.0467,-0.034 -0.12643,-0.1 -0.0795,-0.0856 q -0.008,-0.004 -0.17686,-0.002 -0.0295,-3.9e-4 -0.049,-0.0105 -0.0117,-0.006 -0.13373,-0.14328 -0.091,-0.10144 -0.18662,-0.15577 l -0.0932,0.0656 q -0.0976,-0.0504 -0.13275,-0.0686 -0.0938,-0.0386 -0.12116,-0.0527 -0.0117,-0.006 -0.1496,-0.1317 -0.0136,-0.012 -0.0605,-0.03618 -0.13665,-0.0706 -0.3126,-0.141716 -0.0665,-0.02447 -0.11336,-0.04867 -0.039,-0.02017 -0.14341,-0.153236 -0.11902,-0.06643 -0.17921,-0.122263 l -0.13997,0.03156 -0.85893,-0.443758 q -0.0128,-0.07093 -0.0438,-0.106715 -0.0543,-0.05772 -0.11999,-0.141134 -0.0736,0.06585 -0.13886,0.09644 -0.0952,-0.08381 -0.12253,-0.09793 -0.039,-0.02017 -0.11439,0.02993 -0.0607,-0.01653 -0.14661,-0.0609 l -0.16209,-0.0788 q -0.0312,-0.01614 -0.0928,-0.11719 -0.01,-0.01978 -0.0252,-0.02785 -0.008,-0.004 -0.0863,-0.0149 -0.0804,-0.01679 -0.0863,-0.0149 0,0 -0.0295,-3.9e-4 l -0.0556,-0.399724 -0.37227,0.05994 q -0.28168,0.04738 -0.31682,0.02922 -0.0312,-0.01614 -0.11674,-0.08999 -0.0369,-0.0339 -0.11876,-0.08608 z"
         id="path8957"
         style="fill:#000000;fill-opacity:1;stroke:none" />
      <path
         d="m 143.0408,99.19159 q -0.24555,-0.154356 -0.33846,-0.254282 -0.078,-0.09057 -0.22843,-0.288933 -0.18687,-0.330284 -0.21005,-0.375995 -0.0195,-0.04337 -0.0226,-0.252999 -0.001,-0.0061 -0.0765,-0.125969 -0.0385,-0.0709 -0.0356,-0.100244 -0.008,-0.06197 0.0275,-0.382367 0.0119,-0.101518 -0.0291,-0.267456 -0.006,-0.02424 0.10579,-0.556382 0.0547,-0.277022 0.3237,-0.704881 0.0538,-0.08557 0.17009,-0.204521 l 0.0875,0.03423 q 0.0551,-0.03805 0.10822,-0.05655 0.0165,-0.0675 -0.0406,-0.150099 0.17327,-0.176564 0.37334,-0.263621 0.14319,-0.0709 0.17114,-0.07409 0.0158,-4.24e-4 0.177,0.0074 0.16211,-0.0019 0.27809,-0.178156 0.20495,0.0043 0.28967,0.02637 0.0871,0.01839 0.26851,0.101312 0.18518,0.08526 0.28893,0.134903 l -0.0374,0.05953 0.0446,0.02806 0.0388,0.128201 q 0.0726,0.02488 0.18454,-0.02933 0.15669,0.114065 0.2092,0.162646 0.0214,0.02381 0.0951,0.137663 0.23715,0.341129 0.29136,0.453066 0.11416,0.346865 0.0634,0.54331 l -0.0258,0.264053 -0.03,0.245876 q -0.0117,0.200273 -0.0206,0.230994 -0.0127,0.02838 -0.20453,0.374922 l -0.10791,0.295517 -0.16605,0.264156 -0.0599,0.128412 q -0.26162,0.292324 -0.31679,0.371837 -0.0923,0.01467 -0.1198,0.0337 -0.008,0.0051 -0.11726,0.128729 -0.0616,0.06506 -0.34474,0.193356 -0.0396,0.02179 -0.1586,0.08716 -0.081,-0.01977 -0.11173,-0.0287 -0.0503,-0.01084 -0.0745,-0.0053 -0.002,0.0037 -0.1012,0.04539 -0.002,0.0037 -0.0499,0.005 -0.18167,-4e-6 -0.31189,-0.08186 -0.0633,-0.03976 -0.0699,-0.15297 -0.0806,-0.0039 -0.16923,0.05453 z m 0.18285,-0.456031 0.0372,0.02339 0.0545,-0.01244 q -0.0101,-0.05825 0.01,-0.0978 0.14521,0.04975 0.22621,0.06953 0.0526,0.0071 0.4453,0.01 0.01,9.57e-4 0.0247,0.01031 0.0335,0.02105 0.0845,0.105028 0.0614,0.01786 0.11895,-0.06537 -0.0138,-0.06059 0.003,-0.08664 0.014,-0.02232 0.36207,-0.229179 0.14511,-0.09046 0.2293,-0.224398 l 0.13799,-0.21951 0.0962,-0.09524 q 0.063,-0.059 0.0958,-0.111083 0.0538,-0.08557 0.0956,-0.209838 0.0258,-0.08238 0.084,-0.232693 0.0122,-0.04422 -9.5e-4,-0.35356 0.0428,-0.175504 0.0359,-0.2058 -0.0134,-0.04475 -0.13064,-0.279364 l -0.12755,-0.209949 q -0.0308,-0.149143 -0.0438,-0.178057 -0.0167,-0.03125 -0.0613,-0.05932 -0.12671,0.0034 -0.15414,-0.01903 l -0.004,-0.0023 -0.065,-0.06166 q -0.16647,-0.115022 -0.25098,-0.22005 -0.0894,-0.01467 -0.26767,-0.06963 l -0.23088,-0.06208 q -0.0419,-0.01595 -0.15956,-0.08473 l -0.0242,0.0055 -0.0561,0.08929 q -0.10385,-0.0082 -0.33963,0.02008 -0.13979,0.01594 -0.15424,0.02243 -0.0158,4.25e-4 -0.0816,0.0473 -0.0551,0.03805 -0.19134,0.139251 -0.15361,-0.04465 -0.20506,0.0372 -0.014,0.02232 -0.0353,0.138723 -0.10227,0.09663 -0.11162,0.111508 -0.12162,0.193467 -0.1516,0.257673 -0.036,0.06559 -0.036,0.247257 l -0.10492,0.04305 q 0.0393,0.102582 0.0355,0.141701 l -0.0187,0.211435 0.0134,0.04475 0.0951,0.682673 0.005,0.04986 q 0.0995,0.07292 0.11619,0.104178 l 0.0834,0.156266 q 0.0808,0.102689 0.1164,0.202933 0.0321,0.01499 0.0544,0.02902 0.0856,0.05379 0.0558,0.216751 0.0112,0.007 0.10428,0.02403 0.13383,-0.05602 0.15616,-0.04199 0.0409,0.02573 0.0307,0.1906 z"
         id="path8959"
         style="fill:#000000;fill-opacity:1;stroke:none" />
      <path
         d="m 147.01115,92.711636 -0.006,0.141396 q -0.14454,0.104008 -0.20748,0.183097 -0.0739,0.09284 -0.16411,0.234458 -0.10918,-0.02511 -0.20244,0.0074 l 0.034,0.133743 q -0.0472,0.08042 -0.099,0.202032 -0.0225,0.04947 -0.0471,0.08042 -0.005,0.0069 -0.0199,0.0179 -0.13149,0.108778 -0.13149,0.108778 -0.003,0.0034 0.002,0.01852 l -0.12076,0.01061 q -0.0197,0.07417 -0.0498,0.111998 -0.0109,0.01375 -0.1028,0.0586 -0.0206,0.01172 -0.0733,0.04274 -0.30354,0.190895 -0.5133,0.02398 -0.18225,-0.145025 -0.24887,-0.4283 -0.0215,-0.07887 -0.029,-0.33759 l -0.0106,-0.120763 0.0323,-0.238234 q 0.0457,-0.367982 0.0906,-0.523205 0.1034,-0.355778 0.232,-0.517395 0.0219,-0.02751 0.31849,-0.252016 l 0.11134,-0.203437 q 0.14439,-0.160285 0.18004,-0.176849 0.0891,-0.04141 0.1235,-0.01405 0.0344,0.02736 0.0414,0.08911 -0.001,0.01579 -0.0309,0.250584 -0.0316,0.24441 -0.048,0.265041 -0.17786,0.223513 -0.2909,0.302046 -0.0996,-0.02308 -0.17438,-0.02082 l -0.0164,0.02063 0.0168,0.120062 q -0.0431,0.06119 -0.065,0.0887 -0.0246,0.03095 -0.05,0.05572 -0.0335,0.03509 -0.0472,0.05228 -0.005,0.0069 -0.0505,0.105823 -0.0425,0.01109 -0.10273,0.08674 -0.003,0.109818 -0.043,0.336405 -0.021,0.1181 0.0192,0.25114 0.0429,0.129602 0.12198,0.192537 0.0378,0.0301 0.14827,0.01128 0.0185,-0.0021 0.15079,-0.07657 0.0829,-0.04071 0.18237,-0.07391 0.0248,0.02533 0.042,0.03901 0.0722,0.05746 0.11873,-9.94e-4 0.0438,-0.05502 0.009,-0.194936 0.0733,-0.07088 0.11703,-0.125899 0.0164,-0.02063 0.12503,-0.22063 l 0.0979,-0.101828 q 0.0998,-0.167719 0.11072,-0.181474 0.0191,-0.02407 0.18769,-0.137063 l 0.0847,-0.134737 0.18448,-0.05538 q 0.25155,-0.125561 0.39154,-0.132101 0.11255,-2.92e-4 0.15929,0.02567 l 0.13263,0.06623 q 0.24463,0.116038 0.27558,0.140665 0.0206,0.01642 0.1094,0.109526 0.2064,0.192319 0.11883,0.302356 -0.0274,0.03439 -0.0732,0.07088 0.1391,0.17808 0.14128,0.224744 0.0557,0.297029 0.082,0.390985 -0.11548,0.194526 -0.12326,0.373674 2.2e-4,0.08441 -0.005,0.09747 -0.005,0.01305 -0.0581,0.09418 l -0.14599,0.338731 q -0.13353,0.118392 -0.14447,0.132146 -0.0164,0.02063 -0.10916,0.250101 l -0.076,0.07432 q -0.14166,0.156846 -0.22452,0.225692 -0.187,0.143238 -0.21584,0.137136 l -0.15977,0.05257 q -0.28524,0.104373 -0.37856,0.108733 -0.20245,0.0074 -0.31592,-0.08291 -0.0241,-0.01915 -0.0223,-0.141322 l -0.0121,-0.161252 q 0.008,-0.207286 0.0241,-0.227918 0.0109,-0.01376 0.0295,-0.01586 0.13859,-0.01889 0.22799,0.05226 l 0.0991,0.101317 0.003,0.0027 q 0.0282,0.02807 0.0618,0.02112 0.0247,-0.0028 0.17416,-0.06359 0.0329,-0.01312 0.094,-0.02632 0.14406,-0.02577 0.14679,-0.02921 l 0.15283,-0.08619 0.15493,-0.06766 0.10398,-0.130669 0.0829,-0.06885 q 0.0634,-0.15733 0.13934,-0.259787 0.0732,-0.09902 0.0847,-0.162876 l 0.0414,-0.186098 q 0.0497,-0.140136 0.0497,-0.168275 4.1e-4,-0.106379 -0.0901,-0.35253 -0.0947,-0.255063 -0.32851,-0.441133 -0.0516,-0.04105 -0.12091,-0.04567 -0.3096,-0.02734 -0.41535,-0.04971 z"
         id="path8961"
         style="fill:#000000;fill-opacity:1;stroke:none" />
      <path
         d="m 148.93757,88.268322 0.0359,-0.16189 q 0.10262,0.0085 0.13677,0.0051 0.0124,-1.03e-4 0.0961,-0.03498 0.0465,-0.01592 0.52818,-0.01062 0.15229,0.0018 0.24895,0.04143 0.0842,0.03348 0.19651,0.08848 0.0624,0.02434 0.15593,0.06706 l 3.7e-4,0.0435 q -0.0402,0.0283 -0.12064,0.06626 l -0.0732,0.162201 -0.12357,0.08804 -0.0674,0.118647 q -0.3289,0.05868 -0.33815,0.06808 -0.0185,0.0188 -0.0164,0.273597 -0.23481,0.163547 -0.24713,0.17608 -0.0493,0.05013 -0.1077,0.128305 l -0.0279,0.0033 q -0.043,0.05629 -0.26181,0.27875 l -0.10148,0.128253 -0.12921,0.156453 -0.11976,0.171911 -0.13255,0.128512 q -0.12233,0.23719 -0.17764,0.312232 0.0911,0.120433 0.11645,0.176157 0.0285,0.06502 0.0294,0.176882 0.16754,-0.03247 0.2019,-0.011 0.23133,0.165878 0.328,0.20547 l 0.0868,-0.02558 0.10053,0.129678 0.12058,-0.07248 q 0.15928,0.09501 0.25245,0.08801 0.087,-0.0069 0.21046,-0.101195 0.11254,0.07986 0.16523,0.06388 0.0435,-0.0066 0.136,-0.08814 l 0.13385,0.02685 q 0.0276,-0.04063 0.0523,-0.06569 0.0185,-0.0188 0.26321,-0.110956 0.0558,-0.01911 0.0989,-0.06297 0.0401,-0.04073 0.11956,-0.196769 l 0.17527,-0.222094 0.10713,-0.196666 q 0.10158,-0.115824 0.12602,-0.165748 0.0305,-0.07483 0.0814,-0.302107 0.051,-0.221058 0.0412,-0.273804 -0.0103,-0.121107 -0.0456,-0.254435 -0.0129,-0.06204 0.0487,-0.124706 0.0277,-0.0282 0.12085,-0.0414 0.0912,0.132862 0.1072,0.185557 0.093,0.350373 0.1312,0.45571 -0.0588,0.02224 -0.0866,0.05044 -0.0185,0.0188 -0.039,0.165023 -0.0179,0.09337 -0.0948,0.184133 -0.13778,0.246641 -0.20233,0.331082 -0.11381,0.140786 -0.1383,0.184496 -0.0642,0.127942 -0.0673,0.131076 l -0.21,0.157125 -0.0891,0.12815 -0.0493,0.05635 q -0.0645,0.08444 -0.10461,0.125172 -0.0401,0.04073 -0.24687,0.207153 -0.0648,0.05337 -0.0648,0.05337 l -0.10544,0.02574 q -0.30317,0.164117 -0.34035,0.176857 -0.0248,0.0064 -0.19876,0.01409 -0.0124,1.04e-4 -0.17678,0.04187 -0.13954,0.03535 -0.17391,0.01388 l -0.15572,-0.04221 q -0.0374,-0.01212 -0.22383,-0.01056 -0.0193,-0.08063 -0.0444,-0.105286 -0.009,-0.0092 -0.25558,-0.09109 -0.0654,-0.02121 -0.28789,-0.239986 -0.0689,-0.06779 -0.18245,-0.265725 -0.0852,-0.157773 -0.0886,-0.191927 l -0.0206,-0.229784 -0.0795,-0.213756 q 0.005,-0.205133 0.0148,-0.466249 l 0.0839,-0.367386 0.0682,-0.389007 0.0675,-0.100003 0.15899,-0.312075 0.13846,-0.165852 q 0.11287,-0.252649 0.13136,-0.271448 0.17255,-0.175459 0.40024,-0.07481 z m 0.11254,0.825659 0.11818,0.01144 q 0.0491,-0.07499 0.0675,-0.100003 0.0707,-0.09692 0.12253,-0.212331 l 0.19131,-0.163185 q 0.003,-0.0031 -0.0159,-0.04648 -0.0157,-0.02162 -0.0282,-0.03395 -0.0282,-0.02773 -0.10591,-0.03019 -0.0124,1.04e-4 -0.0684,-0.0056 -0.17421,-0.02341 -0.18644,0.0016 l -0.15181,0.05409 q -0.0279,0.0096 -0.13061,-0.01134 -0.1019,0.07854 -0.31759,0.29786 l -0.0648,0.05958 -0.0421,0.168157 q 1.1e-4,0.01243 -0.12561,0.215465 -0.0824,0.177814 -0.13716,0.321216 -0.006,0.03734 -0.0137,0.226962 -0.003,0.03421 -0.0145,0.127528 l 0.0188,0.01849 0.0124,-1.04e-4 0.3158,-0.139362 0.13672,-0.0011 -0.0271,-0.26702 q 0.003,-0.02799 0.0214,-0.04679 0.009,-0.0094 0.19172,-0.113469 0.003,-0.0031 0.006,-0.0063 0.0401,-0.04073 0.14431,-0.209406 0.0214,-0.04058 0.0829,-0.115669 z"
         id="path8963"
         style="fill:#000000;fill-opacity:1;stroke:none" />
      <path
         d="m 152.68133,86.06556 -0.0207,-0.02844 q 0.0585,-0.09141 0.18036,-0.185382 0.0614,-0.05006 0.0676,-0.108855 0.009,-0.05524 -0.0393,-0.188702 0.0921,-0.104968 0.2667,-0.373064 l -0.0704,-0.17159 q 0.0941,-0.117245 0.13092,-0.171186 0.0217,-0.03747 0.0857,-0.263286 0.10767,-0.203182 0.11414,-0.22418 0.008,-0.04911 -0.009,-0.139903 l 0.19228,-0.101696 q 0.008,-0.09305 -0.003,-0.138931 -0.0236,-0.0698 -0.0452,-0.151872 l 0.14932,-0.108499 q -0.0507,-0.137011 -0.0335,-0.165759 l 0.086,-0.165712 0.14424,-0.354697 0.10701,-0.159242 0.0372,-0.135683 q 0.0686,-0.174766 0.0744,-0.211596 0.006,-0.03683 -0.007,-0.174149 l 0.1968,-0.110419 -0.10167,-0.252052 0.27858,-0.169835 q -0.0348,-0.137651 -0.0329,-0.2097 0.007,-0.124711 0.16008,-0.355337 0.0355,0.09371 0.0458,0.107931 l 0.27609,0.40236 q 0.0181,0.02489 0.0164,0.07496 0.005,0.05105 -0.13902,0.242264 -0.0727,0.101745 -0.0838,0.251009 -0.0127,0.13957 -0.0217,0.216786 l -0.17289,0.09847 -0.004,0.166068 -0.1044,0.103024 0.0264,0.170927 -0.10634,0.115301 0.0145,0.147013 -0.14576,0.105915 q -0.0104,0.105324 -0.0796,0.264258 -0.0145,0.0323 0.009,0.161872 l -0.14898,0.08653 q 0.0658,0.180312 0.0413,0.236197 -0.0171,0.02875 -0.20136,0.178912 -0.0336,0.07333 -0.0863,0.187682 -0.0401,0.09433 -0.0411,0.100465 -9.7e-4,0.0061 0.006,0.202258 0.008,0.07044 -0.0873,0.19382 0.0154,0.140875 -0.0379,0.179624 -0.004,0.0026 -0.0142,0.01033 -0.0372,0.01614 -0.10632,0.05553 l -0.046,0.370245 q 0.14993,-0.03289 0.2876,-0.127506 0.0578,0.0123 0.27556,0.08767 l 0.15448,-0.101389 q 0.0701,0.01425 0.14183,0.03818 0.12501,0.04496 0.22811,-0.02996 l 0.0934,-0.0733 0.004,-0.0026 q 0.0533,-0.03875 0.0908,-0.01709 0.1883,0.161945 0.2248,0.189745 l 0.25793,-0.258047 0.35373,0.15038 0.15675,-0.135636 0.14697,0.105064 0.15061,-0.136608 q 0.14118,0.02235 0.38319,0.004 0.0511,-0.0045 0.19415,0.06534 0.0814,-0.03745 0.16934,-0.09589 0.0957,-0.04778 0.24811,0.04242 0.0814,-0.03745 0.10891,-0.05197 0.11601,-0.05714 0.17773,-0.06939 0.083,0.09179 0.13888,0.116369 l 0.14121,-0.03742 q 0.11724,0.09407 0.13274,0.115397 0.008,0.01067 0.0594,0.201311 0.0233,0.03199 0.0284,0.03911 0.0804,0.02846 0.14408,0.06371 -0.22328,0.05904 -0.30308,0.0464 -0.0711,-0.0081 -0.17121,-0.07115 -0.0346,0.01969 -0.0559,0.03519 -0.0142,0.01033 -0.0294,0.0268 -0.0223,0.02164 -0.033,0.02939 -0.0142,0.01033 -0.25587,-0.05309 -0.043,-0.0068 -0.3241,0.09971 -0.0478,0.02389 -0.27395,-0.07797 l -0.0356,0.02583 q -0.0737,0.04811 -0.11957,0.05972 -0.052,0.01064 -0.1541,-0.04013 l -0.13153,0.09558 -0.1528,-0.06823 q -0.15543,0.04776 -0.21487,0.02576 -0.11532,-0.04657 -0.1767,-0.05629 l -0.15903,0.169882 -0.17249,-0.102812 q -0.10891,0.05197 -0.14348,0.07167 -0.20909,0.108475 -0.25884,0.08487 -0.042,-0.01294 -0.15277,-0.128006 -0.0579,0.04747 -0.10407,0.08106 -0.0711,0.05167 -0.1299,0.0455 -0.01,0.0016 -0.26167,-0.07603 -0.0527,-0.0052 -0.2275,0.10556 l -0.14535,-0.09537 q -0.11602,0.05714 -0.1787,0.07553 -0.0326,0.0074 -0.22973,0.02026 l -0.15154,0.0232 -0.25328,-0.04954 q -0.0287,-0.01713 -0.2084,0.0048 z"
         id="path8965"
         style="fill:#000000;fill-opacity:1;stroke:none" />
      <path
         d="m 157.71259,83.170928 q -0.0445,-0.08087 -0.10239,-0.204478 l -0.0653,-0.109556 q -0.0106,-0.01925 -0.0291,-0.08934 0.14845,-0.07661 0.47134,-0.219036 l 0.006,0.01155 0.0836,0.02427 q 0.0389,-0.111661 0.0834,-0.1311 l 0.004,-0.0021 0.23355,-0.113369 0.0847,-0.04658 0.10301,-0.03156 0.0657,-0.08124 0.31266,0.04875 0.0224,-0.232955 q 0,0 0.02,0.0091 0.032,0.01252 0.10107,0.01965 0.098,-0.159208 0.13094,-0.172296 l 0.284,-0.131075 0.1652,-0.100863 q 0.0269,-0.01482 0.11244,-0.04177 0.0352,-0.05448 0.0352,-0.05448 0.0949,-0.03715 0.0988,-0.03926 0.0424,-0.02329 0.0997,-0.06487 0.0874,0.02215 0.11051,0.0094 0.004,-0.0021 0.11977,-0.156124 l 0.15018,-0.08258 0.0557,-0.03561 q 0.14248,-0.07834 0.22085,-0.136474 0.0818,0.03024 0.0903,0.04564 l 0.0753,0.164235 0.0845,0.09897 q 0.006,0.01155 5.7e-4,0.06488 -0.0522,0.02367 -0.0907,0.04485 -0.0192,0.01059 -0.0402,0.02714 -0.10455,0.09259 -0.1084,0.09471 -0.0312,0.0071 -0.1159,-0.04661 -0.0582,0.122248 -0.11419,0.148039 l -0.004,0.0021 q -0.10956,0.06525 -0.23642,-0.01043 0,0 -0.12263,-0.06798 l -0.15388,0.340369 -0.23852,-0.114584 -0.10632,0.299175 q -0.008,0.0042 -0.046,-0.01984 l -0.007,0.06912 -0.31766,-0.07609 -0.0318,0.142851 q 0.003,0.123796 -0.0356,0.144969 l -0.004,0.0021 -0.19485,0.04695 -0.004,0.0021 q -0.0193,0.01059 -0.0377,0.04081 -0.0206,0.02637 -0.0245,0.02849 l -0.25067,-0.07281 -0.0668,0.252396 -0.14363,0.04888 -0.0587,0.05737 -0.12457,0.08354 -0.11899,0.07546 q -0.0655,0.03599 -0.0913,0.08027 z M 156.9881,81.74382 q 0.0424,-0.02329 0.077,-0.04235 0.0886,-0.0487 0.12476,-0.02848 l 0.21851,0.105533 0.0499,-0.283202 q 0,0 0.0319,0.01252 0.0537,0.0156 0.15711,-0.0061 l 0.0662,-0.116663 0.0732,-0.04023 0.11552,-0.06352 0.15593,0.165016 2.1e-4,-0.145551 q -3.7e-4,-0.110126 0.0304,-0.127065 0.0115,-0.0064 0.0291,-0.01097 0.0795,-0.02868 0.13728,-0.06044 0.008,-0.0042 0.20679,-0.143792 l 0.2268,-0.03443 q 0.0628,-0.104727 0.0799,-0.119165 0.0115,-0.0064 0.0732,-0.04023 l 0.16732,-0.09701 0.0116,-0.0064 q 0.0269,-0.01482 0.13843,-0.03098 0.004,-0.0021 0.008,-0.0042 0.008,-0.0042 0.0171,-0.01444 0.0703,-0.06372 0.11649,-0.08913 l 0.15018,-0.08257 0.0308,-0.01694 0.0385,-0.02117 0.0385,-0.02117 q 0.0655,-0.03599 0.17251,-0.01461 l 0.0175,-0.104926 q 0.0766,-0.05217 0.10359,-0.06699 0.19736,-0.133589 0.29845,-0.214245 0.0579,0.0233 0.0833,0.06951 l 0.0318,0.05776 q 0.0914,0.175405 0.14898,0.289196 l -0.0878,0.06834 q -0.0861,0.06237 -0.14768,0.09624 -0.0462,0.02541 -0.13073,0.02675 -0.0146,0.02811 -0.0146,0.02811 l -0.23219,-0.0027 -0.0995,0.01963 -0.16557,-0.0093 -0.043,0.259329 -0.2293,-0.07954 -0.1194,0.26625 q -0.008,0.0042 -0.0541,-0.02542 -0.0736,0.130717 -0.10822,0.149772 -0.027,0.01482 -0.23488,-0.07146 l -0.13134,0.262783 q 0,0 -0.01,3.84e-4 -0.0316,-0.0027 -0.0947,-0.0081 l -0.002,0.05121 -0.27665,-0.08359 -0.0545,0.265681 q -0.23294,-0.12267 -0.25605,-0.109966 -0.0192,0.01059 -0.10168,0.216388 l -0.10417,0.102411 -0.11496,0.128402 q -0.0291,0.01097 -0.11301,-0.02312 l -0.0266,0.124947 q -0.24988,-0.153476 -0.29224,-0.130186 -0.0693,0.03811 0.0117,0.249325 -0.002,-0.0039 -0.004,-0.0077 -0.004,-0.0077 -0.0324,-0.02234 -0.006,-0.0017 -0.0102,-0.0094 -0.008,-0.0154 -0.0177,-0.05045 -0.006,-0.04698 -0.0291,-0.08934 -0.008,-0.0154 -0.0229,-0.03254 -0.0602,-0.08222 -0.0602,-0.08222 -0.0173,-0.04063 -0.0169,-0.131113 z"
         id="path8967"
         style="fill:#000000;fill-opacity:1;stroke:none" />
      <path
         d="m 162.49541,80.66302 q -0.0339,-0.08582 -0.0758,-0.21575 l -0.0509,-0.116906 q -0.008,-0.02044 -0.0176,-0.09229 0.15691,-0.05729 0.49518,-0.157899 l 0.005,0.01226 0.0798,0.0346 q 0.0527,-0.105869 0.0992,-0.11955 l 0.004,-0.0016 0.24598,-0.08304 0.0899,-0.03553 0.10616,-0.01833 0.0754,-0.07232 0.30402,0.08776 0.0515,-0.228281 q 0,0 0.0187,0.0115 0.0301,0.01645 0.0978,0.03223 0.11729,-0.145588 0.1516,-0.154423 l 0.29825,-0.09424 0.1766,-0.07924 q 0.0286,-0.01131 0.1168,-0.02726 0.0418,-0.04961 0.0418,-0.04961 0.0988,-0.02489 0.10293,-0.0265 0.045,-0.01777 0.10712,-0.05178 0.0839,0.03299 0.10843,0.0233 0.004,-0.0016 0.13849,-0.139788 l 0.15939,-0.06299 0.0597,-0.02831 q 0.15122,-0.05976 0.23629,-0.107558 0.0773,0.04031 0.0838,0.05665 l 0.054,0.17241 0.0714,0.108829 q 0.005,0.01226 -0.008,0.06444 -0.0548,0.01691 -0.0956,0.03306 -0.0204,0.0081 -0.0433,0.02185 -0.11538,0.07868 -0.11947,0.08029 -0.0318,0.0031 -0.1091,-0.06084 -0.0731,0.113945 -0.13193,0.132471 l -0.004,0.0016 q -0.11691,0.05093 -0.23322,-0.04013 0,0 -0.11309,-0.08289 l -0.19554,0.318267 -0.22219,-0.143727 -0.14316,0.283394 q -0.008,0.0032 -0.0431,-0.02548 l -0.0158,0.06767 -0.30554,-0.11551 -0.0495,0.137707 q -0.0128,0.123171 -0.0536,0.139323 l -0.004,0.0016 -0.19921,0.02202 -0.004,0.0016 q -0.0204,0.0081 -0.0426,0.03573 -0.0238,0.02357 -0.0279,0.02518 l -0.23949,-0.103812 -0.0981,0.241961 -0.14864,0.0304 -0.0655,0.04951 -0.13411,0.06718 -0.12755,0.05986 q -0.0695,0.02746 -0.10066,0.06813 z m -0.53889,-1.507024 q 0.045,-0.01777 0.0817,-0.0323 0.094,-0.03715 0.12735,-0.01253 l 0.20347,0.132225 0.0852,-0.274657 q 0,0 0.0301,0.01645 0.0513,0.02224 0.15662,0.0137 l 0.0804,-0.107386 0.0777,-0.03069 0.12261,-0.04846 0.13389,0.183348 0.0186,-0.144364 q 0.0135,-0.109295 0.0462,-0.122216 0.0123,-0.0048 0.0302,-0.0072 0.0825,-0.01843 0.14381,-0.04266 0.008,-0.0032 0.22326,-0.116588 l 0.22933,-0.0056 q 0.0755,-0.09598 0.0943,-0.108145 0.0123,-0.0048 0.0777,-0.03069 l 0.17821,-0.07516 0.0123,-0.0048 q 0.0286,-0.01131 0.14123,-0.01329 0.004,-0.0016 0.008,-0.0032 0.008,-0.0032 0.0188,-0.01216 0.0777,-0.05435 0.12679,-0.07374 l 0.15939,-0.06299 0.0327,-0.01292 0.0409,-0.01615 0.0409,-0.01615 q 0.0695,-0.02746 0.17297,0.0072 l 0.0306,-0.10188 q 0.0826,-0.04209 0.1112,-0.0534 0.21262,-0.107656 0.32306,-0.174932 0.0546,0.03042 0.0739,0.07946 l 0.0242,0.0613 q 0.0686,0.185527 0.11135,0.305663 l -0.0957,0.05673 q -0.0932,0.05103 -0.15863,0.07687 -0.049,0.01938 -0.13306,0.01006 -0.0181,0.02604 -0.0181,0.02604 l -0.22999,-0.03196 -0.10122,0.0069 -0.16309,-0.03005 -0.0753,0.251849 -0.21744,-0.107802 -0.152,0.249083 q -0.008,0.0032 -0.0505,-0.03203 -0.0894,0.120405 -0.12623,0.134942 -0.0286,0.01131 -0.224,-0.100484 l -0.1634,0.24414 q 0,0 -0.01,-8.57e-4 -0.031,-0.0067 -0.093,-0.01997 l -0.008,0.05056 -0.26391,-0.117786 -0.0876,0.256694 q -0.21563,-0.151045 -0.24015,-0.141354 -0.0204,0.0081 -0.12814,0.201851 l -0.11625,0.08847 -0.13021,0.112893 q -0.0302,0.0072 -0.1092,-0.03717 l -0.0421,0.120601 q -0.22855,-0.18374 -0.27351,-0.165972 -0.0736,0.02907 -0.0198,0.248813 -0.002,-0.0041 -0.003,-0.0082 -0.003,-0.0082 -0.0293,-0.02623 -0.006,-0.0025 -0.009,-0.01065 -0.006,-0.01635 -0.0112,-0.05227 1.9e-4,-0.04733 -0.0176,-0.09229 -0.006,-0.01635 -0.0186,-0.03517 -0.0494,-0.08915 -0.0494,-0.08915 -0.0121,-0.04248 -2.7e-4,-0.132201 z"
         id="path8969"
         style="fill:#000000;fill-opacity:1;stroke:none" />
      <path
         d="m 169.23453,76.809145 q 0.061,0.0222 0.1088,0.01523 0.0435,-0.0063 0.0333,-0.07591 -0.009,-0.06088 -0.14584,-0.147505 -0.006,-0.101286 -3.4e-4,-0.124296 l 0.0522,-0.220772 q 0.0682,-0.50732 0.25786,-0.912434 0.11338,-0.34959 0.15107,-0.426137 0.15759,-0.320504 0.25101,-0.471785 l 0.0466,0.01541 0.0551,-0.07908 q -0.004,-0.03044 -0.007,-0.04784 -0.0114,-0.07827 0.0691,-0.196581 0.0619,-0.0934 0.2633,-0.295939 0.0438,-0.126283 0.0556,-0.136881 0.0155,-0.01558 0.0416,-0.01938 v 0 l 0.11442,0.0233 0.0555,-0.136881 -0.0244,-0.0453 q 0.11716,-0.110329 0.24137,-0.14175 0.003,-0.129278 0.0411,-0.174751 0.0254,-0.03923 0.25432,-0.174725 0.11787,-0.07491 0.15067,-0.124096 0.0601,-0.07537 0.12965,-0.0855 0.0538,-0.08778 0.07,-0.09901 l 0.20286,-0.131699 0.15756,-0.107335 0.12475,-0.05815 q 0.15131,-0.119747 0.30651,-0.182328 0.14776,-0.05262 0.43287,-0.107482 l 0.20991,-0.05279 0.17513,-0.04772 q 0.131,-0.04573 0.15275,-0.0489 0.0522,-0.0076 0.14477,-0.01221 0.0441,-0.002 0.0832,-0.0077 0.24914,-0.02742 0.30821,-0.01826 0.22567,0.02485 0.23001,0.02422 l 0.39501,-0.09308 q 0,0 0.0342,0.02166 0.0823,0.07684 0.12084,0.09786 0.0293,0.01794 0.22187,-0.0012 0.0615,-0.0045 0.22448,0.04723 l 0.1069,0.0022 0.0871,0.0184 0.0684,0.01224 q 0.041,0.0073 0.0929,0.119686 0.0447,-0.02871 0.0707,-0.06359 0.16786,0.02439 0.22947,0.05094 0.0572,0.02719 0.12599,0.16372 0.057,-0.06604 0.10483,-0.07301 0.0261,-0.0038 0.41698,0.21014 0.13941,0.07295 0.17121,0.108281 0.0268,0.03162 0.0543,0.06759 0.0312,0.03099 0.0891,0.0936 l -0.0593,0.141864 0.0304,-0.0044 0.0196,0.134807 q 0.062,-0.06232 0.0924,-0.06676 0.0609,-0.0089 0.17239,0.0859 l 0.0783,-0.0114 q 0.068,0.101112 0.0942,0.128384 0.0904,0.102292 0.1298,0.189811 0.12899,0.123315 0.15589,0.18601 -0.0594,0.07971 -0.0499,0.144944 0.002,0.01305 0.004,0.03044 0.18054,0.111362 0.24729,0.203777 0.03,0.05336 0.0724,0.34472 l 0.10007,0.22967 0.0246,0.138521 q 0.0583,0.186904 0.064,0.226041 0.007,0.04784 -0.007,0.07211 -0.004,0.005 -0.0824,0.105261 -0.0186,0.02491 0.003,0.172764 0.012,0.08262 0.0631,0.12847 0.006,0.0081 0.10272,0.06497 0,0 0.0506,0.07257 0.0393,0.05645 0.0412,0.06949 0.002,0.01305 -0.009,0.09014 -0.007,0.04104 8.9e-4,0.09757 0.004,0.02609 0.008,0.05653 0.0385,0.203117 0.0493,0.277043 0.008,0.05653 -0.0351,0.338185 l -0.0103,0.08144 -0.0295,0.133079 q -0.0124,0.219418 -0.0316,0.271055 -0.0198,0.04729 -0.0761,0.117672 l 0.0388,0.08317 q -0.0794,0.06486 -0.0787,0.100278 l 0.008,0.05218 q 0.0113,0.0472 -0.0956,0.258182 -0.21575,0.408917 -0.41328,0.668626 -0.16945,0.300028 -0.19482,0.339252 -0.0186,0.02491 -0.15557,0.151454 -0.0279,0.02183 -0.16038,0.209888 -0.0743,0.09964 -0.13817,0.14892 l -0.63242,0.53624 -0.1185,0.07056 -1.04591,0.685308 -0.13907,0.05135 -0.8529,0.364083 -0.0335,0.01377 -0.69742,0.181556 -0.20827,-0.02739 -0.15102,-1.99e-4 -0.14486,-0.01886 q -0.13544,0.01529 -0.16343,0.0061 -0.028,-0.0092 -0.0573,-0.05826 l 0.0111,-0.01495 -0.0729,-0.07375 q -0.0776,0.01575 -0.17323,0.06077 -0.0124,0.0062 -0.0124,0.0062 -0.0565,0.0082 -0.0959,-0.07928 -0.006,-0.0081 -0.11765,-0.289283 -0.001,-0.0087 -0.0494,-0.09495 -0.0175,-0.02854 -0.0175,-0.02854 -0.0298,0.0088 -0.0193,0.4469 -0.11577,-0.06307 -0.38392,-0.166107 -0.26507,-0.11237 -0.37767,-0.153695 -0.0145,-0.06894 -0.0357,-0.0925 -0.0168,-0.02419 -0.0909,-0.04449 -0.0207,-0.08136 -0.0495,-0.126022 -0.0393,-0.05645 -0.0855,-0.129651 -0.0826,0.01204 -0.17285,-0.02811 -0.0708,0.03251 -0.0795,0.03378 -0.0391,0.0057 -0.1588,-0.114531 -0.12899,-0.123315 -0.17383,-0.15675 -0.024,-0.134173 -0.0458,-0.162079 -0.0106,-0.01178 -0.10273,-0.06497 -0.0112,-0.01613 -0.0318,-0.03534 -0.0156,-0.01549 -0.11105,-0.152574 l -0.24131,-0.284587 q -0.11992,-0.213455 -0.12499,-0.248244 -0.005,-0.03479 0.0463,-0.108889 l 0.0652,-0.0095 -0.0314,-0.124209 q -0.0399,-0.02972 -0.11261,-0.04133 -0.10445,-0.01587 -0.14229,-0.214635 -0.0278,-0.160265 -0.0734,-0.260196 -0.0694,-0.140883 -0.13963,-0.592505 l -0.001,-0.0087 q -0.002,-0.01305 -0.009,-0.154102 0.002,-0.01368 -0.03,-0.266532 -0.0122,-0.144772 0.0534,-0.243149 z m 1.11943,1.830869 0.0573,0.05826 -0.0335,0.01377 0.1175,0.01397 q 0.0793,0.148313 0.16839,0.210834 0.0498,0.03715 0.0686,0.10546 0.0636,0.07067 0.0985,0.09668 -0.0643,0.107075 -0.058,0.150561 0.006,0.04349 0.0642,0.07502 0.0492,0.0328 0.0927,0.02647 0.0261,-0.0038 0.14587,-0.06566 0.0512,0.07692 0.0748,0.0868 l 0.11641,0.06742 q 0.14385,0.103386 0.31434,0.176245 -0.009,0.09014 4.3e-4,0.155369 0.008,0.05653 0.0568,0.08498 0.0735,0.04703 0.16044,0.03436 0.0217,-0.0032 0.0584,-0.02627 0.0847,0.06315 0.20853,0.120607 0.0263,0.08942 0.0494,0.09495 0.01,0.0074 0.0653,0.02157 0.0678,0.0079 0.18598,0.05728 0.13688,0.05555 0.16361,0.0561 0.092,0.02212 0.19848,0.0821 0.0876,-0.0083 0.34,0.01707 0.24116,0.0093 0.29153,0.01969 0.1194,0.02701 0.14549,0.02321 0,0 0.0677,-0.02318 0.0298,-0.0088 0.0689,-0.01449 0.0478,-0.007 0.0919,-0.009 0.0398,-0.0014 0.0615,-0.0045 0.0348,-0.0051 0.0999,-0.04565 0.0829,0.08118 0.14376,0.07231 0.0348,-0.0051 0.23647,-0.114392 l 0.14532,-0.03894 q 0.18365,-0.111137 0.22088,-0.129885 0.0211,-0.0075 0.29073,-0.0468 l 0.11905,-0.09728 q 0.26302,-0.175992 0.3374,-0.244563 0.0952,0.04386 0.1387,0.03752 0.0565,-0.0082 0.10347,-0.112777 -0.061,-0.05328 -0.0674,-0.09676 -0.006,-0.03914 0.1302,-0.11223 0.0329,-0.01811 0.15004,-0.128445 0.0415,-0.05045 0.22823,-0.170923 l 0.10146,0.05627 q 0.0556,-0.136881 0.14796,-0.203638 l -8.9e-4,-0.09757 q 0.0918,-0.07111 0.36315,-0.37266 l 0.12703,-0.133974 0.12242,-0.226561 0.11634,-0.176826 0.082,-0.229556 0.0908,-0.199749 q 0.0639,-0.262444 0.11211,-0.358287 -0.0169,-0.05526 -0.0233,-0.09875 -0.0139,-0.09567 0.0556,-0.105807 0.0174,-0.0025 0.0635,0.0396 0.0561,0.04956 0.071,0.06071 l 0.0724,-0.112691 q 0.0217,-0.0032 0.0348,-0.0051 0.0826,-0.01204 0.0757,-0.05987 -0.008,-0.05218 -0.0525,-0.116692 -0.0961,0.07174 -0.16381,0.09492 -0.053,-0.05889 -0.06,-0.106727 -0.002,-0.01305 0.001,-0.235545 l -0.0247,-0.169596 0.35324,-0.135848 -0.43221,-0.101338 0.19686,-0.05089 q 0.14492,-0.407475 0.14492,-0.407475 -0.001,-0.0087 -0.0112,-0.01613 -0.094,-0.06624 -0.22883,-0.04659 -0.0826,0.01204 -0.18572,0.03594 0.15211,-0.05325 0.13754,-0.153269 -0.0171,-0.117412 -0.20744,-0.174057 -2.6e-4,-0.09322 -0.007,-0.136708 -0.006,-0.04349 -0.0803,-0.276957 -0.0489,-0.152748 -0.0685,-0.256481 -0.0853,-0.0675 -0.0879,-0.0849 l -0.14227,-0.427804 -0.0867,-0.107274 -0.0911,-0.137715 -0.11531,-0.120867 q -0.15552,-0.274883 -0.32175,-0.379449 -0.0121,-0.113697 -0.0172,-0.148486 -0.008,-0.05653 -0.0532,-0.121041 l -0.15456,0.06693 q -0.0742,-0.08245 -0.23797,-0.200696 -0.14321,-0.09904 -0.16251,-0.109549 -0.0286,-0.01359 -0.35276,-0.135119 -0.13688,-0.05555 -0.23353,-0.170256 -0.0471,0.04239 -0.0689,0.04556 -0.0391,0.0057 -0.11822,-0.04939 -0.0478,0.007 -0.0783,0.0114 -0.10437,0.01521 -0.3495,-0.0823 0.006,-0.08081 -0.002,-0.137341 -0.0108,-0.07393 -0.17058,-0.103933 -0.0378,0.04547 -0.0643,0.107074 -0.0198,0.04729 -0.0545,0.08343 -0.10074,-0.02085 -0.25547,-0.01607 -0.24687,-0.04841 -0.27296,-0.04461 -0.009,0.0013 -0.16144,0.05017 l -0.0726,-0.193699 0.0167,0.206285 q -0.11442,-0.0233 -0.12747,-0.0214 -0.0217,0.0032 -0.26264,0.08712 -0.0379,0.0144 -0.0988,0.02327 -0.0609,0.0089 -0.14975,0.0085 -0.11062,0.0028 -0.17585,0.0123 -0.0174,0.0025 -0.17386,0.05642 l -0.21607,0.07145 -0.23511,0.154163 -0.19932,0.06457 q -0.0285,0.01748 -0.0805,0.118306 l -0.0889,-3.73e-4 -0.008,0.09449 q -0.14768,0.08369 -0.22515,0.161593 l 0.0108,0.07393 q -0.1899,0.09872 -0.35652,0.2962 -0.22607,0.27719 -0.36877,0.364596 -0.037,0.11197 -0.0617,0.155543 -0.0136,0.02863 -0.24945,0.360535 -0.0171,0.09576 -0.0635,0.173571 -0.0433,0.06848 -0.19266,0.445519 -0.0327,0.08026 -0.1124,0.478234 l -0.0674,0.116405 -0.0118,0.223767 -0.0364,0.08524 q 0.0172,0.148487 0.0123,0.175846 -0.002,0.01803 -0.0585,0.208359 -0.003,0.0093 -5.4e-4,0.02673 l 0.0138,0.03352 0.0241,0.165247 0.0963,0.660989 0.004,0.03044 0.004,0.02609 q 0.005,0.03479 0.0307,0.08879 0.0207,0.05028 0.0213,0.05463 l 0.0186,0.219331 q 0.003,0.02174 0.0655,0.08372 0.0885,0.08925 0.12735,0.203491 l 0.0526,0.147766 0.0134,0.122395 q 0.003,0.01739 0.17645,0.205218 0.0106,0.01178 0.015,0.04222 0.006,0.04349 0.002,0.101919 z m -0.12539,0.0538 0.0261,-0.0038 0.0684,0.01224 0.0261,-0.0038 -6.3e-4,-0.0043 -0.005,-0.0037 -0.0684,-0.01224 -0.0478,0.007 z"
         id="path8971"
         style="fill:#000000;fill-opacity:1;stroke:none" />
      <path
         d="m 179.59954,75.982072 q 0.0202,-0.0696 0.0295,-0.08244 0.009,-0.01284 0.0815,-0.06289 0.0454,-0.03787 0.22652,-0.176167 0.24226,-0.127201 0.273,-0.126043 0.0703,0.0026 0.15802,0.124689 -0.0332,0.06471 -0.0345,0.09984 -0.001,0.03074 0.0269,0.102161 0.0849,-0.03638 0.39422,-0.191839 l 0.11533,-0.02644 q 0.14674,-0.04285 0.19065,-0.04119 0.14492,0.0055 0.24783,0.0753 0.0708,-0.129261 0.41403,-0.133923 l 0.55282,0.03402 q 0.0789,0.0074 0.0922,0.0035 0.0529,-0.0024 0.0704,-0.0017 0.079,0.003 0.16307,0.107288 0.0917,0.01665 0.20814,0.0782 0.24683,0.10165 0.33931,0.215074 0.0127,0.01367 0.0359,0.0981 0.0117,0.04002 0.0491,0.0986 l 0.18137,-0.02835 q 0.14319,0.168106 0.19498,0.310782 0.0661,0.231166 0.10601,0.57129 l -1.6e-4,0.0044 q -0.001,0.03952 -0.003,0.07465 -0.006,0.04375 -0.006,0.04814 -0.003,0.07026 0.0153,0.176484 -3.3e-4,0.0088 -3.3e-4,0.0088 -8.2e-4,0.02196 -0.0774,0.186184 -0.0477,0.09935 -0.13985,0.210216 l -0.13562,0.214773 q -0.0905,0.06695 -0.14665,0.157189 l -0.16978,-0.04597 q -0.066,0.234986 -0.21342,0.295398 -0.0133,0.0039 -0.1145,0.0045 -0.0703,-0.0026 -0.11484,0.01327 0.009,0.233407 -0.62712,0.420538 -0.16935,0.05958 -0.23539,0.0615 l -0.303,-0.01141 q -0.0176,-6.61e-4 -0.0534,0.01558 -0.10283,0.0445 -0.12917,0.04351 -0.0132,-4.96e-4 -0.0997,-0.03894 -0.17028,-0.0328 -0.3495,-0.06154 l 0.0162,-0.07855 q -0.054,-0.19993 -0.076,-0.200757 0,0 -0.0472,0.08617 -0.0575,0.125366 -0.0761,0.151053 -0.0184,0.02129 -0.0711,0.01931 l -0.0307,-0.0012 -0.0439,-0.0017 q -0.0263,-9.93e-4 -0.066,0.0019 -0.0264,-9.93e-4 -0.0395,-0.0015 -0.0395,-0.0015 -0.10407,-0.0391 -0.0432,0.09512 -0.0453,0.152211 -0.003,0.07026 10e-4,0.321069 0.007,0.05742 0.005,0.09255 -0.002,0.06148 -0.0337,0.07789 l -0.13895,0.06953 q -0.0179,0.0081 -0.034,0.08667 -0.0162,0.07855 -0.0388,0.09529 l -0.0677,0.04582 q 0.21478,0.135622 0.219,0.140179 0.008,0.0091 0.0242,0.05808 0.008,0.03107 0.0323,0.194711 0.007,0.286103 0.0118,0.387437 l -0.10639,0.02238 q -0.0108,0.05237 -0.0123,0.09189 -6.6e-4,0.01757 0.0409,0.199434 0.004,0.01773 0.003,0.04847 -10e-4,0.03513 -0.007,0.07888 l 0.0795,-0.0102 q 0.001,0.202336 0.008,0.264147 0.002,0.07043 -0.003,0.316512 l 0.0222,0.110778 q -8.2e-4,0.02196 -0.0249,0.07822 -0.0794,0.0058 -0.12428,0.0305 l 0.13315,0.08417 q -0.006,0.04375 -0.007,0.07888 -0.001,0.03952 0.0129,0.123621 0.0185,0.09305 0.0186,0.207389 -0.10804,0.06629 -0.13571,0.100431 -0.0182,0.0169 -0.0703,0.116087 l -0.10249,0.03572 q -0.16173,0.09066 -0.31154,0.09821 l -0.004,-1.65e-4 -0.11302,-0.03504 q 0.14268,-0.05179 0.1614,-0.08187 0.023,-0.02552 0.0375,-0.17889 l 0.18186,-0.274599 -0.31969,-0.385842 q 0,0 0.0137,-0.01268 0.0275,-0.02975 0.0783,-0.0938 l -0.0259,-0.247242 q 0.0324,-0.04276 0.0461,-0.05543 0.0731,-0.07201 0.0742,-0.102747 0.001,-0.03074 -0.0502,-0.06786 -0.0642,-0.0464 -0.0769,-0.06007 0.26322,-0.100025 0.26488,-0.143939 8.3e-4,-0.02196 -0.22032,-0.105048 l -0.0129,-0.0093 q 0.21998,-0.119245 0.22147,-0.158768 9.9e-4,-0.02635 -0.15563,-0.304902 -0.0621,-0.103484 -0.0583,-0.204486 8.3e-4,-0.02196 0.0779,-0.551168 l 0.0674,-0.03704 -0.003,-0.277155 q -0.13481,-0.04026 -0.12985,-0.172002 0.001,-0.03074 0.0354,-0.354877 l 0.0213,-0.214683 0.0256,-0.680669 q 0.001,-0.03074 0.0531,-0.125531 l -0.002,-0.175988 0.006,-0.05253 q 0.002,-0.04831 -0.0888,-0.09569 -2.5e-4,-0.10995 0.001,-0.153865 0.002,-0.06587 0.004,-0.114176 0.009,-0.114012 0.01,-0.149143 3.3e-4,-0.0088 8.2e-4,-0.02196 -0.002,-0.18477 -0.002,-0.189161 1.7e-4,-0.0044 0.0104,-0.04358 0.0147,-0.03903 0.0155,-0.06098 l 3.3e-4,-0.0088 q -0.031,-0.344184 -0.0454,-0.428283 -0.0115,-0.04441 -0.12272,-0.127757 z m 0.6276,0.617324 0.0338,0.03646 0.0483,0.0018 q 4.2e-4,0.105559 -0.003,0.184604 -0.002,0.0527 -0.008,0.09206 -0.0119,0.0831 -0.0128,0.105063 -1.7e-4,0.0044 0.0121,0.145578 -1.6e-4,0.0044 -1.6e-4,0.0044 -0.001,0.03952 -0.0816,0.181627 0.0568,0.125276 0.0599,0.160573 l -0.003,0.20217 0.008,0.242189 q -1.7e-4,0.0044 -0.0108,0.05237 -0.006,0.03936 -0.0175,0.113681 0.0772,0.05128 0.10746,0.06562 0.23284,0.12311 0.26665,0.159565 0.013,0.0049 0.0419,0.05435 0.0633,-0.04599 0.0896,-0.045 0.0264,9.93e-4 0.0956,0.02999 0.0477,0.01938 0.15288,0.02775 0.13174,0.005 0.14897,0.01441 l 0.2862,0.10753 q 0.0174,0.0051 0.0437,0.006 0.004,1.66e-4 0.31345,-0.03217 l 0.15993,0.190725 0.13861,-0.06074 q 0.15668,-0.07326 0.20631,-0.106567 0.0317,-0.02519 0.12742,-0.113936 l 0.16679,-0.108055 0.14631,-0.148406 q 0.19479,-0.150978 0.22669,-0.180559 0.0505,-0.05527 0.15831,-0.350246 0.0683,-0.177732 0.0712,-0.256777 0.002,-0.04831 -0.005,-0.101333 -0.01,-0.09272 -0.008,-0.13663 10e-4,-0.03074 0.0344,-0.09545 -0.10275,-0.07423 -0.13523,-0.145819 -0.0288,-0.05385 -0.054,-0.19993 -0.098,-0.08285 -0.16448,-0.186499 -0.046,-0.0633 -0.0453,-0.08087 10e-4,-0.03513 0.0207,-0.08277 -0.0582,-0.09014 -0.13283,-0.09296 -0.0307,-0.0012 -0.1677,0.01567 -0.0943,-0.06512 -0.12404,-0.09263 -0.15346,-0.128915 -0.19721,-0.134961 -0.009,-0.0047 -0.17549,-0.01101 -0.0902,-0.05617 -0.0902,-0.05617 -0.0561,-0.0285 -0.23176,-0.03512 -0.44353,-0.01671 -0.607,0.0035 -0.0355,0.0075 -0.33739,0.08404 l -0.11923,0.0131 q -0.0399,0.0073 -0.13439,0.0653 -0.12362,0.01293 -0.15634,0.06447 -0.0327,0.05154 -0.036,0.139367 -10e-4,0.03513 5.9e-4,0.101168 -0.20739,0.01857 -0.35528,0.09216 l 0.24343,0.07514 z"
         id="path8973"
         style="fill:#000000;fill-opacity:1;stroke:none" />
      <path
         d="m 187.66764,76.254986 0.15257,-0.06497 q 0.0528,0.08838 0.0755,0.114185 0.007,0.01005 0.0843,0.05775 0.04,0.02853 0.31598,0.423377 0.0871,0.124916 0.11117,0.226567 0.0218,0.08794 0.0424,0.2113 0.0165,0.06487 0.0362,0.165841 l -0.0352,0.02561 q -0.0464,-0.01619 -0.12409,-0.05955 l -0.17452,0.03483 -0.14351,-0.04926 -0.13569,0.01425 q -0.23911,-0.233344 -0.25214,-0.235392 -0.026,-0.0041 -0.23202,0.145897 -0.26964,-0.09579 -0.28701,-0.09852 -0.0695,-0.01092 -0.16701,-0.01292 l -0.019,-0.02078 q -0.0708,-0.0022 -0.37904,-0.05072 l -0.16336,-0.0079 -0.20242,-0.01404 -0.2095,0.0026 -0.18164,-0.03302 q -0.26408,0.03854 -0.35729,0.03722 -0.0449,0.144185 -0.0755,0.197206 -0.0363,0.06102 -0.12672,0.126872 0.1239,0.117354 0.12644,0.15779 -2.9e-4,0.284662 0.0238,0.386313 l 0.0713,0.0557 -0.047,0.157209 0.12912,0.0559 q 0.0154,0.184816 0.0753,0.256517 0.0562,0.06668 0.20477,0.11228 5.4e-4,0.13799 0.0442,0.171547 0.0306,0.03151 0.15082,0.05931 l 0.056,0.124477 q 0.0491,-0.0012 0.0838,0.0043 0.026,0.0041 0.2434,0.149496 0.048,0.03424 0.10877,0.0438 0.0564,0.0089 0.2296,-0.01727 l 0.28261,0.01331 0.22228,-0.02732 q 0.1533,0.01521 0.20813,0.006 0.0786,-0.01878 0.29305,-0.109608 0.20944,-0.08717 0.24666,-0.125801 0.0925,-0.07887 0.18037,-0.185161 0.0429,-0.04663 0.12975,-0.03298 0.0391,0.0061 0.10399,0.07419 -0.055,0.151502 -0.0885,0.195158 -0.23081,0.279546 -0.29427,0.371882 -0.0523,-0.03492 -0.0914,-0.04107 -0.026,-0.0041 -0.15691,0.06429 -0.0863,0.0398 -0.20491,0.03005 -0.28076,0.03147 -0.387,0.0281 -0.18072,-0.01063 -0.23052,-0.0051 -0.1414,0.02225 -0.14574,0.02156 l -0.24998,-0.07936 -0.15604,0.0022 -0.0745,-0.0073 q -0.10624,-0.0034 -0.16268,-0.01224 -0.0564,-0.0089 -0.31212,-0.08023 -0.0811,-0.02166 -0.0811,-0.02166 l -0.0823,-0.07077 q -0.30988,-0.151055 -0.34188,-0.173882 -0.0196,-0.01644 -0.12711,-0.15345 -0.007,-0.01005 -0.13692,-0.119403 -0.10995,-0.09292 -0.11248,-0.133353 l -0.0563,-0.151208 q -0.0119,-0.03746 -0.12165,-0.188178 0.0543,-0.06263 0.0598,-0.09736 0.002,-0.01302 -0.0746,-0.260858 -0.0208,-0.06556 0.0276,-0.373778 0.015,-0.09551 0.10994,-0.303004 0.0787,-0.161112 0.10453,-0.183745 l 0.17491,-0.150432 0.12759,-0.189013 q 0.16945,-0.115702 0.38777,-0.259306 l 0.34763,-0.145509 0.35607,-0.170873 0.12063,-0.0033 0.34631,-0.0523 0.21545,0.01609 q 0.27115,-0.05522 0.2972,-0.05112 0.2431,0.03824 0.29374,0.281973 z m -0.606,0.571971 0.0595,0.102771 q 0.0896,-0.0037 0.12062,-0.0033 0.11994,0.0011 0.24398,-0.02391 l 0.24404,0.06063 q 0.004,6.82e-4 0.0285,-0.04 0.008,-0.02536 0.0112,-0.04273 0.006,-0.03907 -0.0371,-0.103699 -0.007,-0.01005 -0.0352,-0.05892 -0.0823,-0.155304 -0.10975,-0.150718 l -0.13234,-0.09199 q -0.024,-0.01712 -0.0668,-0.11282 -0.12316,-0.03717 -0.42704,-0.08496 l -0.0861,-0.018 -0.16125,0.06361 q -0.0101,0.0073 -0.24833,0.02322 -0.19257,0.03644 -0.34104,0.07537 -0.0338,0.01693 -0.19252,0.12097 -0.0295,0.01761 -0.11214,0.06244 l -0.004,0.02605 0.007,0.01005 0.2971,0.175737 0.0805,0.110527 0.20139,-0.177406 q 0.0244,-0.01395 0.0505,-0.0099 0.013,0.002 0.20384,0.08989 0.004,6.82e-4 0.009,0.0014 0.0564,0.0089 0.25427,-0.0045 0.0455,-0.0062 0.14233,1.44e-4 z"
         id="path8975"
         style="fill:#000000;fill-opacity:1;stroke:none" />
      <path
         d="m 190.04,77.004855 q 0.0748,-0.138936 0.27913,-0.169214 0.23809,-0.103031 0.33129,-0.07734 0.0974,0.02686 0.10884,0.0847 0.005,0.01505 -0.055,0.249221 -0.0163,0.05931 0.0344,0.255632 0.22902,-0.16935 0.2575,-0.156938 l 0.17397,-0.05233 q 0.208,-0.09309 0.25461,-0.08025 0.0551,0.01518 0.0845,0.123566 0.27972,-0.10523 0.5085,-0.04217 0.0466,0.01285 0.077,0.0349 0.0777,0.04878 0.0777,0.04878 0.18157,-0.01377 0.21546,-0.0044 0.0466,0.01285 0.2244,0.111999 0.10738,0.05695 0.20249,0.09228 0.0395,0.08837 0.0637,0.09961 l 0.0928,0.04381 q 0.10547,0.04731 0.19302,0.308482 0.0504,0.164329 -0.0773,0.644223 -0.10168,-0.02803 -0.2181,-0.01909 -0.11643,0.0089 -0.12577,0.04282 -0.001,0.0042 0.24064,0.234995 0.0292,0.02629 0.0105,0.09407 -0.0199,0.07202 -0.15173,0.236239 -0.007,0.0073 -0.0112,0.02425 -0.014,0.05084 0.0516,0.160092 -0.0372,0.08546 -0.0547,0.149012 -0.0117,0.04237 0.004,0.233579 l -0.0557,0.235344 -0.0434,0.206856 -0.0618,0.174431 q -0.0117,0.04236 -8.4e-4,0.168429 -0.13774,0.0532 -0.19135,0.06577 -0.0247,0.0069 -0.21283,0.02794 -0.0386,0.0076 -0.21911,0.06724 -0.0847,-0.155557 -0.0614,-0.240288 0.008,-0.02965 0.16735,-0.309427 0.0101,-0.02002 0.0353,-0.0951 0.0148,-0.03696 0.0218,-0.06238 l 0.0929,-0.0063 q 0.22,0.02874 0.23008,0.0087 0,0 -0.0384,-0.0425 -0.0842,-0.09158 -0.28738,-0.197735 0.0756,-0.175164 0.12428,-0.202782 L 192.49137,79.39 q 0.12854,-0.06941 0.15073,-0.149906 0.005,-0.01695 -0.24575,-0.199935 l 0.0548,-0.149011 0.0407,-0.230374 q 0.001,-0.0042 0.0221,-0.03039 0.0286,-0.03769 0.0678,-0.113516 -0.0468,-0.09494 -0.0398,-0.120362 l 0.0626,-0.210658 q 0.0117,-0.04237 -0.0362,-0.133071 -0.0479,-0.09071 -0.0281,-0.162726 l -0.0142,-0.03126 q -0.0935,-0.05768 -0.10154,-0.07813 l -0.0626,-0.236052 q -0.0187,-0.06442 -0.0611,-0.0761 -0.072,-0.01985 -0.19705,0.03685 -0.19413,0.09236 -0.31698,0.05849 -0.0212,-0.0058 -0.16436,-0.08177 l -0.10268,0.0583 -0.006,0.02118 q -0.0306,-0.23635 -0.11954,-0.260874 -0.004,-0.0012 -0.0513,0.0041 -0.0675,0.01331 -0.14417,0.0104 -0.096,8.95e-4 -0.26031,0.05132 -0.23912,0.05716 -0.28936,0.107131 -0.0958,0.08299 -0.12267,0.180431 -0.001,0.0042 -0.0663,0.273473 l -0.004,0.01271 -10e-4,0.0042 q -0.021,0.07626 -0.0608,0.0881 l -0.22918,0.08725 q -0.0355,0.01301 -0.0413,0.03419 -0.0117,0.04236 0.0529,0.105751 0.14494,0.13568 0.16335,0.168106 0.0142,0.03126 -0.001,0.08633 -0.004,0.01271 -0.0318,0.0824 l -0.078,0.315838 q -0.007,0.02542 -0.11129,0.106075 -0.012,0.01037 -0.0213,0.04427 -0.021,0.07626 0.0446,0.185511 l -0.0162,0.0092 q -0.0196,0.104012 -0.0289,0.137904 -0.052,0.254625 -0.0385,0.404208 -0.0669,0.07729 -0.11392,0.08256 -0.0193,0.0038 -0.14681,-0.01312 -0.0212,-0.0058 -0.0652,0.0048 -0.0567,0.0072 -0.0748,0.0067 -0.0308,-0.0039 -0.0799,0.04179 -0.0479,0.0415 -0.11146,0.02398 -0.0254,-0.007 -0.0599,-0.08033 -0.0246,-0.04323 -0.014,-0.08136 0.009,-0.03389 0.0295,-0.07392 0.0647,-0.118921 0.0705,-0.140104 l 0.093,-0.320807 q 0.072,-0.112349 0.0778,-0.133531 0.0117,-0.04237 0.0111,-0.106348 0.002,-0.09057 0.0103,-0.120225 0.005,-0.01695 0.0318,-0.08239 0.0159,-0.0412 0.0241,-0.07085 0.0152,-0.05507 0.0401,-0.162156 0.01,-0.05201 0.0238,-0.102844 0.0152,-0.05507 0.0682,-0.13163 l 0.1338,-0.02238 q 0.002,-0.04046 -0.0133,-0.06749 -0.0219,-0.01972 -0.12973,-0.05855 0.018,-0.08166 0.032,-0.1325 0.0105,-0.03813 0.052,-0.122424 0.0101,-0.02002 0.0182,-0.04967 0.0269,-0.09744 0.0527,-0.37295 l 0.11262,-0.02821 q -0.0478,-0.140811 -0.0504,-0.164329 -0.005,-0.01505 0.01,-0.102111 0.0144,-0.06895 -0.0503,-0.214434 z"
         id="path8977"
         style="fill:#000000;fill-opacity:1;stroke:none" />
      <path
         d="m 196.37798,80.210007 q 0.039,-0.08365 0.10449,-0.203419 l 0.0498,-0.117372 q 0.009,-0.01992 0.0549,-0.07623 0.14951,0.07452 0.45518,0.250888 l -0.006,0.01195 0.0298,0.08175 q 0.11307,-0.03458 0.15503,-0.01018 l 0.004,0.0019 0.22944,0.121461 0.0876,0.04084 0.0863,0.06446 0.10434,0.005 0.14538,0.281064 0.20117,-0.119582 q 0,0 0.005,0.0215 0.009,0.03318 0.0439,0.09316 0.18636,-0.01497 0.21637,0.0039 l 0.27354,0.151701 0.17897,0.0737 q 0.0279,0.01299 0.10013,0.06605 0.0648,-0.0038 0.0648,-0.0038 0.086,0.05464 0.09,0.0565 0.0438,0.02042 0.11126,0.04215 0.0338,0.08361 0.0577,0.09475 0.004,0.0019 0.19673,0.0044 l 0.15535,0.07239 0.0616,0.02386 q 0.14738,0.06868 0.24058,0.09756 0.0239,0.08388 0.0165,0.09981 l -0.0881,0.157747 -0.0299,0.126653 q -0.006,0.01195 -0.052,0.03879 -0.0499,-0.02811 -0.0898,-0.04667 -0.0199,-0.0093 -0.0457,-0.01643 -0.13648,-0.02966 -0.14046,-0.03151 -0.0242,-0.02096 -0.0309,-0.121042 -0.13299,0.0253 -0.1869,-0.0047 l -0.004,-0.0019 q -0.11737,-0.04984 -0.13126,-0.196914 0,0 -0.0176,-0.139103 l -0.36553,0.07693 -0.0485,-0.260146 -0.30419,0.09097 q -0.008,-0.0037 -0.0112,-0.04884 l -0.06,0.03508 -0.12628,-0.301252 -0.13404,0.05875 q -0.0982,0.07545 -0.13802,0.05689 l -0.004,-0.0019 -0.15299,-0.129469 -0.004,-0.0019 q -0.0199,-0.0093 -0.0552,-0.0063 -0.0334,-0.001 -0.0374,-0.0029 l -0.0893,-0.245256 -0.24313,0.09518 -0.1243,-0.08701 -0.081,-0.01349 -0.141,-0.05116 -0.13118,-0.05143 q -0.0677,-0.03155 -0.11868,-0.02621 z m 0.72343,-1.427648 q 0.0438,0.02042 0.0797,0.03712 0.0916,0.04269 0.0967,0.08384 l 0.0439,0.238644 0.25798,-0.127048 q 0,0 0.009,0.03318 0.0191,0.05255 0.0978,0.123128 l 0.13327,-0.01547 0.0757,0.03527 0.1195,0.05568 -0.041,0.223295 0.11756,-0.08582 q 0.0886,-0.06536 0.1205,-0.05051 0.0119,0.0056 0.026,0.01698 0.0701,0.04722 0.12987,0.07506 0.008,0.0037 0.23818,0.0819 l 0.16177,0.162649 q 0.12159,-0.01122 0.14336,-0.0059 0.0119,0.0056 0.0757,0.03527 l 0.17712,0.07769 0.0119,0.0056 q 0.0279,0.01299 0.10677,0.09339 0.004,0.0019 0.008,0.0037 0.008,0.0037 0.0218,0.0053 0.0929,0.01906 0.14073,0.04134 l 0.15535,0.07239 0.0319,0.01485 0.0398,0.01856 0.0398,0.01856 q 0.0677,0.03155 0.11371,0.130553 l 0.095,-0.04784 q 0.0874,0.03101 0.11525,0.044 0.22437,0.08031 0.34917,0.114225 0.0154,0.06052 -0.007,0.108321 l -0.0278,0.05975 q -0.0875,0.177392 -0.14532,0.291052 l -0.10701,-0.03047 q -0.10117,-0.0326 -0.1649,-0.0623 -0.0478,-0.02227 -0.0988,-0.08968 -0.0313,0.0048 -0.0313,0.0048 l -0.13498,-0.188947 -0.0746,-0.06872 -0.0903,-0.139062 -0.23462,0.118539 -0.0713,-0.231991 -0.28536,0.06096 q -0.008,-0.0037 -0.0114,-0.05867 -0.14893,0.01787 -0.18478,0.0012 -0.0279,-0.01299 -0.0811,-0.23172 l -0.28961,0.04928 q 0,0 -0.006,-0.0077 -0.0165,-0.02707 -0.0494,-0.08121 l -0.0425,0.0287 -0.096,-0.272597 -0.24656,0.112971 q -0.0386,-0.260417 -0.0626,-0.271554 -0.0199,-0.0093 -0.23466,0.0458 l -0.14417,-0.02355 -0.17151,-0.01689 q -0.026,-0.01698 -0.0481,-0.104839 l -0.11652,0.05237 q -0.0238,-0.292284 -0.0676,-0.312701 -0.0717,-0.03341 -0.19425,0.156746 0.002,-0.004 0.004,-0.008 0.004,-0.008 -0.001,-0.03929 -0.002,-0.0058 0.002,-0.01381 0.007,-0.01593 0.0302,-0.04409 0.0345,-0.03241 0.0549,-0.07622 0.007,-0.01593 0.0127,-0.03771 0.0307,-0.09718 0.0307,-0.09718 0.0225,-0.03798 0.0958,-0.09112 z"
         id="path8979"
         style="fill:#000000;fill-opacity:1;stroke:none" />
      <path
         d="m 201.22663,82.588093 q 0.0492,-0.07807 0.12929,-0.188632 l 0.0642,-0.110156 q 0.0117,-0.01859 0.0641,-0.0687 0.13893,0.09276 0.41994,0.306244 l -0.007,0.01115 0.0192,0.08485 q 0.11654,-0.02005 0.15509,0.0094 l 0.004,0.0023 0.21231,0.149404 0.0818,0.05155 0.0775,0.07483 0.10288,0.01809 0.10881,0.297143 0.21463,-0.09328 q 0,0 0.002,0.0219 0.005,0.03402 0.0318,0.09794 0.18676,0.0086 0.21416,0.03109 l 0.25224,0.184959 0.16826,0.09567 q 0.026,0.0164 0.091,0.07814 0.0647,0.0044 0.0647,0.0044 0.0785,0.06505 0.0822,0.06739 0.0409,0.02578 0.10507,0.05583 0.023,0.0872 0.0453,0.101256 0.004,0.0023 0.1946,0.02915 l 0.14499,0.09139 0.0581,0.03143 q 0.13756,0.0867 0.22637,0.127099 0.0132,0.08623 0.004,0.101098 l -0.10722,0.145394 -0.0456,0.121872 q -0.007,0.01115 -0.0565,0.03193 -0.046,-0.03418 -0.0832,-0.05761 -0.0186,-0.01172 -0.0432,-0.02206 -0.13165,-0.04662 -0.13537,-0.04896 -0.0213,-0.02384 -0.0154,-0.123967 -0.13512,0.0083 -0.18483,-0.02819 l -0.004,-0.0023 q -0.11015,-0.06424 -0.1054,-0.211884 0,0 7e-5,-0.140212 l -0.37231,0.03026 -0.0153,-0.264179 -0.31323,0.05191 q -0.007,-0.0047 -0.005,-0.04986 l -0.0639,0.02724 -0.0873,-0.314762 -0.14037,0.04139 q -0.10691,0.06248 -0.14409,0.03905 l -0.004,-0.0023 -0.13546,-0.147715 -0.004,-0.0023 q -0.0186,-0.01172 -0.054,-0.01325 -0.0331,-0.0052 -0.0368,-0.0076 l -0.0577,-0.254558 -0.25319,0.06379 -0.11234,-0.101977 -0.0786,-0.02359 -0.13343,-0.06852 -0.12366,-0.06755 q -0.0632,-0.03984 -0.11443,-0.04096 z m 0.89756,-1.325113 q 0.0409,0.02578 0.0744,0.04686 0.0855,0.0539 0.0854,0.09535 l 0.0135,0.242279 0.27193,-0.09353 q 0,0 0.005,0.03402 0.0124,0.05455 0.0815,0.134466 l 0.13415,0.0014 0.0706,0.04452 0.11153,0.0703 -0.0688,0.216346 0.12743,-0.07032 q 0.0962,-0.05367 0.12591,-0.03492 0.0111,0.007 0.0237,0.02012 0.0636,0.05567 0.11937,0.09082 0.007,0.0047 0.22597,0.111259 l 0.13998,0.181737 q 0.12203,0.0042 0.14296,0.01219 0.0112,0.007 0.0706,0.04452 l 0.16592,0.09938 0.0111,0.007 q 0.026,0.0164 0.0942,0.106099 0.004,0.0023 0.007,0.0047 0.007,0.0047 0.0209,0.008 0.0898,0.03062 0.1344,0.05874 l 0.14499,0.09139 0.0297,0.01875 0.0372,0.02343 0.0372,0.02343 q 0.0632,0.03983 0.0964,0.143839 l 0.10028,-0.03549 q 0.0828,0.04177 0.10878,0.05818 0.21247,0.107947 0.332,0.157312 0.008,0.06198 -0.0204,0.106596 l -0.0352,0.05576 q -0.10916,0.164952 -0.18084,0.270421 l -0.10231,-0.04371 q -0.0962,-0.04509 -0.15574,-0.08258 -0.0446,-0.02812 -0.0867,-0.101413 -0.0317,8.11e-4 -0.0317,8.11e-4 l -0.11009,-0.204449 -0.0654,-0.07757 -0.0721,-0.149337 -0.24769,0.08803 -0.0415,-0.239124 -0.29077,0.02451 q -0.007,-0.0047 -0.004,-0.05964 -0.14999,-0.001 -0.18345,-0.02213 -0.026,-0.0164 -0.0513,-0.240094 l -0.29352,0.01239 q 0,0 -0.005,-0.0084 -0.0129,-0.02893 -0.0388,-0.08679 l -0.0457,0.02312 -0.0609,-0.28252 -0.25884,0.081 q -0.006,-0.263211 -0.0278,-0.27727 -0.0186,-0.01172 -0.23857,0.01586 l -0.14005,-0.04152 -0.16802,-0.03837 q -0.0237,-0.02012 -0.0345,-0.110065 l -0.12219,0.03727 q 0.0132,-0.292952 -0.0277,-0.318728 -0.0669,-0.04218 -0.21245,0.13102 0.002,-0.0037 0.005,-0.0074 0.005,-0.0074 0.004,-0.03911 -0.001,-0.0061 0.003,-0.0135 0.009,-0.01487 0.0356,-0.03992 0.0383,-0.0278 0.0641,-0.0687 0.009,-0.01487 0.0174,-0.0358 0.0427,-0.09254 0.0427,-0.09254 0.0271,-0.03483 0.10651,-0.07832 z"
         id="path8981"
         style="fill:#000000;fill-opacity:1;stroke:none" />
      <path
         d="m 207.62248,82.77832 q 0.10192,0.180503 0.10977,0.260913 0.007,0.07422 -0.0413,0.216342 l 0.15276,0.125584 q -0.0357,0.209553 -0.0133,0.279175 0.012,0.02693 0.17102,0.248689 0.021,0.02293 0.0103,0.105152 -0.0167,0.117147 -0.024,0.202159 l 0.12741,0.121815 -0.0152,0.163839 0.1256,0.103259 q -0.033,0.109378 -0.0276,0.165047 0.001,0.01237 0.0544,0.141432 0.0114,0.02074 -0.002,0.134495 -0.003,0.03153 -0.006,0.12552 l 0.21121,0.116755 q -0.0621,0.130954 -0.0397,0.200577 0.0132,0.0393 0.18038,0.216553 0.0999,0.127625 -0.0335,0.296753 l 0.16755,0.149118 q 0.014,0.07981 0.009,0.18956 -0.003,0.09399 0.006,0.192955 l 0.14499,0.141954 -0.0523,0.167463 q 0.0845,0.0979 0.14846,0.241524 0.10238,0.249145 0.10638,0.258122 0.004,0.009 0.0121,0.123707 0.0143,0.210908 0.0586,0.343967 l -0.0223,0.02716 q -0.1038,-0.03982 -0.2288,-0.136895 -0.11979,-0.07573 -0.2849,0.05591 -0.11859,-0.06336 -0.42817,-0.164264 l -0.14836,0.111272 -0.13714,-0.06154 q -0.0717,-0.03047 -0.084,-0.02926 l -0.25722,-0.01235 q -0.22374,-0.05309 -0.24848,-0.05067 -0.0467,0.0014 -0.13027,0.04082 l -0.1434,-0.15772 q -0.0956,0.01245 -0.13706,0.03524 -0.0678,0.04096 -0.13562,0.08193 l -0.14597,-0.120003 q -0.0963,0.06873 -0.12106,0.07114 -0.0213,0.0052 -0.17463,-0.02979 l -0.42408,-0.05851 -0.12696,-0.05317 -0.1824,-0.01341 q -0.18918,-0.019 -0.22629,-0.01537 -0.0551,0.01162 -0.16678,0.05063 l -0.1468,-0.16051 -0.23474,0.154047 L 204.61,87.15632 q -0.20985,0.08917 -0.24417,0.0894 -0.018,0.008 -0.13691,-0.02722 -0.0519,-0.01991 -0.20458,-0.04872 0.1053,-0.07272 0.14158,-0.116853 0.0251,-0.03055 0.11103,-0.14197 0.0301,-0.04353 0.0747,-0.09784 0.0893,-0.108628 0.14777,-0.117457 0.0523,-0.0082 0.12673,0.01885 0.23912,0.08281 0.28302,0.08477 0.0659,0.0029 0.3356,-0.04837 l 0.15457,0.144141 q 0.12408,-0.04021 0.15342,-0.02747 0.0275,-0.0058 0.12817,0.06554 l 0.15259,-0.06797 q 0.10063,0.07135 0.1563,0.06592 0.0467,-0.0014 0.13246,-0.0504 l 0.12801,0.128 q 0.1225,-0.02445 0.23067,-0.0038 0.0766,0.0175 0.20291,-0.0323 l 0.13579,0.111631 q 0.13539,-0.11625 0.20245,-0.100941 0.0417,0.01154 0.2334,0.152056 0.0164,0.0078 0.17184,0.03318 0.12054,0.01945 0.12333,0.01606 l 0.19431,-0.05644 q 0.0421,-0.0166 0.0838,-0.0051 0.13473,0.0368 0.15668,0.03778 0.0281,3.76e-4 0.12589,-0.02166 l 0.12123,0.122419 0.37331,-0.04581 0.006,-0.0068 q -0.053,-0.09474 -0.1686,-0.223947 -0.0632,-0.103112 -0.0166,-0.298106 l -0.13141,-0.130791 q -0.004,-0.07762 -0.004,-0.105756 0.004,-0.184582 -0.0363,-0.211886 -0.13639,-0.117816 -0.19553,-0.211952 l 0.14006,-0.260325 -0.32082,-0.184109 q 0.0467,-0.257453 0.0553,-0.392552 l -0.16272,-0.09964 0.0641,-0.174855 -0.1695,-0.105217 q -0.007,-0.136683 -0.0915,-0.393825 -0.0144,-0.05167 0.0308,-0.196578 -0.0805,-0.08893 -0.10546,-0.120836 -0.0799,-0.08274 -0.077,-0.148596 0.003,-0.03772 0.0322,-0.149886 -0.12063,-0.116233 -0.18317,-0.213159 0.0354,-0.08464 0.0516,-0.11119 0.0311,-0.06548 0.0219,-0.0958 -0.0104,-0.04269 -0.061,-0.112691 0.0414,-0.119563 0.0944,-0.184061 0.014,-0.01697 0.0437,-0.03236 0.14361,-0.06397 0.15199,-0.07416 0.008,-0.01018 0.0187,-0.06427 0.005,-0.0473 0.0306,-0.13412 z"
         id="path8983"
         style="fill:#000000;fill-opacity:1;stroke:none" />
      <path
         d="m 212.10769,89.820396 q -0.009,-0.07628 0.032,-0.10879 0.0173,-0.01355 0.20552,-0.09392 0.10427,-0.0593 0.4103,-0.181663 l 0.12686,0.14067 q 0.0388,-0.03597 0.097,-0.154089 0.0126,-0.02663 0.0438,-0.05101 0.0415,-0.03251 0.34801,-0.132904 0.16355,-0.08338 0.32725,-0.116651 0.10171,-0.01265 0.27971,-0.03479 0.031,0.05386 0.0349,0.07312 0.0233,0.06545 0.0287,0.07237 0.019,0.02422 0.0922,0.03941 0.0421,0.03957 0.0668,0.04257 0.0247,0.003 0.0743,-0.01912 l -0.0546,-0.09117 0.0975,-0.132121 v 0 q 0.0346,-0.02709 0.21968,-0.0045 0.0432,0.0053 0.11255,0.0012 0.11134,-0.01461 0.14219,-0.01085 0.10487,0.01278 0.18958,-0.01447 l 0.0432,0.0053 q 0.13872,-0.0081 0.1962,0.0083 0.0336,0.0072 0.20796,0.06603 l -0.002,0.01851 0.12429,0.05897 0.085,-0.05538 0.70585,0.167381 q 0.0397,0.008 0.14356,0.05505 l 0.13542,0.04467 0.0919,0.06755 q 0.19908,0.06182 0.21262,0.07912 0.0244,0.03114 0.0439,0.127439 l 0.16596,-0.05178 0.0834,0.163546 0.0739,-0.04109 q 0.124,0.0871 0.16763,0.114333 0.14597,0.08665 0.25387,0.203098 l 0.1124,0.07943 q 0.11903,0.102151 0.13679,0.110575 0.0382,0.02031 0.1273,0.03429 0.0345,0.05115 0.0616,0.08576 0.0325,0.04153 0.18043,0.137805 0.0579,0.03836 0.10669,0.100648 0.0406,0.05191 0.0647,0.111186 0.0194,0.04619 0.031,0.05386 l 0.37412,0.449395 q 0.096,0.136912 0.0616,0.342453 -0.0235,0.141139 -0.01,0.158441 0.0488,0.06229 0.23743,0.0039 0.014,0.167617 0.0736,0.243745 0.019,0.02422 0.0414,0.04574 0.0939,0.07718 0.0939,0.07718 l 0.0486,0.140529 q 0.23991,0.54887 0.28402,0.726414 l -0.10381,0.08126 -0.003,-0.0035 q -0.0987,-0.01203 -0.12684,-0.01232 -0.23518,-0.02239 -0.26769,-0.06391 -0.0271,-0.0346 -0.0444,-0.149407 -0.0748,-0.259544 -0.18184,-0.58875 l 0.079,-0.134375 q -0.068,-0.05837 -0.0912,-0.07372 -0.0607,-0.04182 -0.0688,-0.0522 -0.0108,-0.01384 -0.10341,-0.28181 -0.0245,-0.08125 -0.0139,-0.117512 0.0107,-0.03626 0.0241,-0.06907 -0.13437,-0.07898 -0.15875,-0.110121 l -0.15441,-0.197242 -0.2167,-0.27683 -0.0573,-0.09464 q -0.14612,-0.136755 -0.24573,-0.192716 l -0.18946,-0.192121 q -0.13333,-0.113285 -0.20677,-0.178578 -0.0394,-0.03611 -0.16447,-0.0889 l -0.21502,-0.110716 -0.18403,-0.05685 q -0.45098,-0.255285 -0.73039,-0.24863 -0.0919,-0.06755 -0.25671,-0.128316 -0.0415,0.03251 -0.0904,0.04846 -0.0888,-0.04212 -0.29236,-0.06692 l -0.14114,-0.02345 q -0.22314,0.0072 -0.26482,-0.01035 -0.0451,-0.01489 -0.0668,-0.04257 -0.0108,-0.01384 -0.029,-0.04423 -0.0218,0.05056 -0.0322,0.05868 -0.0104,0.0081 -0.41994,0.05527 -0.24135,-0.02314 -0.28875,-0.01952 -0.0289,0.0059 -0.2457,0.06398 l -0.22991,0.06277 -0.12473,0.04741 q -0.2454,0.03584 -0.34741,0.07663 -0.0662,0.0295 -0.24284,0.117544 -0.24479,0.107914 -0.27097,0.117246 -0.0566,0.02754 -0.1586,-0.06002 -0.0819,0.08081 -0.0865,0.196067 -0.11705,0.03582 -0.14474,0.0575 -0.0761,0.05959 -0.16865,0.176667 -0.008,0.01159 -0.0111,0.0143 -0.0311,0.02438 -0.0694,0.0041 l -0.31781,-0.192105 q -0.0348,-0.02302 -0.0624,-0.0013 -0.0138,0.01084 -0.0245,0.0471 -0.039,0.114208 -0.0662,0.157847 -0.051,0.08457 -0.049,0.0942 -0.003,0.124887 -0.006,0.255943 l -0.11313,0.183432 q -0.0329,0.06485 -0.10019,0.12866 l -0.0163,-0.02076 -0.1014,0.112862 0.0241,0.05928 q -0.036,0.08953 -0.0775,0.122038 l 0.008,0.01038 q -0.0611,0.06456 -0.0791,0.08427 -0.0937,0.101275 -0.10712,0.134079 l -0.0758,0.159804 q -0.17676,0.294633 -0.22175,0.329848 -0.0346,0.02709 -0.0888,-0.04212 l -0.0594,0.102324 q 0.0576,0.0665 0.0736,0.115399 0.0132,0.04544 0.0169,0.09284 -0.0254,0.13151 -0.0597,0.258808 l -0.0122,0.176949 -0.038,0.158145 q 0.0322,0.198008 0.0313,0.28242 -0.0803,0.06847 -0.0778,0.150174 0.003,0.103671 0.047,0.23111 l 0.0285,0.228855 0.0367,0.160993 0.0286,0.150613 0.0444,0.149407 0.003,0.125639 q 0.01,0.04815 -0.005,0.115257 0.0864,0.01052 0.12158,0.05551 0.005,0.0069 0.20695,0.485377 0.33243,0.431795 0.34869,0.452558 0.019,0.02422 0.0226,0.07162 0.0149,0.08321 0.0405,0.130148 0.0656,0.02678 0.091,0.02361 0.0459,0.0087 0.0567,0.02256 l 0.029,0.04423 0.0155,0.02693 0.25748,0.250494 q 0.0549,0.06304 0.313,0.257257 0.0622,0.157831 0.0811,0.182054 0.0406,0.05191 0.21503,0.110716 l 0.16538,0.132841 q 0.16492,0.110873 0.23053,0.137648 l 0.045,0.09313 q 0.0283,0.0504 0.30637,0.234539 0.32173,0.211364 0.33948,0.219788 0.0151,0.005 0.10909,0.0039 l 0.16868,0.08003 q 0.14626,0.05851 0.2194,0.151943 0.0163,0.02076 0.0443,0.0993 0.0927,-0.06697 0.13511,-0.05554 0.0309,0.0038 0.15093,0.0716 0.15243,0.05926 0.16326,0.07311 0.019,0.02422 0.0257,0.09705 -0.19423,0.129725 -0.34063,0.149455 -0.0763,0.0095 -0.17288,0.0572 -0.0393,0.014 -0.0844,-8.93e-4 -0.039,-0.01414 -0.28983,-0.241913 -0.14671,-0.08048 -0.18614,-0.116588 -0.0259,-0.01881 -0.19126,-0.151646 l -0.15033,-0.127877 -0.1723,-0.127423 -0.13453,-0.129083 q -0.2337,-0.163076 -0.26078,-0.19768 -0.0298,-0.03806 -0.0805,-0.10998 -0.0379,-0.04845 -0.1076,-0.144585 l -0.0208,0.01625 q -0.0658,0.05147 -0.13076,-0.03158 -0.0108,-0.01384 -0.0182,-0.03039 -0.0446,-0.07117 -0.0473,-0.07463 -0.003,-0.0035 -0.0367,-0.03265 l -0.43008,-0.34978 q -0.13332,-0.113284 -0.27839,-0.284346 l -0.21971,-0.252153 q 0,0 -0.0108,-0.01384 -0.0728,0.0068 -0.11962,-0.04588 -0.13153,-0.15376 -0.22092,-0.267952 -0.0569,-0.07267 -0.11921,-0.280604 -0.0132,-0.04544 -0.0539,-0.09735 -0.0352,-0.04498 -0.13543,-0.04467 l -0.12581,-0.174976 q 0.0481,-0.138134 0.005,-0.1935 l -0.008,-0.01038 q -0.0569,-0.07267 -0.10369,-0.125325 -0.0503,-0.04995 -0.0557,-0.05687 -0.10294,-0.131495 -0.15007,-0.412709 -0.0334,-0.213808 -0.10086,-0.456802 -0.0449,-0.428069 -0.073,-0.556714 l 0.0433,-0.07298 0.0596,0.07613 q 0.0277,-0.02167 0.0485,-0.03792 0.11419,-0.08939 0.0568,-0.184027 -0.0995,-0.0059 -0.12655,-0.04046 -0.0135,-0.0173 -0.008,-0.188833 l -0.0216,-0.36262 0.0435,-0.151223 0.011,-0.0644 0.0851,-0.261971 q 0.15551,-0.557044 0.54185,-1.004576 l 0.0957,0.0367 0.0657,-0.05147 -0.008,-0.11676 q 0.0796,-0.0623 0.12442,-0.147623 l 0.0564,-0.07765 q 0.029,-0.08411 0.0436,-0.101118 0.0111,-0.0143 0.12879,-0.106395 l 0.14142,-0.133029 0.0855,-0.03341 q 0.0733,-0.11316 0.10441,-0.137539 0.0796,-0.0623 0.19289,-0.06728 0.0123,0.0015 0.1497,-0.07254 z"
         id="path8985"
         style="fill:#000000;fill-opacity:1;stroke:none" />
      <path
         d="m 221.27518,95.170109 q 0.0486,0.04786 0.0974,0.07009 0.11413,0.05514 0.16208,0.0932 0.10568,0.07543 0.25923,0.102237 0.0112,0.01893 0.0201,0.03407 0.0513,0.08707 -0.0509,0.147329 l -0.008,0.0045 q -0.0227,0.01339 -0.0514,0.02523 -0.0212,0.0074 -0.0249,0.0096 l -0.11017,0.11597 -0.32692,0.172333 q -0.30887,0.176994 -0.32624,0.182136 -0.0423,0.01475 -0.14015,-0.0041 l -0.13453,0.04871 0.0355,0.08619 q -0.0813,0.07851 -0.12289,0.10306 -0.0719,0.04241 -0.19829,0.0098 -0.11046,0.05492 -0.14075,0.07278 -0.0416,0.02455 -0.0543,0.09831 -0.0697,0.04619 -0.10376,0.06628 l -0.48436,0.260053 -0.48077,0.283445 q -0.0379,0.02232 -0.18781,0.0189 -0.055,0.0018 -0.0891,0.02192 -0.008,0.0045 -0.15803,0.164591 -0.004,0.0022 -0.0189,0.01116 -0.0568,0.03348 -0.17558,-0.0036 l -0.1326,0.190412 -0.006,0.0595 -0.23471,0.138375 -0.84506,0.513523 -0.0818,-0.04359 q -0.0766,0.06046 -0.12959,0.0917 -0.0151,0.0089 -0.1951,0.08441 -0.008,0.0045 -0.10221,0.06026 l 0.0541,0.12628 q -0.0332,0.0043 -0.0332,0.0043 l -0.57688,0.431932 -0.16346,0.08617 q -0.10017,0.08967 -0.10017,0.08967 -0.16578,-0.0043 -0.17714,0.0024 -0.0189,0.01116 -0.038,0.04794 -0.0749,-0.05786 -0.23855,-0.145038 -0.0923,-0.05272 -0.10278,-0.06184 -0.008,-0.0053 -0.0462,-0.06969 -0.12549,-0.04845 -0.15897,-0.105233 -0.009,-0.01514 -0.0161,-0.06193 0.059,-0.02969 0.0969,-0.05201 0.0379,-0.02232 0.10843,-0.08433 0.0296,-0.02766 0.0561,-0.04328 0.0114,-0.0067 0.13521,-0.0389 l 0.0877,-0.04153 0.12249,-0.05181 0.0652,-0.05376 0.3919,0.19747 0.0312,-0.431617 0.0537,-0.02144 0.15191,-0.05385 0.11472,-0.02173 q 0.008,-0.0045 0.0961,-0.148487 0.016,-0.02475 0.0349,-0.03591 0.0114,-0.0067 0.19247,-0.03695 0.13433,-0.02308 0.2312,-0.07509 l -0.006,-0.113851 q 0.0946,-0.0558 0.12871,-0.07588 0.0826,-0.0589 0.1091,-0.07453 0.0114,-0.0067 0.19112,-0.05656 0.0174,-0.0051 0.0628,-0.03192 0.1325,-0.07811 0.28635,-0.189227 0.0561,-0.04328 0.10153,-0.07006 0.0379,-0.02232 0.20606,-0.03986 0.11959,-0.0654 0.19889,-0.08665 l 0.0478,-0.135294 0.83283,-0.491007 q 0.0669,0.02689 0.11365,0.01972 0.0778,-0.01523 0.18335,-0.02647 -0.0166,-0.09735 -0.008,-0.168884 0.12162,-0.03599 0.14812,-0.05161 0.0378,-0.02232 0.0355,-0.112778 0.0463,-0.0426 0.12958,-0.0917 l 0.15298,-0.09529 q 0.0303,-0.01785 0.1486,-0.01619 0.0218,0.0024 0.037,-0.0065 0.008,-0.0045 0.0585,-0.06512 0.057,-0.0591 0.0585,-0.06512 0,0 0.016,-0.02475 l 0.36802,0.165631 0.14738,-0.347063 q 0.10981,-0.263694 0.14388,-0.28378 0.0303,-0.01785 0.13832,-0.05094 0.0483,-0.01319 0.13608,-0.05472 z"
         id="path8987"
         style="fill:#000000;fill-opacity:1;stroke:none" />
      <path
         d="m 217.14904,99.677329 q 0.26136,-0.125755 0.39541,-0.151236 0.1182,-0.01786 0.36618,-0.03965 0.37908,0.01755 0.43011,0.02226 0.0471,0.0066 0.22625,0.115471 0.006,0.0021 0.14738,0.0022 0.0805,0.0052 0.10382,0.0232 0.0566,0.02641 0.30907,0.226798 0.0796,0.06411 0.24194,0.117675 0.0235,0.0082 0.41476,0.385643 0.20541,0.19377 0.42452,0.64917 0.0438,0.0911 0.0827,0.25284 l -0.0755,0.0559 q 0.003,0.0669 -0.01,0.12171 0.0484,0.0499 0.14869,0.0455 0.0573,0.24066 0.0245,0.45637 -0.0162,0.15896 -0.0283,0.18433 -0.008,0.0136 -0.10049,0.14589 -0.0846,0.13826 0.003,0.33025 -0.11267,0.17125 -0.17648,0.23122 -0.0619,0.0639 -0.22867,0.17342 -0.17073,0.11141 -0.26797,0.17283 l -0.0305,-0.0634 -0.0475,0.0229 -0.12918,-0.0354 q -0.0597,0.0482 -0.0734,0.17186 -0.17996,0.072 -0.24903,0.0906 -0.0315,0.005 -0.16718,0.007 -0.41502,0.0192 -0.53864,0.006 -0.35442,-0.0879 -0.4937,-0.23549 l -0.20981,-0.1624 -0.19221,-0.15623 q -0.16334,-0.11648 -0.18459,-0.14039 -0.0173,-0.0258 -0.20858,-0.37268 l -0.19278,-0.24862 -0.13528,-0.28116 -0.0768,-0.1191 q -0.10828,-0.37706 -0.14623,-0.46608 0.0367,-0.0859 0.0352,-0.11936 1.5e-4,-0.01 -0.0466,-0.16778 -0.0223,-0.0868 0.0198,-0.39477 0.003,-0.0452 0.0106,-0.18067 0.0598,-0.0581 0.0838,-0.0793 0.0359,-0.0368 0.0442,-0.0603 -0.002,-0.004 0.0154,-0.10983 -0.002,-0.004 0.0223,-0.0449 0.0967,-0.153808 0.23528,-0.220496 0.0673,-0.03239 0.16673,0.02219 0.0462,-0.06613 0.0439,-0.172299 z m 0.2888,0.397491 -0.0396,0.019 -0.0185,0.0528 q 0.0547,0.0225 0.0777,0.0602 -0.11939,0.0965 -0.17924,0.15452 -0.034,0.0408 -0.24544,0.37168 -0.006,0.008 -0.0219,0.0154 -0.0356,0.0172 -0.13389,0.0157 -0.0478,0.0425 -0.008,0.1355 0.0587,0.0206 0.072,0.0483 0.0114,0.0238 0.001,0.4285 -6.3e-4,0.17099 0.068,0.31355 l 0.11242,0.23364 0.0294,0.13213 q 0.0164,0.0848 0.0431,0.14021 0.0438,0.0911 0.1268,0.19258 0.056,0.0657 0.15231,0.19494 0.0309,0.0339 0.29985,0.18734 0.12579,0.12967 0.15511,0.13995 0.045,0.0125 0.30605,0.0381 l 0.24563,0.004 q 0.14267,0.0533 0.17406,0.0577 0.0353,0.002 0.0829,-0.0204 0.0645,-0.10908 0.0981,-0.12037 l 0.004,-0.002 0.0868,-0.0223 q 0.18597,-0.0797 0.31986,-0.0954 0.06,-0.0679 0.2014,-0.18956 l 0.17543,-0.16244 q 0.0358,-0.027 0.15664,-0.09 l 0.008,-0.0235 -0.0457,-0.095 q 0.0622,-0.0836 0.16374,-0.29824 0.0609,-0.12684 0.0631,-0.14253 0.008,-0.0136 0.003,-0.0943 -0.003,-0.0669 -0.0161,-0.23611 0.11955,-0.10628 0.0776,-0.1934 -0.0114,-0.0238 -0.0987,-0.10371 -0.0274,-0.138 -0.035,-0.15384 -0.0991,-0.20592 -0.13748,-0.26547 -0.0363,-0.0654 -0.19016,-0.16209 l 0.0194,-0.11174 q -0.10778,-0.0213 -0.13887,-0.0454 l -0.16905,-0.12836 -0.045,-0.0125 -0.62861,-0.282757 -0.0449,-0.0223 q -0.11469,0.04543 -0.15004,0.04293 l -0.1767,-0.01251 q -0.12994,0.01375 -0.23376,-0.0094 -0.0298,0.0192 -0.0535,0.03064 -0.0911,0.04382 -0.21321,-0.0681 -0.0119,0.0057 -0.0758,0.0755 -0.0238,0.143127 -0.0476,0.154557 -0.0436,0.021 -0.17771,-0.0754 z"
         id="path8989"
         style="fill:#000000;fill-opacity:1;stroke:none" />
      <path
         d="m 220.52122,106.48895 -0.11656,-0.0803 q -0.011,-0.17773 -0.0444,-0.27312 -0.0392,-0.11199 -0.11098,-0.2638 0.0794,-0.079 0.10161,-0.17525 l -0.13128,-0.0425 q -0.0429,-0.0828 -0.11823,-0.19142 -0.0299,-0.0454 -0.0429,-0.0827 -0.003,-0.008 -0.005,-0.0263 -0.022,-0.16923 -0.022,-0.16923 -10e-4,-0.004 -0.0168,-0.008 l 0.0554,-0.10785 q -0.0523,-0.0562 -0.0682,-0.10182 -0.006,-0.0166 0.005,-0.11822 0.001,-0.0236 0.003,-0.0848 1.7e-4,-0.35858 0.25318,-0.44716 0.21983,-0.077 0.49505,0.0176 0.0782,0.0238 0.30114,0.15531 l 0.10785,0.0554 0.18438,0.15429 q 0.28705,0.23474 0.39449,0.35543 0.24599,0.27705 0.31423,0.472 0.0116,0.0332 0.0436,0.40378 l 0.11284,0.20261 q 0.0587,0.2076 0.0537,0.24659 -0.0124,0.0975 -0.0539,0.11199 -0.0415,0.0145 -0.0975,-0.0124 -0.0127,-0.01 -0.19559,-0.15968 -0.18998,-0.15698 -0.19869,-0.18186 -0.0944,-0.2696 -0.10062,-0.4071 0.0726,-0.072 0.11053,-0.13647 l -0.009,-0.0249 -0.11054,-0.0498 q -0.0288,-0.0691 -0.0404,-0.10224 -0.0131,-0.0373 -0.0205,-0.072 -0.0118,-0.0471 -0.0191,-0.0678 -0.003,-0.008 -0.0626,-0.0991 0.0133,-0.0419 -0.0187,-0.13314 -0.0913,-0.0612 -0.26174,-0.21567 -0.0888,-0.0807 -0.22275,-0.11757 -0.13253,-0.0328 -0.22792,6.4e-4 -0.0456,0.016 -0.0885,0.11947 -0.008,0.0168 -0.0155,0.1684 -0.01,0.0919 -0.0346,0.1937 -0.0346,0.007 -0.0554,0.0147 -0.0871,0.0305 -0.0624,0.10101 0.0232,0.0664 0.16011,0.11156 0.0209,0.0998 0.0442,0.16612 0.009,0.0249 0.1201,0.22335 l 0.034,0.13708 q 0.0888,0.17378 0.0946,0.19038 0.0102,0.029 0.016,0.23186 l 0.0689,0.1435 -0.0514,0.18562 q -0.0278,0.27978 -0.0968,0.40173 -0.0597,0.0954 -0.10659,0.12112 l -0.12671,0.077 q -0.22853,0.14519 -0.26586,0.15826 -0.0249,0.009 -0.15098,0.0342 -0.27271,0.0722 -0.31918,-0.0605 -0.0145,-0.0415 -0.0209,-0.0998 -0.22481,0.0228 -0.26546,-1.8e-4 -0.28103,-0.11114 -0.37456,-0.13892 -0.10309,-0.20137 -0.25056,-0.30339 -0.0715,-0.0448 -0.08,-0.0558 -0.009,-0.011 -0.0487,-0.0993 l -0.20887,-0.30402 q -0.0291,-0.17607 -0.0349,-0.19266 -0.009,-0.0249 -0.15348,-0.22563 l -0.0224,-0.1039 q -0.0573,-0.20344 -0.0714,-0.31025 -0.0216,-0.23455 -0.001,-0.25571 l 0.0406,-0.16322 q 0.0636,-0.29699 0.10967,-0.37829 0.10161,-0.17525 0.23849,-0.22317 0.029,-0.0102 0.13149,0.0564 l 0.14289,0.0757 q 0.17132,0.11696 0.18003,0.14184 0.006,0.0166 -0.002,0.0334 -0.0579,0.12735 -0.16569,0.1651 l -0.13853,0.0299 -0.004,0.001 q -0.0388,0.009 -0.0508,0.0411 -0.0108,0.0224 -0.039,0.18126 -0.006,0.0348 -0.0278,0.0935 -0.0549,0.13564 -0.0535,0.13979 l -0.008,0.17524 -0.0253,0.16716 0.0552,0.15762 0.0141,0.1068 q 0.0994,0.13749 0.14561,0.25632 0.0448,0.11469 0.0927,0.15844 l 0.13544,0.13417 q 0.0921,0.11676 0.11594,0.13169 0.0898,0.057 0.34635,0.11154 0.2663,0.0558 0.54834,-0.043 0.0622,-0.0218 0.10307,-0.078 0.18808,-0.24743 0.26336,-0.325 z"
         id="path8991"
         style="fill:#000000;fill-opacity:1;stroke:none" />
      <path
         d="m 223.25231,110.49168 0.1177,0.11682 q -0.0619,0.0822 -0.0773,0.11294 -0.007,0.0106 -0.0217,0.0999 -0.0114,0.0478 -0.27302,0.45227 -0.0829,0.12778 -0.16795,0.18837 -0.0733,0.0533 -0.17973,0.11892 -0.0539,0.0397 -0.13996,0.096 l -0.037,-0.0229 q -0.002,-0.0491 0.008,-0.13738 l -0.0981,-0.14852 -0.008,-0.15149 -0.0643,-0.12031 q 0.12599,-0.30944 0.12298,-0.32227 -0.006,-0.0257 -0.2226,-0.15992 -0.0129,-0.28585 -0.0169,-0.30297 -0.0161,-0.0684 -0.051,-0.15956 l 0.0121,-0.0254 q -0.0246,-0.0664 -0.0959,-0.3702 l -0.0543,-0.15428 -0.0633,-0.19279 -0.0814,-0.19304 -0.0379,-0.1807 q -0.13524,-0.23006 -0.16916,-0.3169 -0.15049,0.0127 -0.21112,0.004 -0.0702,-0.0106 -0.16528,-0.0695 -0.062,0.15899 -0.0985,0.17658 -0.26377,0.10704 -0.34886,0.16764 l -0.0247,0.0871 -0.16332,0.0158 -0.003,0.14065 q -0.16537,0.084 -0.2092,0.16646 -0.0406,0.0772 -0.0268,0.23199 -0.1276,0.0525 -0.14223,0.1056 -0.0176,0.0403 0.002,0.16205 l -0.0942,0.0988 q 0.0196,0.0451 0.0276,0.0793 0.006,0.0257 -0.0467,0.2818 -0.0136,0.0574 4.4e-4,0.11726 0.013,0.0556 0.10254,0.20614 l 0.0942,0.26678 0.1091,0.19558 q 0.0437,0.14773 0.0729,0.19506 0.047,0.0657 0.21199,0.23011 0.15969,0.16114 0.2095,0.18104 0.10792,0.0559 0.23949,0.0973 0.0594,0.0222 0.0795,0.10775 0.009,0.0385 -0.0295,0.12428 -0.16104,0.006 -0.21413,-0.008 -0.34593,-0.10841 -0.45537,-0.13237 0.0126,-0.0617 0.004,-0.10015 -0.006,-0.0257 -0.1187,-0.1211 -0.0694,-0.065 -0.10508,-0.17847 -0.13498,-0.24818 -0.17191,-0.34785 -0.0583,-0.1714 -0.0822,-0.21544 -0.0739,-0.12259 -0.0749,-0.12687 l -0.0207,-0.26145 -0.0608,-0.14372 -0.0213,-0.0717 q -0.0369,-0.0997 -0.05,-0.15528 -0.013,-0.0556 -0.0434,-0.31935 -0.0105,-0.0833 -0.0105,-0.0833 l 0.0345,-0.1029 q 0.0231,-0.34396 0.0322,-0.3822 0.008,-0.0244 0.0942,-0.17559 0.007,-0.0106 0.059,-0.17183 0.0446,-0.13686 0.0811,-0.15445 l 0.11883,-0.10914 q 0.0302,-0.0252 0.12844,-0.18362 0.0785,0.0267 0.11272,0.0187 0.0128,-0.003 0.21348,-0.16746 0.0529,-0.044 0.35663,-0.11529 0.0941,-0.0221 0.32209,-0.0124 0.1789,0.0122 0.20959,0.0276 l 0.20527,0.1053 0.22317,0.0469 q 0.17104,0.11334 0.38635,0.26142 l 0.26582,0.26713 0.29249,0.26539 0.0485,0.11049 0.17899,0.30106 0.0663,0.20562 q 0.15336,0.23033 0.15938,0.256 0.0562,0.23958 -0.15044,0.37836 z m -0.75821,-0.34567 -0.0728,0.0938 q 0.0372,0.0816 0.0485,0.11049 0.0442,0.1115 0.11411,0.21698 l 0.0358,0.24888 q 0.001,0.004 0.0478,0.0114 0.0267,-0.002 0.0438,-0.006 0.0385,-0.009 0.0821,-0.0734 0.007,-0.0106 0.0413,-0.0548 0.11281,-0.13481 0.0982,-0.15847 l 0.0353,-0.15725 q 0.007,-0.0287 0.0793,-0.10438 -0.012,-0.12809 -0.0823,-0.42757 l -0.0158,-0.0866 -0.1197,-0.12538 q -0.0106,-0.007 -0.11512,-0.22125 -0.10634,-0.16463 -0.19837,-0.28747 -0.0284,-0.0249 -0.18462,-0.13272 -0.0274,-0.0207 -0.1001,-0.0803 l -0.0257,0.006 -0.007,0.0106 -0.0508,0.34143 -0.072,0.11621 0.24024,0.11967 q 0.0221,0.0174 0.0282,0.043 0.003,0.0128 -0.006,0.22269 0.001,0.004 0.002,0.009 0.013,0.0556 0.10001,0.23382 0.0229,0.0398 0.0535,0.13189 z"
         id="path8993"
         style="fill:#000000;fill-opacity:1;stroke:none" />
    </g>
  </g>
</svg>
