<?xml version="1.0" encoding="UTF-8" standalone="no"?>
<!-- Created with Inkscape (http://www.inkscape.org/) -->

<svg
   width="600mm"
   height="300mm"
   viewBox="0 0 600 300"
   version="1.1"
   id="svg316"
   inkscape:version="1.2 (dc2aedaf03, 2022-05-15)"
   sodipodi:docname="Parts D.svg"
   xmlns:inkscape="http://www.inkscape.org/namespaces/inkscape"
   xmlns:sodipodi="http://sodipodi.sourceforge.net/DTD/sodipodi-0.dtd"
   xmlns="http://www.w3.org/2000/svg"
   xmlns:svg="http://www.w3.org/2000/svg">
  <sodipodi:namedview
     id="namedview318"
     pagecolor="#ffffff"
     bordercolor="#000000"
     borderopacity="0.25"
     inkscape:showpageshadow="2"
     inkscape:pageopacity="0.0"
     inkscape:pagecheckerboard="0"
     inkscape:deskcolor="#d1d1d1"
     inkscape:document-units="mm"
     showgrid="false"
     inkscape:zoom="0.4204826"
     inkscape:cx="1117.7632"
     inkscape:cy="356.73295"
     inkscape:window-width="1920"
     inkscape:window-height="1017"
     inkscape:window-x="-8"
     inkscape:window-y="-8"
     inkscape:window-maximized="1"
     inkscape:current-layer="layer1" />
  <defs
     id="defs313" />
  <g
     inkscape:label="Layer 1"
     inkscape:groupmode="layer"
     id="layer1">
    <path
       id="path447-3-9-5"
       style="font-weight:bold;font-size:273.224px;line-height:1.25;font-family:Heavitas;-inkscape-font-specification:Heavitas;display:inline;fill:none;stroke:#fe0000;stroke-width:0.1;stroke-dasharray:none;stroke-opacity:1"
       d="M 13.95057 6.9701172 C 12.129083 6.9701172 10.580938 7.6076368 9.3058919 8.8826619 C 8.0309358 10.157694 7.3933472 11.70587 7.3933472 13.52734 L 7.3933472 200.41257 C 7.3933472 202.23406 8.0309358 203.78281 9.3058919 205.05777 C 10.580938 206.33282 12.129083 206.97031 13.95057 206.97031 L 54.660746 206.97031 C 56.48223 206.97031 58.030377 206.33282 59.305424 205.05777 C 60.580461 203.78281 61.218486 202.23406 61.218486 200.41257 L 61.218486 156.15016 C 61.218486 154.32875 61.855996 152.78052 63.13103 151.50548 C 64.406067 150.23044 65.954224 149.59294 67.775708 149.59294 L 73.786711 149.59294 C 75.608195 149.59294 77.520711 150.13973 79.524345 151.23263 C 81.527979 152.14329 83.076126 153.32715 84.169023 154.78435 C 89.815545 162.7988 95.462465 170.7227 101.10907 178.55499 C 106.93775 186.3873 112.76657 194.12875 118.59535 201.7789 C 119.68822 203.2361 121.23638 204.51109 123.24002 205.60399 C 125.42573 206.51474 127.42954 206.97031 129.25103 206.97031 L 180.07066 206.97031 C 181.89216 206.97031 183.07593 206.15038 183.62238 204.51103 C 184.16883 202.68954 183.89567 201.05015 182.8028 199.59299 C 176.79188 191.57851 169.9612 182.744 162.31102 173.09021 C 154.66078 163.43641 147.37511 154.05569 140.45344 144.94826 C 139.36063 143.49115 138.99619 142.03363 139.36049 140.57643 C 139.90693 138.93709 140.9088 137.57139 142.36599 136.47849 C 146.73754 133.74625 150.65382 130.37622 154.11462 126.36903 C 157.57537 122.17959 160.58061 117.53457 163.13061 112.43448 C 165.6807 107.33433 167.5938 101.96104 168.86876 96.314535 C 170.32596 90.485814 171.05416 84.656983 171.05416 78.828263 C 171.05416 68.263728 169.23279 58.609266 165.58989 49.866207 C 162.12908 41.123149 157.21089 33.563676 150.83575 27.188521 C 144.64271 20.813378 137.08327 15.89518 128.15807 12.434383 C 119.23288 8.7914425 109.48772 6.9701172 98.923161 6.9701172 L 13.95057 6.9701172 z M 24.74526 9.1746338 L 94.745638 9.1746338 L 94.745638 12.174967 L 74.695182 12.174967 L 74.695182 14.381034 C 75.879954 14.381122 77.064722 14.380052 78.249487 14.380518 C 85.621976 14.383418 92.994789 14.394847 100.367 14.430127 C 108.76149 14.513487 117.15654 16.115607 125.02544 19.1363 C 132.95783 22.169679 140.30417 26.89857 146.22105 33.066199 C 155.9353 43.159061 161.67911 56.777582 163.19779 70.577604 C 163.71674 75.140976 163.75554 79.870443 163.35644 84.357125 C 162.94586 88.859185 162.12176 93.306197 160.8832 97.605412 C 158.06527 107.29073 153.31987 116.57386 146.26911 123.86634 C 143.56144 127.04938 139.77405 128.9793 136.65884 131.69842 C 131.95996 135.38652 130.35535 142.66443 133.51847 147.82767 C 146.45218 165.34535 160.2764 182.18408 173.44833 199.52322 C 164.01863 199.53502 154.5888 199.54656 145.1591 199.55836 C 140.46049 199.54346 135.76134 199.5706 131.0628 199.5625 C 128.98598 199.5948 126.61561 199.49289 125.09417 197.87061 C 113.8791 183.6146 103.25258 168.90089 92.760746 154.09602 C 90.285535 150.05196 86.902488 146.38681 82.51641 144.42064 C 78.424612 142.20005 73.632851 142.04605 69.087256 142.18925 C 61.992157 141.41002 54.826763 146.99642 53.954846 154.10015 C 53.776116 166.10541 53.825235 178.11855 53.809635 190.1269 C 53.845835 193.23963 53.738508 196.35475 53.842708 199.46483 C 47.510899 199.51443 41.178978 199.54506 34.846969 199.54596 C 28.174677 199.57246 21.500638 199.50667 14.829069 199.58937 C 14.821069 140.91692 14.812781 82.242609 14.804781 23.570138 C 14.765881 20.520735 14.878389 17.468234 14.758789 14.421859 C 24.770792 14.407666 34.783047 14.400837 44.795199 14.393437 L 44.795199 12.174967 L 24.74526 12.174967 L 24.74526 9.1746338 z M 9.5761597 23.833687 L 12.575977 23.833687 L 12.575977 93.833549 L 9.5761597 93.833549 L 9.5761597 23.833687 z M 9.5761597 121.729 L 12.575977 121.729 L 12.575977 191.72938 L 9.5761597 191.72938 L 9.5761597 121.729 z M 144.17621 153.5653 L 168.97367 184.95202 L 166.61929 186.81185 L 141.82235 155.42514 L 144.17621 153.5653 z M 56.07203 156.94443 L 59.071847 156.94443 L 59.071847 196.94457 L 56.07203 196.94457 L 56.07203 156.94443 z M 93.744666 159.57166 L 117.52358 191.7361 L 115.11132 193.51945 L 91.33241 161.35501 L 93.744666 159.57166 z M 13.911812 201.77993 L 53.911955 201.77993 L 53.911955 204.77975 L 13.911812 204.77975 L 13.911812 201.77993 z M 131.91598 201.77993 L 171.91612 201.77993 L 171.91612 204.77975 L 131.91598 204.77975 L 131.91598 201.77993 z " />
    <path
       id="path447"
       style="font-weight:bold;font-size:273.224px;line-height:1.25;font-family:Heavitas;-inkscape-font-specification:Heavitas;display:inline;fill:none;stroke:#fe0000;stroke-width:0.1;stroke-dasharray:none;stroke-opacity:1"
       d="m 376.50476,9.9762744 c -1.82149,0 -3.36963,0.6375096 -4.64468,1.9125396 -1.27504,1.27505 -1.91254,2.82319 -1.91254,4.64468 V 203.41873 c 0,1.82149 0.6375,3.36963 1.91254,4.64467 1.27505,1.27505 2.82319,1.91255 4.64468,1.91255 h 40.7107 c 1.82149,10e-6 3.36963,-0.6375 4.64467,-1.91255 1.27505,-1.27504 1.91255,-2.82318 1.91255,-4.64467 v -44.26242 c 0,-1.8215 0.6375,-3.36964 1.91254,-4.64468 1.27504,-1.27504 2.82319,-1.91254 4.64468,-1.91254 h 6.011 c 1.82149,0 3.734,0.54628 5.73764,1.63918 2.00363,0.91075 3.55178,2.09452 4.64467,3.55172 5.64663,8.01456 11.29343,15.93823 16.94006,23.77064 5.82876,7.83241 11.65749,15.57364 17.48627,23.2239 1.0929,1.4572 2.64104,2.7322 4.64467,3.82509 2.1858,0.91076 4.18952,1.36633 6.01101,1.36633 h 50.81963 c 1.8215,0 3.0058,-0.81942 3.55224,-2.45877 0.54646,-1.82149 0.27331,-3.46085 -0.81959,-4.91804 -6.01092,-8.01457 -12.8415,-16.84887 -20.49177,-26.50278 -7.65026,-9.6539 -14.93643,-19.03501 -21.8581,-28.14247 -1.09289,-1.45719 -1.45725,-2.91411 -1.09295,-4.3713 0.54644,-1.63935 1.54831,-3.00557 3.0055,-4.09846 4.37158,-2.73225 8.28781,-6.10219 11.74864,-10.10946 3.46083,-4.18943 6.46642,-8.83385 9.0165,-13.93404 2.55009,-5.10017 4.46259,-10.47384 5.73763,-16.120456 1.4572,-5.82877 2.18592,-11.6575 2.18592,-17.48627 0,-10.56466 -1.8218,-20.21838 -5.46479,-28.96154 -3.46083,-8.74316 -8.37891,-16.30247 -14.75413,-22.67769 -6.19307,-6.37522 -13.75238,-11.2933 -22.67769,-14.75413 -8.9253,-3.64299 -18.67025,-5.4642696 -29.23491,-5.4642696 z m 64.29944,7.4098796 c 7.37259,0.003 14.74519,0.0149 22.11751,0.0501 8.3946,0.0834 16.789,1.68545 24.65793,4.70617 7.93247,3.03341 15.27915,7.76221 21.19612,13.9299 9.71436,10.09297 15.45754,23.71122 16.97622,37.51141 0.51895,4.5634 0.55827,9.29228 0.15917,13.779 -0.41058,4.50212 -1.23459,8.94955 -2.47324,13.248796 -2.81796,9.68543 -7.56322,18.96843 -14.61409,26.26093 -2.70767,3.18313 -6.49506,5.11245 -9.61027,7.83157 -4.69899,3.68818 -6.30349,10.96601 -3.14038,16.12925 12.93394,17.51789 26.75731,34.35619 39.92935,51.69555 -9.42981,0.0118 -18.85942,0.0239 -28.28923,0.0357 -4.69869,-0.0149 -9.39724,0.0121 -14.09578,0.004 -2.07691,0.0323 -4.44762,-0.07 -5.96914,-1.6924 -11.21518,-14.25612 -21.84149,-28.96952 -32.33343,-43.77459 -2.47522,-4.04406 -5.85825,-7.7092 -10.24434,-9.67538 -4.09189,-2.22058 -8.88346,-2.3746 -13.42915,-2.23139 -7.0952,-0.77923 -14.26049,4.80706 -15.13241,11.9109 -0.17873,12.00536 -0.12961,24.01828 -0.14521,36.02674 0.0362,3.11276 -0.0706,6.22778 0.0336,9.33793 -6.33192,0.0496 -12.66415,0.0807 -18.99626,0.0816 -6.67239,0.0265 -13.34571,-0.0393 -20.01738,0.0434 -0.008,-58.6731 -0.0168,-117.346626 -0.0248,-176.019746 -0.0389,-3.04943 0.0736,-6.10187 -0.046,-9.14828 13.791,-0.0196 27.58218,-0.032 41.37319,-0.0388 7.37246,6.4e-4 14.74543,-0.006 22.11803,-0.003 z" />
    <path
       id="path447-1"
       style="font-weight:bold;font-size:273.224px;line-height:1.25;font-family:Heavitas;-inkscape-font-specification:Heavitas;display:inline;fill:none;stroke:#fe0000;stroke-width:0.1;stroke-dasharray:none;stroke-opacity:1"
       d="m 195.17076,8.2288016 c -1.82149,0 -3.36963,0.6375158 -4.64468,1.9125444 -1.27504,1.275049 -1.91255,2.82319 -1.91255,4.644678 V 201.67126 c 0,1.8215 0.63751,3.36964 1.91255,4.64468 1.27505,1.27504 2.82319,1.91254 4.64468,1.91254 h 40.71069 c 1.82149,0 3.36964,-0.63749 4.64468,-1.91254 1.27504,-1.27504 1.91254,-2.82319 1.91254,-4.64468 v -44.26241 c 0,-1.8215 0.63751,-3.36964 1.91255,-4.64468 1.27503,-1.27504 2.82319,-1.91254 4.64467,-1.91254 h 6.01101 c 1.82148,0 3.73399,0.54627 5.73763,1.63917 2.00363,0.91075 3.55179,2.09452 4.64468,3.55172 5.64662,8.01456 11.29342,15.93824 16.94005,23.77064 5.82875,7.8324 11.6575,15.57366 17.48627,23.22391 1.0929,1.4572 2.64105,2.73219 4.64468,3.82509 2.1858,0.91075 4.18951,1.36632 6.011,1.36632 h 50.81964 c 1.8215,0 3.0058,-0.81941 3.55224,-2.45876 0.54646,-1.82148 0.27331,-3.46086 -0.81959,-4.91805 -6.01092,-8.01456 -12.84151,-16.84887 -20.49177,-26.50277 -7.65026,-9.65389 -14.93644,-19.03502 -21.8581,-28.14247 -1.09289,-1.45719 -1.45726,-2.91412 -1.09296,-4.37131 0.54644,-1.63935 1.54831,-3.00557 3.0055,-4.09846 4.37158,-2.73224 8.28781,-6.10219 11.74864,-10.10946 3.46083,-4.18942 6.46643,-8.83385 9.0165,-13.93403 2.55009,-5.10017 4.4626,-10.47385 5.73764,-16.120468 1.4572,-5.828764 2.18591,-11.657507 2.18591,-17.486271 0,-10.56465 -1.8218,-20.218389 -5.46478,-28.96154 C 343.34925,42.38174 338.43115,34.822419 332.05594,28.447205 325.86288,22.071992 318.30356,17.153894 309.37825,13.693067 300.45296,10.050081 290.708,8.2288016 280.14335,8.2288016 Z m 78.44585,4.2276484 c 3.42535,-0.0046 6.85046,0.01092 10.27431,0.112138 8.38888,0.307522 16.85872,2.137471 24.64139,5.344893 10.17984,3.970881 19.22332,10.878298 25.8346,19.623092 6.00346,7.958576 10.15996,17.431465 12.17083,27.238131 1.53142,7.69234 1.92718,15.540567 0.99271,23.303487 -0.83144,6.52969 -2.40868,12.924519 -4.86172,19.012799 -3.4228,8.18725 -8.13389,16.00639 -14.72778,22.03328 -2.46185,2.5777 -5.77485,4.09656 -8.34575,6.54172 -3.29987,2.8352 -4.43546,8.09093 -2.1115,11.86853 13.48718,18.16345 27.9014,35.61947 41.51478,53.69077 0.59751,0.91684 1.46125,1.69313 1.86862,2.7156 -15.78072,0.076 -31.562,0.0493 -47.34285,0.0563 -2.28709,0.10325 -4.53256,0.0817 -6.69674,-0.78342 -1.72953,-0.58966 -2.95109,-1.9962 -4.06797,-3.37085 -11.21086,-14.47444 -21.98293,-29.28762 -32.51171,-44.265 -1.95758,-3.2538 -4.9764,-5.8265 -8.4708,-7.30188 -3.55528,-1.87457 -7.69166,-1.70968 -11.58999,-1.65158 -5.56313,-0.69203 -11.2646,3.67812 -11.88455,9.28109 -0.1493,14.8507 -0.087,29.70454 -0.0977,44.55645 0.29703,1.3532 -0.27552,3.1127 -1.75596,3.46698 -13.43263,0.0887 -26.8655,0.0652 -40.29832,0.0682 -1.39504,0.32196 -3.14709,-0.51846 -3.29127,-2.05466 -0.001,-62.02193 -0.003,-124.043704 -0.004,-186.065647 -0.32002,-1.368073 0.38395,-3.124714 1.88878,-3.379638 13.37368,-0.0098 26.74738,-0.01914 40.12106,-0.02894 9.49192,-0.001 18.98387,-0.0022 28.47578,-0.0031 3.42489,0.02035 6.85052,-0.0042 10.27586,-0.0088 z" />
  </g>
</svg>
