<?xml version="1.0" encoding="UTF-8" standalone="no"?>
<!-- Created with Inkscape (http://www.inkscape.org/) -->

<svg
   width="600mm"
   height="300mm"
   viewBox="0 0 600 300"
   version="1.1"
   id="svg316"
   inkscape:version="1.2 (dc2aedaf03, 2022-05-15)"
   sodipodi:docname="Parts C.svg"
   xmlns:inkscape="http://www.inkscape.org/namespaces/inkscape"
   xmlns:sodipodi="http://sodipodi.sourceforge.net/DTD/sodipodi-0.dtd"
   xmlns="http://www.w3.org/2000/svg"
   xmlns:svg="http://www.w3.org/2000/svg">
  <sodipodi:namedview
     id="namedview318"
     pagecolor="#ffffff"
     bordercolor="#000000"
     borderopacity="0.25"
     inkscape:showpageshadow="2"
     inkscape:pageopacity="0.0"
     inkscape:pagecheckerboard="0"
     inkscape:deskcolor="#d1d1d1"
     inkscape:document-units="mm"
     showgrid="false"
     inkscape:zoom="0.84096521"
     inkscape:cx="300.84479"
     inkscape:cy="288.95369"
     inkscape:window-width="1920"
     inkscape:window-height="1017"
     inkscape:window-x="-8"
     inkscape:window-y="-8"
     inkscape:window-maximized="1"
     inkscape:current-layer="layer1" />
  <defs
     id="defs313" />
  <g
     inkscape:label="Layer 1"
     inkscape:groupmode="layer"
     id="layer1">
    <path
       id="rect3642-7-9"
       style="fill:none;stroke:#ff0000;stroke-width:0.0999991;stroke-opacity:1"
       d="M 42.96947 50.405709 L 42.96947 53.405526 L 37.969775 53.405526 L 37.969775 80.405945 L 107.96964 80.405945 L 107.96964 53.405526 L 102.96943 53.405526 L 102.96943 50.405709 L 42.96947 50.405709 z M 58.019714 65.405827 L 87.919698 65.405827 L 87.919698 68.305908 L 58.019714 68.305908 L 58.019714 65.405827 z " />
    <path
       id="path447-3-9-5"
       style="font-weight:bold;font-size:273.224px;line-height:1.25;font-family:Heavitas;-inkscape-font-specification:Heavitas;display:inline;fill:none;stroke:#fe0000;stroke-width:0.1;stroke-dasharray:none;stroke-opacity:1"
       d="M 13.95057 6.9701172 C 12.129083 6.9701172 10.580938 7.6076368 9.3058919 8.8826619 C 8.0309358 10.157694 7.3933472 11.70587 7.3933472 13.52734 L 7.3933472 200.41257 C 7.3933472 202.23406 8.0309358 203.78281 9.3058919 205.05777 C 10.580938 206.33282 12.129083 206.97031 13.95057 206.97031 L 54.660746 206.97031 C 56.48223 206.97031 58.030377 206.33282 59.305424 205.05777 C 60.580461 203.78281 61.218486 202.23406 61.218486 200.41257 L 61.218486 156.15016 C 61.218486 154.32875 61.855996 152.78052 63.13103 151.50548 C 64.406067 150.23044 65.954224 149.59294 67.775708 149.59294 L 73.786711 149.59294 C 75.608195 149.59294 77.520711 150.13973 79.524345 151.23263 C 81.527979 152.14329 83.076126 153.32715 84.169023 154.78435 C 89.815545 162.7988 95.462465 170.7227 101.10907 178.55499 C 106.93775 186.3873 112.76657 194.12875 118.59535 201.7789 C 119.68822 203.2361 121.23638 204.51109 123.24002 205.60399 C 125.42573 206.51474 127.42954 206.97031 129.25103 206.97031 L 180.07066 206.97031 C 181.89216 206.97031 183.07593 206.15038 183.62238 204.51103 C 184.16883 202.68954 183.89567 201.05015 182.8028 199.59299 C 176.79188 191.57851 169.9612 182.744 162.31102 173.09021 C 154.66078 163.43641 147.37511 154.05569 140.45344 144.94826 C 139.36063 143.49115 138.99619 142.03363 139.36049 140.57643 C 139.90693 138.93709 140.9088 137.57139 142.36599 136.47849 C 146.73754 133.74625 150.65382 130.37622 154.11462 126.36903 C 157.57537 122.17959 160.58061 117.53457 163.13061 112.43448 C 165.6807 107.33433 167.5938 101.96104 168.86876 96.314535 C 170.32596 90.485814 171.05416 84.656983 171.05416 78.828263 C 171.05416 68.263728 169.23279 58.609266 165.58989 49.866207 C 162.12908 41.123149 157.21089 33.563676 150.83575 27.188521 C 144.64271 20.813378 137.08327 15.89518 128.15807 12.434383 C 119.23288 8.7914425 109.48772 6.9701172 98.923161 6.9701172 L 74.695182 6.9701172 L 74.695182 9.1746338 L 94.745638 9.1746338 L 94.745638 12.174967 L 74.695182 12.174967 L 74.695182 14.381034 C 75.879954 14.381122 77.064722 14.380052 78.249487 14.380518 C 85.621976 14.383418 92.994789 14.394847 100.367 14.430127 C 108.76149 14.513487 117.15654 16.115607 125.02544 19.1363 C 132.95783 22.169679 140.30417 26.89857 146.22105 33.066199 C 155.9353 43.159061 161.67911 56.777582 163.19779 70.577604 C 163.71674 75.140976 163.75554 79.870443 163.35644 84.357125 C 162.94586 88.859185 162.12176 93.306197 160.8832 97.605412 C 158.06527 107.29073 153.31987 116.57386 146.26911 123.86634 C 143.56144 127.04938 139.77405 128.9793 136.65884 131.69842 C 131.95996 135.38652 130.35535 142.66443 133.51847 147.82767 C 146.45218 165.34535 160.2764 182.18408 173.44833 199.52322 C 164.01863 199.53502 154.5888 199.54656 145.1591 199.55836 C 140.46049 199.54346 135.76134 199.5706 131.0628 199.5625 C 128.98598 199.5948 126.61561 199.49289 125.09417 197.87061 C 113.8791 183.6146 103.25258 168.90089 92.760746 154.09602 C 90.285535 150.05196 86.902488 146.38681 82.51641 144.42064 C 78.424612 142.20005 73.632851 142.04605 69.087256 142.18925 C 61.992157 141.41002 54.826763 146.99642 53.954846 154.10015 C 53.776116 166.10541 53.825235 178.11855 53.809635 190.1269 C 53.845835 193.23963 53.738508 196.35475 53.842708 199.46483 C 47.510899 199.51443 41.178978 199.54506 34.846969 199.54596 C 28.174677 199.57246 21.500638 199.50667 14.829069 199.58937 C 14.821069 140.91692 14.812781 82.242609 14.804781 23.570138 C 14.765881 20.520735 14.878389 17.468234 14.758789 14.421859 C 24.770792 14.407666 34.783047 14.400837 44.795199 14.393437 L 44.795199 12.174967 L 24.74526 12.174967 L 24.74526 9.1746338 L 44.795199 9.1746338 L 44.795199 6.9701172 L 13.95057 6.9701172 z M 9.5761597 23.833687 L 12.575977 23.833687 L 12.575977 93.833549 L 9.5761597 93.833549 L 9.5761597 23.833687 z M 9.5761597 121.729 L 12.575977 121.729 L 12.575977 191.72938 L 9.5761597 191.72938 L 9.5761597 121.729 z M 144.17621 153.5653 L 168.97367 184.95202 L 166.61929 186.81185 L 141.82235 155.42514 L 144.17621 153.5653 z M 56.07203 156.94443 L 59.071847 156.94443 L 59.071847 196.94457 L 56.07203 196.94457 L 56.07203 156.94443 z M 93.744666 159.57166 L 117.52358 191.7361 L 115.11132 193.51945 L 91.33241 161.35501 L 93.744666 159.57166 z M 13.911812 201.77993 L 53.911955 201.77993 L 53.911955 204.77975 L 13.911812 204.77975 L 13.911812 201.77993 z M 131.91598 201.77993 L 171.91612 201.77993 L 171.91612 204.77975 L 131.91598 204.77975 L 131.91598 201.77993 z " />
    <path
       id="path447-3-9"
       style="font-weight:bold;font-size:273.224px;line-height:1.25;font-family:Heavitas;-inkscape-font-specification:Heavitas;display:inline;fill:none;stroke:#fe0000;stroke-width:0.1;stroke-dasharray:none;stroke-opacity:1"
       d="m 381.42505,6.9702366 c -1.82149,0 -3.36963,0.637516 -4.64468,1.912545 -1.27496,1.2750354 -1.91254,2.8232014 -1.91254,4.6446774 V 200.4127 c 0,1.82149 0.63758,3.37023 1.91254,4.64519 1.27505,1.27505 2.82319,1.91255 4.64468,1.91255 h 40.71018 c 1.82149,0 3.36963,-0.6375 4.64468,-1.91255 1.27504,-1.27496 1.91306,-2.8237 1.91306,-4.64519 v -44.26242 c 0,-1.82141 0.6375,-3.36963 1.91254,-4.64467 1.27504,-1.27504 2.82319,-1.91255 4.64468,-1.91255 h 6.011 c 1.82149,0 3.734,0.5468 5.73764,1.6397 2.00364,0.91066 3.55178,2.09452 4.64468,3.55172 5.64654,8.01448 11.29342,15.93831 16.94005,23.77063 5.82868,7.83234 11.65749,15.57373 17.48627,23.22391 1.0929,1.4572 2.64104,2.73219 4.64468,3.82509 2.18571,0.91075 4.18951,1.36633 6.011,1.36633 h 50.81963 c 1.8215,0 3.00528,-0.81994 3.55173,-2.45929 0.54645,-1.82149 0.27331,-3.46085 -0.81959,-4.91804 -6.01092,-8.01448 -12.84159,-16.84895 -20.49177,-26.50277 -7.65027,-9.65383 -14.93592,-19.0345 -21.85759,-28.14196 -1.09281,-1.45711 -1.45725,-2.91463 -1.09295,-4.37183 0.54644,-1.63934 1.54831,-3.00504 3.0055,-4.09794 4.37158,-2.73224 8.28781,-6.10227 11.74864,-10.10946 3.46075,-4.18944 6.46598,-8.83446 9.01598,-13.93455 2.55009,-5.10018 4.46319,-10.47341 5.73815,-16.119946 1.4572,-5.828735 2.1854,-11.657537 2.1854,-17.486272 0,-10.564568 -1.82136,-20.21897 -5.46426,-28.962056 -3.46084,-8.743085 -8.379,-16.302513 -14.75414,-22.677686 C 512.11717,20.813476 504.55778,15.895308 495.63255,12.434502 486.70733,8.7915506 476.96222,6.9702366 466.39764,6.9702366 Z m 10.79469,2.204517 h 70.00038 v 3.0003334 h -70.00038 z m 53.50423,5.2058834 c 7.37251,0.0029 14.74528,0.01433 22.11751,0.04961 8.39452,0.08336 16.78952,1.685471 24.65845,4.706173 7.93239,3.033388 15.27872,7.762252 21.1956,13.929899 9.71428,10.092892 15.45806,23.711341 16.97674,37.511405 0.51895,4.563384 0.55775,9.292827 0.15865,13.779521 -0.41058,4.502075 -1.23467,8.949063 -2.47323,13.248287 -2.81796,9.685348 -7.56331,18.968418 -14.6141,26.260928 -2.70767,3.18304 -6.49506,5.11296 -9.61027,7.83208 -4.69891,3.6881 -6.30349,10.96602 -3.14037,16.12926 12.93377,17.51774 26.7579,34.35635 39.92986,51.69555 -9.42973,0.0118 -18.8595,0.0233 -28.28923,0.0351 -4.69861,-0.0149 -9.39776,0.0121 -14.0963,0.004 -2.07682,0.0323 -4.44718,-0.0696 -5.96862,-1.69188 -11.2151,-14.25604 -21.84157,-28.96969 -32.33343,-43.77459 -2.47522,-4.04406 -5.85825,-7.70921 -10.24434,-9.67538 -4.09181,-2.22059 -8.88354,-2.37459 -13.42915,-2.23139 -7.09512,-0.77923 -14.26049,4.80714 -15.13241,11.9109 -0.17873,12.00529 -0.12961,24.01836 -0.14521,36.02674 0.0362,3.11276 -0.0711,6.22785 0.0331,9.33793 -6.33183,0.0496 -12.66371,0.0802 -18.99574,0.0811 -6.67231,0.0265 -13.34631,-0.0393 -20.0179,0.0434 -0.008,-58.67263 -0.0163,-117.346574 -0.0243,-176.019222 -0.0389,-3.049412 0.0736,-6.101895 -0.046,-9.148279 13.79092,-0.01955 27.58226,-0.03247 41.37319,-0.03927 7.37238,6.4e-4 14.745,-0.005 22.11751,-0.0021 z m -68.67333,9.453169 h 2.99982 v 69.999862 h -2.99982 z m 0,97.895314 h 2.99982 v 70.00039 h -2.99982 z m 134.60006,31.83631 24.79745,31.3867 -2.35438,1.85984 -24.79694,-31.38671 z m -88.10419,3.37912 h 2.99982 v 40.00013 h -2.99982 z m 37.67264,2.62723 23.77891,32.16444 -2.41226,1.78336 -23.77891,-32.16444 z m -79.83286,42.20828 h 40.00015 v 2.9998 h -40.00015 z m 118.00417,0 h 40.00014 v 2.9998 h -40.00014 z" />
    <path
       id="path447-3-9-3"
       style="font-weight:bold;font-size:273.224px;line-height:1.25;font-family:Heavitas;-inkscape-font-specification:Heavitas;display:inline;fill:none;stroke:#fe0000;stroke-width:0.1;stroke-dasharray:none;stroke-opacity:1"
       d="m 197.68776,6.9702369 c -1.82149,0 -3.36963,0.637516 -4.64468,1.912545 -1.27496,1.2750351 -1.91254,2.8232021 -1.91254,4.6446781 V 200.4127 c 0,1.82149 0.63758,3.37023 1.91254,4.64519 1.27505,1.27505 2.82319,1.91255 4.64468,1.91255 h 40.71018 c 1.82149,0 3.36963,-0.6375 4.64468,-1.91255 1.27504,-1.27496 1.91306,-2.8237 1.91306,-4.64519 v -44.26242 c 0,-1.82141 0.6375,-3.36963 1.91254,-4.64467 1.27504,-1.27504 2.82319,-1.91255 4.64468,-1.91255 h 6.011 c 1.82149,0 3.734,0.5468 5.73764,1.6397 2.00364,0.91066 3.55178,2.09452 4.64468,3.55172 5.64654,8.01448 11.29342,15.93831 16.94005,23.77063 5.82868,7.83234 11.65749,15.57373 17.48627,23.22391 1.0929,1.4572 2.64104,2.73219 4.64468,3.82509 2.18571,0.91075 4.18951,1.36633 6.011,1.36633 h 50.81963 c 1.8215,0 3.00528,-0.81994 3.55173,-2.45929 0.54645,-1.82149 0.27331,-3.46085 -0.81959,-4.91804 -6.01092,-8.01448 -12.84159,-16.84895 -20.49177,-26.50277 -7.65027,-9.65383 -14.93592,-19.0345 -21.85759,-28.14196 -1.09281,-1.45711 -1.45725,-2.91463 -1.09295,-4.37183 0.54644,-1.63934 1.54831,-3.00504 3.0055,-4.09794 4.37158,-2.73224 8.28781,-6.10227 11.74864,-10.10946 3.46075,-4.18944 6.46598,-8.83446 9.01598,-13.93455 2.55009,-5.10018 4.46319,-10.47341 5.73815,-16.119943 1.4572,-5.82874 2.1854,-11.657539 2.1854,-17.486274 0,-10.564568 -1.82136,-20.21897 -5.46426,-28.962056 -3.46084,-8.743085 -8.379,-16.302513 -14.75414,-22.677686 C 328.37988,20.813477 320.82049,15.895309 311.89526,12.434503 302.97004,8.7915509 293.22493,6.9702369 282.66035,6.9702369 Z m 10.79469,2.204517 h 70.00038 v 3.0003341 h -70.00038 z m 53.50423,5.2058841 c 7.37251,0.0029 14.74528,0.01433 22.11751,0.04961 8.39452,0.08336 16.78952,1.685471 24.65845,4.706173 7.93239,3.033388 15.27872,7.762252 21.1956,13.929899 9.71428,10.092892 15.45806,23.711341 16.97674,37.511405 0.51895,4.563384 0.55775,9.292827 0.15865,13.779521 -0.41058,4.502071 -1.23467,8.949061 -2.47323,13.248291 -2.81796,9.685343 -7.56331,18.968413 -14.6141,26.260923 -2.70767,3.18304 -6.49506,5.11296 -9.61027,7.83208 -4.69891,3.6881 -6.30349,10.96602 -3.14037,16.12926 12.93377,17.51774 26.7579,34.35635 39.92986,51.69555 -9.42973,0.0118 -18.8595,0.0233 -28.28923,0.0351 -4.69861,-0.0149 -9.39776,0.0121 -14.0963,0.004 -2.07682,0.0323 -4.44718,-0.0696 -5.96862,-1.69188 -11.2151,-14.25604 -21.84157,-28.96969 -32.33343,-43.77459 -2.47522,-4.04406 -5.85825,-7.70921 -10.24434,-9.67538 -4.09181,-2.22059 -8.88354,-2.37459 -13.42915,-2.23139 -7.09512,-0.77923 -14.26049,4.80714 -15.13241,11.9109 -0.17873,12.00529 -0.12961,24.01836 -0.14521,36.02674 0.0362,3.11276 -0.0711,6.22785 0.0331,9.33793 -6.33183,0.0496 -12.66371,0.0802 -18.99574,0.0811 -6.67231,0.0265 -13.34631,-0.0393 -20.0179,0.0434 -0.008,-58.67263 -0.0163,-117.346573 -0.0243,-176.019221 -0.0389,-3.049412 0.0736,-6.101895 -0.046,-9.148279 13.79092,-0.01955 27.58226,-0.03247 41.37319,-0.03927 7.37238,6.4e-4 14.745,-0.005 22.11751,-0.0021 z m -68.67333,9.453169 h 2.99982 v 69.99986 h -2.99982 z m 0,97.895313 h 2.99982 v 70.00039 h -2.99982 z m 134.60006,31.83631 24.79745,31.3867 -2.35438,1.85984 -24.79694,-31.38671 z m -88.10419,3.37912 h 2.99982 v 40.00013 h -2.99982 z m 37.67264,2.62723 23.77891,32.16444 -2.41226,1.78336 -23.77891,-32.16444 z M 197.649,201.78006 h 40.00015 v 2.9998 H 197.649 Z m 118.00417,0 h 40.00014 v 2.9998 h -40.00014 z" />
  </g>
</svg>
